<svg xmlns="http://www.w3.org/2000/svg" xmlns:xlink="http://www.w3.org/1999/xlink" contentStyleType="text/css" data-diagram-type="ACTIVITY" height="1961px" preserveAspectRatio="none" style="width:649px;height:1961px;background:#FFFFFF;" version="1.1" viewBox="0 0 649 1961" width="649px" zoomAndPan="magnify"><defs/><g><ellipse cx="355.7097" cy="20" fill="#222222" rx="10" ry="10" style="stroke:#222222;stroke-width:1;"/><rect fill="none" height="190.2031" style="stroke:#000000;stroke-width:1.5;" width="323.5234" x="193.948" y="40"/><path d="M259.0593,40 L259.0593,49.2969 L249.0593,59.2969 L193.948,59.2969" fill="none" style="stroke:#000000;stroke-width:1.5;"/><text fill="#000000" font-family="sans-serif" font-size="14" lengthAdjust="spacing" textLength="55.1113" x="196.948" y="53.9951">Student</text><rect fill="#F1F1F1" height="33.9688" rx="12.5" ry="12.5" style="stroke:#181818;stroke-width:0.5;" width="91.1504" x="310.1345" y="76.2969"/><text fill="#000000" font-family="sans-serif" font-size="12" lengthAdjust="spacing" textLength="71.1504" x="320.1345" y="97.4355">Open portal</text><rect fill="#F1F1F1" height="33.9688" rx="12.5" ry="12.5" style="stroke:#181818;stroke-width:0.5;" width="223.9004" x="243.7595" y="130.2656"/><text fill="#000000" font-family="sans-serif" font-size="12" lengthAdjust="spacing" textLength="203.9004" x="253.7595" y="151.4043">Register (optional) / Upload photo</text><rect fill="#F1F1F1" height="33.9688" rx="12.5" ry="12.5" style="stroke:#181818;stroke-width:0.5;" width="303.5234" x="203.948" y="184.2344"/><text fill="#000000" font-family="sans-serif" font-size="12" lengthAdjust="spacing" textLength="283.5234" x="213.948" y="205.373">Login (email + password) and provide webcam</text><rect fill="none" height="366.1406" style="stroke:#000000;stroke-width:1.5;" width="627.7988" x="11" y="240.2031"/><path d="M73.2061,240.2031 L73.2061,249.5 L63.2061,259.5 L11,259.5" fill="none" style="stroke:#000000;stroke-width:1.5;"/><text fill="#000000" font-family="sans-serif" font-size="14" lengthAdjust="spacing" textLength="52.2061" x="14" y="254.1982">System</text><rect fill="#F1F1F1" height="33.9688" rx="12.5" ry="12.5" style="stroke:#181818;stroke-width:0.5;" width="139.6016" x="285.9089" y="276.5"/><text fill="#000000" font-family="sans-serif" font-size="12" lengthAdjust="spacing" textLength="119.6016" x="295.9089" y="297.6387">Validate credentials</text><polygon fill="#F1F1F1" points="306.575,330.4688,404.8445,330.4688,416.8445,342.4688,404.8445,354.4688,306.575,354.4688,294.575,342.4688,306.575,330.4688" style="stroke:#181818;stroke-width:0.5;"/><text fill="#000000" font-family="sans-serif" font-size="11" lengthAdjust="spacing" textLength="98.2695" x="306.575" y="346.2769">Credentials valid?</text><text fill="#000000" font-family="sans-serif" font-size="11" lengthAdjust="spacing" textLength="19.0083" x="275.5667" y="339.8745">yes</text><text fill="#000000" font-family="sans-serif" font-size="11" lengthAdjust="spacing" textLength="13.7017" x="416.8445" y="339.8745">no</text><rect fill="#F1F1F1" height="33.9688" rx="12.5" ry="12.5" style="stroke:#181818;stroke-width:0.5;" width="140.3926" x="121.4028" y="364.4688"/><text fill="#000000" font-family="sans-serif" font-size="12" lengthAdjust="spacing" textLength="120.3926" x="131.4028" y="385.6074">Generate JWT token</text><rect fill="#F1F1F1" height="33.9688" rx="12.5" ry="12.5" style="stroke:#181818;stroke-width:0.5;" width="299.4395" x="41.8794" y="418.4375"/><text fill="#000000" font-family="sans-serif" font-size="12" lengthAdjust="spacing" textLength="279.4395" x="51.8794" y="439.5762">Perform face verification (compare encodings)</text><polygon fill="#F1F1F1" points="149.7207,472.4063,233.4775,472.4063,245.4775,484.4063,233.4775,496.4063,149.7207,496.4063,137.7207,484.4063,149.7207,472.4063" style="stroke:#181818;stroke-width:0.5;"/><text fill="#000000" font-family="sans-serif" font-size="11" lengthAdjust="spacing" textLength="83.7568" x="149.7207" y="488.2144">Face matched?</text><text fill="#000000" font-family="sans-serif" font-size="11" lengthAdjust="spacing" textLength="19.0083" x="118.7124" y="481.812">yes</text><text fill="#000000" font-family="sans-serif" font-size="11" lengthAdjust="spacing" textLength="13.7017" x="245.4775" y="481.812">no</text><rect fill="#F1F1F1" height="33.9688" rx="12.5" ry="12.5" style="stroke:#181818;stroke-width:0.5;" width="128.7031" x="32.2871" y="506.4063"/><text fill="#000000" font-family="sans-serif" font-size="12" lengthAdjust="spacing" textLength="108.7031" x="42.2871" y="527.5449">Mark user verified</text><rect fill="#F1F1F1" height="33.9688" rx="12.5" ry="12.5" style="stroke:#181818;stroke-width:0.5;" width="147.2773" x="23" y="560.375"/><text fill="#000000" font-family="sans-serif" font-size="12" lengthAdjust="spacing" textLength="127.2773" x="33" y="581.5137">Create Exam Session</text><rect fill="#F1F1F1" height="33.9688" rx="12.5" ry="12.5" style="stroke:#181818;stroke-width:0.5;" width="192.5645" x="190.2773" y="506.4063"/><text fill="#000000" font-family="sans-serif" font-size="12" lengthAdjust="spacing" textLength="172.5645" x="200.2773" y="527.5449">Reject login (face mismatch)</text><ellipse cx="286.5596" cy="571.375" fill="none" rx="11" ry="11" style="stroke:#222222;stroke-width:1;"/><ellipse cx="286.5596" cy="571.375" fill="#222222" rx="6" ry="6" style="stroke:#222222;stroke-width:1;"/><rect fill="#F1F1F1" height="33.9688" rx="12.5" ry="12.5" style="stroke:#181818;stroke-width:0.5;" width="213.957" x="412.8418" y="364.4688"/><text fill="#000000" font-family="sans-serif" font-size="12" lengthAdjust="spacing" textLength="193.957" x="422.8418" y="385.6074">Reject login (invalid credentials)</text><ellipse cx="519.8203" cy="429.4375" fill="none" rx="11" ry="11" style="stroke:#222222;stroke-width:1;"/><ellipse cx="519.8203" cy="429.4375" fill="#222222" rx="6" ry="6" style="stroke:#222222;stroke-width:1;"/><rect fill="none" height="719.9844" style="stroke:#000000;stroke-width:1.5;" width="444.7949" x="126.7542" y="616.3438"/><path d="M211.6213,616.3438 L211.6213,625.6406 L201.6213,635.6406 L126.7542,635.6406" fill="none" style="stroke:#000000;stroke-width:1.5;"/><text fill="#000000" font-family="sans-serif" font-size="14" lengthAdjust="spacing" textLength="74.8672" x="129.7542" y="630.3389">Monitoring</text><rect fill="#F1F1F1" height="33.9688" rx="12.5" ry="12.5" style="stroke:#181818;stroke-width:0.5;" width="192.8984" x="259.2605" y="652.6406"/><text fill="#000000" font-family="sans-serif" font-size="12" lengthAdjust="spacing" textLength="172.8984" x="269.2605" y="673.7793">Start webcam + mic capture</text><rect fill="#F1F1F1" height="33.9688" rx="12.5" ry="12.5" style="stroke:#181818;stroke-width:0.5;" width="196.5137" x="257.4529" y="706.6094"/><text fill="#000000" font-family="sans-serif" font-size="12" lengthAdjust="spacing" textLength="176.5137" x="267.4529" y="727.748">Initialize auto-save every 10s</text><rect fill="#F1F1F1" height="33.9688" rx="12.5" ry="12.5" style="stroke:#181818;stroke-width:0.5;" width="186.4473" x="262.4861" y="804.5781"/><text fill="#000000" font-family="sans-serif" font-size="12" lengthAdjust="spacing" textLength="166.4473" x="272.4861" y="825.7168">Capture frame(s) and audio</text><rect fill="#F1F1F1" height="33.9688" rx="12.5" ry="12.5" style="stroke:#181818;stroke-width:0.5;" width="278.1816" x="216.6189" y="858.5469"/><text fill="#000000" font-family="sans-serif" font-size="12" lengthAdjust="spacing" textLength="258.1816" x="226.6189" y="879.6855">Run face detection (YuNet &#8594; Caffe &#8594; Haar)</text><rect fill="#F1F1F1" height="33.9688" rx="12.5" ry="12.5" style="stroke:#181818;stroke-width:0.5;" width="139.1855" x="286.1169" y="912.5156"/><text fill="#000000" font-family="sans-serif" font-size="12" lengthAdjust="spacing" textLength="119.1855" x="296.1169" y="933.6543">Estimate head pose</text><rect fill="#F1F1F1" height="33.9688" rx="12.5" ry="12.5" style="stroke:#181818;stroke-width:0.5;" width="160.9297" x="275.2449" y="966.4844"/><text fill="#000000" font-family="sans-serif" font-size="12" lengthAdjust="spacing" textLength="140.9297" x="285.2449" y="987.623">Check multiple persons</text><rect fill="#F1F1F1" height="33.9688" rx="12.5" ry="12.5" style="stroke:#181818;stroke-width:0.5;" width="136.7012" x="287.3591" y="1020.4531"/><text fill="#000000" font-family="sans-serif" font-size="12" lengthAdjust="spacing" textLength="116.7012" x="297.3591" y="1041.5918">Analyze audio level</text><polygon fill="#F1F1F1" points="290.7383,1074.4219,420.6812,1074.4219,432.6812,1086.4219,420.6812,1098.4219,290.7383,1098.4219,278.7383,1086.4219,290.7383,1074.4219" style="stroke:#181818;stroke-width:0.5;"/><text fill="#000000" font-family="sans-serif" font-size="11" lengthAdjust="spacing" textLength="129.9429" x="290.7383" y="1090.23">Any violation detected?</text><text fill="#000000" font-family="sans-serif" font-size="11" lengthAdjust="spacing" textLength="19.0083" x="259.73" y="1083.8276">yes</text><text fill="#000000" font-family="sans-serif" font-size="11" lengthAdjust="spacing" textLength="13.7017" x="432.6812" y="1083.8276">no</text><rect fill="#F1F1F1" height="33.9688" rx="12.5" ry="12.5" style="stroke:#181818;stroke-width:0.5;" width="217.5137" x="146.7542" y="1108.4219"/><text fill="#000000" font-family="sans-serif" font-size="12" lengthAdjust="spacing" textLength="197.5137" x="156.7542" y="1129.5605">Log violation (type, ts, evidence)</text><rect fill="#F1F1F1" height="33.9688" rx="12.5" ry="12.5" style="stroke:#181818;stroke-width:0.5;" width="181.8594" x="164.5813" y="1162.3906"/><text fill="#000000" font-family="sans-serif" font-size="12" lengthAdjust="spacing" textLength="161.8594" x="174.5813" y="1183.5293">Display warning to student</text><rect fill="#F1F1F1" height="33.9688" rx="12.5" ry="12.5" style="stroke:#181818;stroke-width:0.5;" width="156.5703" x="177.2258" y="1216.3594"/><text fill="#000000" font-family="sans-serif" font-size="12" lengthAdjust="spacing" textLength="136.5703" x="187.2258" y="1237.498">Flag for proctor review</text><rect fill="#F1F1F1" height="33.9688" rx="12.5" ry="12.5" style="stroke:#181818;stroke-width:0.5;" width="143.2813" x="384.2678" y="1108.4219"/><text fill="#000000" font-family="sans-serif" font-size="12" lengthAdjust="spacing" textLength="123.2813" x="394.2678" y="1129.5605">Continue monitoring</text><polygon fill="#F1F1F1" points="355.7097,1256.3281,367.7097,1268.3281,355.7097,1280.3281,343.7097,1268.3281,355.7097,1256.3281" style="stroke:#181818;stroke-width:0.5;"/><polygon fill="#F1F1F1" points="355.7097,760.5781,367.7097,772.5781,355.7097,784.5781,343.7097,772.5781,355.7097,760.5781" style="stroke:#181818;stroke-width:0.5;"/><polygon fill="#F1F1F1" points="314.3604,1300.3281,397.0591,1300.3281,409.0591,1312.3281,397.0591,1324.3281,314.3604,1324.3281,302.3604,1312.3281,314.3604,1300.3281" style="stroke:#181818;stroke-width:0.5;"/><text fill="#000000" font-family="sans-serif" font-size="11" lengthAdjust="spacing" textLength="82.6987" x="314.3604" y="1316.1362">Exam running?</text><rect fill="none" height="254.2031" style="stroke:#000000;stroke-width:1.5;" width="492.4258" x="102.1843" y="1346.3281"/><path d="M162.4558,1346.3281 L162.4558,1355.625 L152.4558,1365.625 L102.1843,1365.625" fill="none" style="stroke:#000000;stroke-width:1.5;"/><text fill="#000000" font-family="sans-serif" font-size="14" lengthAdjust="spacing" textLength="50.2715" x="105.1843" y="1360.3232">Proctor</text><rect fill="#F1F1F1" height="33.9688" rx="12.5" ry="12.5" style="stroke:#181818;stroke-width:0.5;" width="105.2949" x="303.0623" y="1382.625"/><text fill="#000000" font-family="sans-serif" font-size="12" lengthAdjust="spacing" textLength="85.2949" x="313.0623" y="1403.7637">Receive alerts</text><rect fill="#F1F1F1" height="33.9688" rx="12.5" ry="12.5" style="stroke:#181818;stroke-width:0.5;" width="194.7266" x="258.3464" y="1436.5938"/><text fill="#000000" font-family="sans-serif" font-size="12" lengthAdjust="spacing" textLength="174.7266" x="268.3464" y="1457.7324">View flagged clips / evidence</text><polygon fill="#F1F1F1" points="275.0977,1490.5625,436.3218,1490.5625,448.3218,1502.5625,436.3218,1514.5625,275.0977,1514.5625,263.0977,1502.5625,275.0977,1490.5625" style="stroke:#181818;stroke-width:0.5;"/><text fill="#000000" font-family="sans-serif" font-size="11" lengthAdjust="spacing" textLength="161.2241" x="275.0977" y="1506.3706">Proctor marks false_positive?</text><text fill="#000000" font-family="sans-serif" font-size="11" lengthAdjust="spacing" textLength="19.0083" x="244.0894" y="1499.9683">yes</text><text fill="#000000" font-family="sans-serif" font-size="11" lengthAdjust="spacing" textLength="13.7017" x="448.3218" y="1499.9683">no</text><rect fill="#F1F1F1" height="33.9688" rx="12.5" ry="12.5" style="stroke:#181818;stroke-width:0.5;" width="230.8379" x="122.1843" y="1524.5625"/><text fill="#000000" font-family="sans-serif" font-size="12" lengthAdjust="spacing" textLength="210.8379" x="132.1843" y="1545.7012">Annotate violation as false positive</text><rect fill="#F1F1F1" height="33.9688" rx="12.5" ry="12.5" style="stroke:#181818;stroke-width:0.5;" width="201.5879" x="373.0222" y="1524.5625"/><text fill="#000000" font-family="sans-serif" font-size="12" lengthAdjust="spacing" textLength="181.5879" x="383.0222" y="1545.7012">Confirm violation / take action</text><polygon fill="#F1F1F1" points="355.7097,1564.5313,367.7097,1576.5313,355.7097,1588.5313,343.7097,1576.5313,355.7097,1564.5313" style="stroke:#181818;stroke-width:0.5;"/><rect fill="none" height="298.1406" style="stroke:#000000;stroke-width:1.5;" width="267.2617" x="222.0789" y="1610.5313"/><path d="M300.7664,1610.5313 L300.7664,1619.8281 L290.7664,1629.8281 L222.0789,1629.8281" fill="none" style="stroke:#000000;stroke-width:1.5;"/><text fill="#000000" font-family="sans-serif" font-size="14" lengthAdjust="spacing" textLength="68.6875" x="225.0789" y="1624.5264">Reporting</text><rect fill="#F1F1F1" height="33.9688" rx="12.5" ry="12.5" style="stroke:#181818;stroke-width:0.5;" width="167.4805" x="271.9695" y="1646.8281"/><text fill="#000000" font-family="sans-serif" font-size="12" lengthAdjust="spacing" textLength="147.4805" x="281.9695" y="1667.9668">On exam end or timeout</text><rect fill="#F1F1F1" height="33.9688" rx="12.5" ry="12.5" style="stroke:#181818;stroke-width:0.5;" width="116.6035" x="297.408" y="1700.7969"/><text fill="#000000" font-family="sans-serif" font-size="12" lengthAdjust="spacing" textLength="96.6035" x="307.408" y="1721.9355">Stop monitoring</text><rect fill="#F1F1F1" height="33.9688" rx="12.5" ry="12.5" style="stroke:#181818;stroke-width:0.5;" width="218.2285" x="246.5955" y="1754.7656"/><text fill="#000000" font-family="sans-serif" font-size="12" lengthAdjust="spacing" textLength="198.2285" x="256.5955" y="1775.9043">Calculate score and compile logs</text><rect fill="#F1F1F1" height="33.9688" rx="12.5" ry="12.5" style="stroke:#181818;stroke-width:0.5;" width="181.5781" x="264.9207" y="1808.7344"/><text fill="#000000" font-family="sans-serif" font-size="12" lengthAdjust="spacing" textLength="161.5781" x="274.9207" y="1829.873">Generate report (PDF/CSV)</text><rect fill="#F1F1F1" height="33.9688" rx="12.5" ry="12.5" style="stroke:#181818;stroke-width:0.5;" width="247.2617" x="232.0789" y="1862.7031"/><text fill="#000000" font-family="sans-serif" font-size="12" lengthAdjust="spacing" textLength="227.2617" x="242.0789" y="1883.8418">Store report + backup to DB / archive</text><ellipse cx="355.7097" cy="1939.6719" fill="none" rx="11" ry="11" style="stroke:#222222;stroke-width:1;"/><ellipse cx="355.7097" cy="1939.6719" fill="#222222" rx="6" ry="6" style="stroke:#222222;stroke-width:1;"/><line style="stroke:#181818;stroke-width:1;" x1="355.7097" x2="355.7097" y1="110.2656" y2="130.2656"/><polygon fill="#181818" points="351.7097,120.2656,355.7097,130.2656,359.7097,120.2656,355.7097,124.2656" style="stroke:#181818;stroke-width:1;"/><line style="stroke:#181818;stroke-width:1;" x1="355.7097" x2="355.7097" y1="164.2344" y2="184.2344"/><polygon fill="#181818" points="351.7097,174.2344,355.7097,184.2344,359.7097,174.2344,355.7097,178.2344" style="stroke:#181818;stroke-width:1;"/><line style="stroke:#181818;stroke-width:1;" x1="355.7097" x2="355.7097" y1="30" y2="76.2969"/><polygon fill="#181818" points="351.7097,66.2969,355.7097,76.2969,359.7097,66.2969,355.7097,70.2969" style="stroke:#181818;stroke-width:1;"/><line style="stroke:#181818;stroke-width:1;" x1="191.5991" x2="191.5991" y1="398.4375" y2="418.4375"/><polygon fill="#181818" points="187.5991,408.4375,191.5991,418.4375,195.5991,408.4375,191.5991,412.4375" style="stroke:#181818;stroke-width:1;"/><line style="stroke:#181818;stroke-width:1;" x1="96.6387" x2="96.6387" y1="540.375" y2="560.375"/><polygon fill="#181818" points="92.6387,550.375,96.6387,560.375,100.6387,550.375,96.6387,554.375" style="stroke:#181818;stroke-width:1;"/><line style="stroke:#181818;stroke-width:1;" x1="286.5596" x2="286.5596" y1="540.375" y2="560.375"/><polygon fill="#181818" points="282.5596,550.375,286.5596,560.375,290.5596,550.375,286.5596,554.375" style="stroke:#181818;stroke-width:1;"/><line style="stroke:#181818;stroke-width:1;" x1="137.7207" x2="96.6387" y1="484.4063" y2="484.4063"/><line style="stroke:#181818;stroke-width:1;" x1="96.6387" x2="96.6387" y1="484.4063" y2="506.4063"/><polygon fill="#181818" points="92.6387,496.4063,96.6387,506.4063,100.6387,496.4063,96.6387,500.4063" style="stroke:#181818;stroke-width:1;"/><line style="stroke:#181818;stroke-width:1;" x1="245.4775" x2="286.5596" y1="484.4063" y2="484.4063"/><line style="stroke:#181818;stroke-width:1;" x1="286.5596" x2="286.5596" y1="484.4063" y2="506.4063"/><polygon fill="#181818" points="282.5596,496.4063,286.5596,506.4063,290.5596,496.4063,286.5596,500.4063" style="stroke:#181818;stroke-width:1;"/><line style="stroke:#181818;stroke-width:1;" x1="96.6387" x2="96.6387" y1="594.3438" y2="599.3438"/><line style="stroke:#181818;stroke-width:1;" x1="96.6387" x2="355.7097" y1="599.3438" y2="599.3438"/><line style="stroke:#181818;stroke-width:1;" x1="355.7097" x2="355.7097" y1="599.3438" y2="652.6406"/><polygon fill="#181818" points="351.7097,642.6406,355.7097,652.6406,359.7097,642.6406,355.7097,646.6406" style="stroke:#181818;stroke-width:1;"/><line style="stroke:#181818;stroke-width:1;" x1="191.5991" x2="191.5991" y1="452.4063" y2="472.4063"/><polygon fill="#181818" points="187.5991,462.4063,191.5991,472.4063,195.5991,462.4063,191.5991,466.4063" style="stroke:#181818;stroke-width:1;"/><line style="stroke:#181818;stroke-width:1;" x1="519.8203" x2="519.8203" y1="398.4375" y2="418.4375"/><polygon fill="#181818" points="515.8203,408.4375,519.8203,418.4375,523.8203,408.4375,519.8203,412.4375" style="stroke:#181818;stroke-width:1;"/><line style="stroke:#181818;stroke-width:1;" x1="294.575" x2="191.5991" y1="342.4688" y2="342.4688"/><line style="stroke:#181818;stroke-width:1;" x1="191.5991" x2="191.5991" y1="342.4688" y2="364.4688"/><polygon fill="#181818" points="187.5991,354.4688,191.5991,364.4688,195.5991,354.4688,191.5991,358.4688" style="stroke:#181818;stroke-width:1;"/><line style="stroke:#181818;stroke-width:1;" x1="416.8445" x2="519.8203" y1="342.4688" y2="342.4688"/><line style="stroke:#181818;stroke-width:1;" x1="519.8203" x2="519.8203" y1="342.4688" y2="364.4688"/><polygon fill="#181818" points="515.8203,354.4688,519.8203,364.4688,523.8203,354.4688,519.8203,358.4688" style="stroke:#181818;stroke-width:1;"/><line style="stroke:#181818;stroke-width:1;" x1="355.7097" x2="355.7097" y1="310.4688" y2="330.4688"/><polygon fill="#181818" points="351.7097,320.4688,355.7097,330.4688,359.7097,320.4688,355.7097,324.4688" style="stroke:#181818;stroke-width:1;"/><line style="stroke:#181818;stroke-width:1;" x1="355.7097" x2="355.7097" y1="218.2031" y2="276.5"/><polygon fill="#181818" points="351.7097,266.5,355.7097,276.5,359.7097,266.5,355.7097,270.5" style="stroke:#181818;stroke-width:1;"/><line style="stroke:#181818;stroke-width:1;" x1="355.7097" x2="355.7097" y1="686.6094" y2="706.6094"/><polygon fill="#181818" points="351.7097,696.6094,355.7097,706.6094,359.7097,696.6094,355.7097,700.6094" style="stroke:#181818;stroke-width:1;"/><line style="stroke:#181818;stroke-width:1;" x1="355.7097" x2="355.7097" y1="838.5469" y2="858.5469"/><polygon fill="#181818" points="351.7097,848.5469,355.7097,858.5469,359.7097,848.5469,355.7097,852.5469" style="stroke:#181818;stroke-width:1;"/><line style="stroke:#181818;stroke-width:1;" x1="355.7097" x2="355.7097" y1="892.5156" y2="912.5156"/><polygon fill="#181818" points="351.7097,902.5156,355.7097,912.5156,359.7097,902.5156,355.7097,906.5156" style="stroke:#181818;stroke-width:1;"/><line style="stroke:#181818;stroke-width:1;" x1="355.7097" x2="355.7097" y1="946.4844" y2="966.4844"/><polygon fill="#181818" points="351.7097,956.4844,355.7097,966.4844,359.7097,956.4844,355.7097,960.4844" style="stroke:#181818;stroke-width:1;"/><line style="stroke:#181818;stroke-width:1;" x1="355.7097" x2="355.7097" y1="1000.4531" y2="1020.4531"/><polygon fill="#181818" points="351.7097,1010.4531,355.7097,1020.4531,359.7097,1010.4531,355.7097,1014.4531" style="stroke:#181818;stroke-width:1;"/><line style="stroke:#181818;stroke-width:1;" x1="255.511" x2="255.511" y1="1142.3906" y2="1162.3906"/><polygon fill="#181818" points="251.511,1152.3906,255.511,1162.3906,259.511,1152.3906,255.511,1156.3906" style="stroke:#181818;stroke-width:1;"/><line style="stroke:#181818;stroke-width:1;" x1="255.511" x2="255.511" y1="1196.3594" y2="1216.3594"/><polygon fill="#181818" points="251.511,1206.3594,255.511,1216.3594,259.511,1206.3594,255.511,1210.3594" style="stroke:#181818;stroke-width:1;"/><line style="stroke:#181818;stroke-width:1;" x1="278.7383" x2="255.511" y1="1086.4219" y2="1086.4219"/><line style="stroke:#181818;stroke-width:1;" x1="255.511" x2="255.511" y1="1086.4219" y2="1108.4219"/><polygon fill="#181818" points="251.511,1098.4219,255.511,1108.4219,259.511,1098.4219,255.511,1102.4219" style="stroke:#181818;stroke-width:1;"/><line style="stroke:#181818;stroke-width:1;" x1="432.6812" x2="455.9084" y1="1086.4219" y2="1086.4219"/><line style="stroke:#181818;stroke-width:1;" x1="455.9084" x2="455.9084" y1="1086.4219" y2="1108.4219"/><polygon fill="#181818" points="451.9084,1098.4219,455.9084,1108.4219,459.9084,1098.4219,455.9084,1102.4219" style="stroke:#181818;stroke-width:1;"/><line style="stroke:#181818;stroke-width:1;" x1="255.511" x2="255.511" y1="1250.3281" y2="1268.3281"/><line style="stroke:#181818;stroke-width:1;" x1="255.511" x2="343.7097" y1="1268.3281" y2="1268.3281"/><polygon fill="#181818" points="333.7097,1264.3281,343.7097,1268.3281,333.7097,1272.3281,337.7097,1268.3281" style="stroke:#181818;stroke-width:1;"/><line style="stroke:#181818;stroke-width:1;" x1="455.9084" x2="455.9084" y1="1142.3906" y2="1268.3281"/><line style="stroke:#181818;stroke-width:1;" x1="455.9084" x2="367.7097" y1="1268.3281" y2="1268.3281"/><polygon fill="#181818" points="377.7097,1264.3281,367.7097,1268.3281,377.7097,1272.3281,373.7097,1268.3281" style="stroke:#181818;stroke-width:1;"/><line style="stroke:#181818;stroke-width:1;" x1="355.7097" x2="355.7097" y1="1054.4219" y2="1074.4219"/><polygon fill="#181818" points="351.7097,1064.4219,355.7097,1074.4219,359.7097,1064.4219,355.7097,1068.4219" style="stroke:#181818;stroke-width:1;"/><line style="stroke:#181818;stroke-width:1;" x1="355.7097" x2="355.7097" y1="784.5781" y2="804.5781"/><polygon fill="#181818" points="351.7097,794.5781,355.7097,804.5781,359.7097,794.5781,355.7097,798.5781" style="stroke:#181818;stroke-width:1;"/><line style="stroke:#181818;stroke-width:1;" x1="409.0591" x2="549.5491" y1="1312.3281" y2="1312.3281"/><polygon fill="#181818" points="545.5491,1044.9531,549.5491,1034.9531,553.5491,1044.9531,549.5491,1040.9531" style="stroke:#181818;stroke-width:1;"/><line style="stroke:#181818;stroke-width:1;" x1="549.5491" x2="549.5491" y1="772.5781" y2="1312.3281"/><line style="stroke:#181818;stroke-width:1;" x1="549.5491" x2="367.7097" y1="772.5781" y2="772.5781"/><polygon fill="#181818" points="377.7097,768.5781,367.7097,772.5781,377.7097,776.5781,373.7097,772.5781" style="stroke:#181818;stroke-width:1;"/><line style="stroke:#181818;stroke-width:1;" x1="355.7097" x2="355.7097" y1="1280.3281" y2="1300.3281"/><polygon fill="#181818" points="351.7097,1290.3281,355.7097,1300.3281,359.7097,1290.3281,355.7097,1294.3281" style="stroke:#181818;stroke-width:1;"/><line style="stroke:#181818;stroke-width:1;" x1="355.7097" x2="355.7097" y1="740.5781" y2="760.5781"/><polygon fill="#181818" points="351.7097,750.5781,355.7097,760.5781,359.7097,750.5781,355.7097,754.5781" style="stroke:#181818;stroke-width:1;"/><line style="stroke:#181818;stroke-width:1;" x1="355.7097" x2="355.7097" y1="1416.5938" y2="1436.5938"/><polygon fill="#181818" points="351.7097,1426.5938,355.7097,1436.5938,359.7097,1426.5938,355.7097,1430.5938" style="stroke:#181818;stroke-width:1;"/><line style="stroke:#181818;stroke-width:1;" x1="263.0977" x2="237.6033" y1="1502.5625" y2="1502.5625"/><line style="stroke:#181818;stroke-width:1;" x1="237.6033" x2="237.6033" y1="1502.5625" y2="1524.5625"/><polygon fill="#181818" points="233.6033,1514.5625,237.6033,1524.5625,241.6033,1514.5625,237.6033,1518.5625" style="stroke:#181818;stroke-width:1;"/><line style="stroke:#181818;stroke-width:1;" x1="448.3218" x2="473.8162" y1="1502.5625" y2="1502.5625"/><line style="stroke:#181818;stroke-width:1;" x1="473.8162" x2="473.8162" y1="1502.5625" y2="1524.5625"/><polygon fill="#181818" points="469.8162,1514.5625,473.8162,1524.5625,477.8162,1514.5625,473.8162,1518.5625" style="stroke:#181818;stroke-width:1;"/><line style="stroke:#181818;stroke-width:1;" x1="237.6033" x2="237.6033" y1="1558.5313" y2="1576.5313"/><line style="stroke:#181818;stroke-width:1;" x1="237.6033" x2="343.7097" y1="1576.5313" y2="1576.5313"/><polygon fill="#181818" points="333.7097,1572.5313,343.7097,1576.5313,333.7097,1580.5313,337.7097,1576.5313" style="stroke:#181818;stroke-width:1;"/><line style="stroke:#181818;stroke-width:1;" x1="473.8162" x2="473.8162" y1="1558.5313" y2="1576.5313"/><line style="stroke:#181818;stroke-width:1;" x1="473.8162" x2="367.7097" y1="1576.5313" y2="1576.5313"/><polygon fill="#181818" points="377.7097,1572.5313,367.7097,1576.5313,377.7097,1580.5313,373.7097,1576.5313" style="stroke:#181818;stroke-width:1;"/><line style="stroke:#181818;stroke-width:1;" x1="355.7097" x2="355.7097" y1="1470.5625" y2="1490.5625"/><polygon fill="#181818" points="351.7097,1480.5625,355.7097,1490.5625,359.7097,1480.5625,355.7097,1484.5625" style="stroke:#181818;stroke-width:1;"/><line style="stroke:#181818;stroke-width:1;" x1="355.7097" x2="355.7097" y1="1324.3281" y2="1382.625"/><polygon fill="#181818" points="351.7097,1372.625,355.7097,1382.625,359.7097,1372.625,355.7097,1376.625" style="stroke:#181818;stroke-width:1;"/><line style="stroke:#181818;stroke-width:1;" x1="355.7097" x2="355.7097" y1="1680.7969" y2="1700.7969"/><polygon fill="#181818" points="351.7097,1690.7969,355.7097,1700.7969,359.7097,1690.7969,355.7097,1694.7969" style="stroke:#181818;stroke-width:1;"/><line style="stroke:#181818;stroke-width:1;" x1="355.7097" x2="355.7097" y1="1734.7656" y2="1754.7656"/><polygon fill="#181818" points="351.7097,1744.7656,355.7097,1754.7656,359.7097,1744.7656,355.7097,1748.7656" style="stroke:#181818;stroke-width:1;"/><line style="stroke:#181818;stroke-width:1;" x1="355.7097" x2="355.7097" y1="1788.7344" y2="1808.7344"/><polygon fill="#181818" points="351.7097,1798.7344,355.7097,1808.7344,359.7097,1798.7344,355.7097,1802.7344" style="stroke:#181818;stroke-width:1;"/><line style="stroke:#181818;stroke-width:1;" x1="355.7097" x2="355.7097" y1="1842.7031" y2="1862.7031"/><polygon fill="#181818" points="351.7097,1852.7031,355.7097,1862.7031,359.7097,1852.7031,355.7097,1856.7031" style="stroke:#181818;stroke-width:1;"/><line style="stroke:#181818;stroke-width:1;" x1="355.7097" x2="355.7097" y1="1588.5313" y2="1646.8281"/><polygon fill="#181818" points="351.7097,1636.8281,355.7097,1646.8281,359.7097,1636.8281,355.7097,1640.8281" style="stroke:#181818;stroke-width:1;"/><line style="stroke:#181818;stroke-width:1;" x1="355.7097" x2="355.7097" y1="1896.6719" y2="1928.6719"/><polygon fill="#181818" points="351.7097,1918.6719,355.7097,1928.6719,359.7097,1918.6719,355.7097,1922.6719" style="stroke:#181818;stroke-width:1;"/><!--SRC=[TLHDRnCn4BtdLuoui2k22jVcW4hQyY4ALKABEA6fTpOPuhKjsvkme4gS-068NzXVmjYxIMXfRzbuFjwyzsOUmv6AlEROGSMuyDX0RJryC9eDmSat-JxtLaNhsInWteL8pUWnN0GAuD17ZcnDW68UsufC70yXOpYpXlkiyRR266RahEIOHIarpjXmWnf2Po9-WvkVVq3Pnc7aAqsmuRY443sh2ESQJRmuUmU1_9fy68r2bDwZqGu1F1e0F88V8u333uuCf5we9-bxHWiMN1uAwr8ywX8EuC9fYnMufOqsXxsp2pPGK8EiuOaC6CB6-ge4D1BcxPehGKPN2fl9wFfs_pptqFuIDLSO2PIdX8fHXzI0QoYc-xzWdU9Ub12N0hVeA9GI9Fclo91F-My_VOHeLsGc_SCvUP57D49585HmpGepW29pvmd8A5i9nQ7iSrBFqnJUO5HBkgUTr3r3lu9Mw1sAKZNPFWdUX2HROKuXIBF-ZNGWA8pT5PdHLnArT4zYXjXmo6tBRRaGhUkpJSNrw6wLEpNOP8R-fN6eDDJfgznMOk-yGOrvCiiWcwZQi0A5BhQUikXl95mgytS2RADz6d0jB0eF7Jn_9h99Z2Sd9FG8ftqgrB8hL8JU6zXMR0UDPgtfzQaeoYnPdC_jUufmy-itJB6kAVzwZUY7QGvFGfHT49gNb0nf0mqFqoMf5JIjZknaAvouN_PjU3mI7tSPjdG7BPZrNlCZqy6QhUxjqMDvG7sn_J-XHUmSZI66iR0WXZUATl8T7dDm6ZlOe3Vf8aGhKkJDsuMSQbpa8-BwjHVsraoR1qmpjQAhQSKgEzacjmpISm-R9SlyHRQXRqrg_gAye_nmPmRPPwI8HKhKv6EcxF1IS40j-1OafjBiWbo1xP3R1HsgoBxuLH0b1V4NKKHwhEcUNJqoniOatPv17D9WcpRvt-WoTysooVki0uYu4hZPCfC7pBsxeDj3Pu0I9H8BWbbSHBRDMeZjhRl3gfXNgrOdj45PCN7oRZeSYLlPkPwbtVNnkPamSdnwC9rVbjkoVlVq1AvGhLgNV73yKaP0hvPvuEjqfAtx2m00]--></g></svg>