<svg xmlns="http://www.w3.org/2000/svg" xmlns:xlink="http://www.w3.org/1999/xlink" contentStyleType="text/css" data-diagram-type="CLASS" height="1064px" preserveAspectRatio="none" style="width:1479px;height:1064px;background:#FFFFFF;" version="1.1" viewBox="0 0 1479 1064" width="1479px" zoomAndPan="magnify"><defs/><g><!--class User--><g class="entity" data-entity="User" data-source-line="11" data-uid="ent0002" id="entity_User"><rect fill="#EEF3FF" height="243.5625" rx="2.5" ry="2.5" style="stroke:#2F6BFF;stroke-width:0.5;" width="180.417" x="577.01" y="180.19"/><ellipse cx="647.0134" cy="196.19" fill="#2F6BFF" rx="11" ry="11" style="stroke:#243142;stroke-width:1;"/><path d="M649.9822,201.8306 Q649.404,202.1275 648.7634,202.2681 Q648.1228,202.4244 647.4197,202.4244 Q644.9197,202.4244 643.5915,200.7838 Q642.279,199.1275 642.279,196.0025 Q642.279,192.8775 643.5915,191.2213 Q644.9197,189.565 647.4197,189.565 Q648.1228,189.565 648.7634,189.7213 Q649.4197,189.8775 649.9822,190.1744 L649.9822,192.8931 Q649.3572,192.315 648.7634,192.0494 Q648.1697,191.7681 647.5447,191.7681 Q646.2009,191.7681 645.5134,192.8463 Q644.8259,193.9088 644.8259,196.0025 Q644.8259,198.0963 645.5134,199.1744 Q646.2009,200.2369 647.5447,200.2369 Q648.1697,200.2369 648.7634,199.9713 Q649.3572,199.69 649.9822,199.1119 L649.9822,201.8306 Z " fill="#000000"/><text fill="#000000" font-family="sans-serif" font-size="14" lengthAdjust="spacing" textLength="31.9102" x="667.5134" y="201.0367">User</text><line style="stroke:#2F6BFF;stroke-width:0.5;" x1="578.01" x2="756.427" y1="212.19" y2="212.19"/><text fill="#000000" font-family="sans-serif" font-size="14" lengthAdjust="spacing" textLength="51.9258" x="583.01" y="229.1851">+id: int</text><text fill="#000000" font-family="sans-serif" font-size="14" lengthAdjust="spacing" textLength="111.3984" x="583.01" y="245.482">+user_id: string</text><text fill="#000000" font-family="sans-serif" font-size="14" lengthAdjust="spacing" textLength="129.3701" x="583.01" y="261.7789">+full_name: string</text><text fill="#000000" font-family="sans-serif" font-size="14" lengthAdjust="spacing" textLength="134.3809" x="583.01" y="278.0757">+student_id: string</text><text fill="#000000" font-family="sans-serif" font-size="14" lengthAdjust="spacing" textLength="99.6953" x="583.01" y="294.3726">+email: string</text><text fill="#000000" font-family="sans-serif" font-size="14" lengthAdjust="spacing" textLength="104.8975" x="583.01" y="310.6695">+phone: string</text><text fill="#000000" font-family="sans-serif" font-size="14" lengthAdjust="spacing" textLength="107.8848" x="583.01" y="326.9664">+course: string</text><text fill="#000000" font-family="sans-serif" font-size="14" lengthAdjust="spacing" textLength="87.9102" x="583.01" y="343.2632">+role: string</text><text fill="#000000" font-family="sans-serif" font-size="14" lengthAdjust="spacing" textLength="168.417" x="583.01" y="359.5601">+password_hash: string</text><text fill="#000000" font-family="sans-serif" font-size="14" lengthAdjust="spacing" textLength="140.2939" x="583.01" y="375.857">+photo_path: string</text><text fill="#000000" font-family="sans-serif" font-size="14" lengthAdjust="spacing" textLength="164.1992" x="583.01" y="392.1539">+encoding_path: string</text><text fill="#000000" font-family="sans-serif" font-size="14" lengthAdjust="spacing" textLength="135.7891" x="583.01" y="408.4507">+created_at: string</text><line style="stroke:#2F6BFF;stroke-width:0.5;" x1="578.01" x2="756.427" y1="415.7525" y2="415.7525"/></g><!--class AuthController--><g class="entity" data-entity="AuthController" data-source-line="26" data-uid="ent0003" id="entity_AuthController"><rect fill="#EEF3FF" height="113.1875" rx="2.5" ry="2.5" style="stroke:#2F6BFF;stroke-width:0.5;" width="133.9854" x="913.23" y="7"/><ellipse cx="928.23" cy="23" fill="#2F6BFF" rx="11" ry="11" style="stroke:#243142;stroke-width:1;"/><path d="M931.1988,28.6406 Q930.6206,28.9375 929.98,29.0781 Q929.3394,29.2344 928.6363,29.2344 Q926.1363,29.2344 924.8081,27.5938 Q923.4956,25.9375 923.4956,22.8125 Q923.4956,19.6875 924.8081,18.0313 Q926.1363,16.375 928.6363,16.375 Q929.3394,16.375 929.98,16.5313 Q930.6363,16.6875 931.1988,16.9844 L931.1988,19.7031 Q930.5738,19.125 929.98,18.8594 Q929.3863,18.5781 928.7613,18.5781 Q927.4175,18.5781 926.73,19.6563 Q926.0425,20.7188 926.0425,22.8125 Q926.0425,24.9063 926.73,25.9844 Q927.4175,27.0469 928.7613,27.0469 Q929.3863,27.0469 929.98,26.7813 Q930.5738,26.5 931.1988,25.9219 L931.1988,28.6406 Z " fill="#000000"/><text fill="#000000" font-family="sans-serif" font-size="14" lengthAdjust="spacing" textLength="101.9854" x="942.23" y="27.8467">AuthController</text><line style="stroke:#2F6BFF;stroke-width:0.5;" x1="914.23" x2="1046.2154" y1="39" y2="39"/><line style="stroke:#2F6BFF;stroke-width:0.5;" x1="914.23" x2="1046.2154" y1="47" y2="47"/><text fill="#000000" font-family="sans-serif" font-size="14" lengthAdjust="spacing" textLength="76.9521" x="919.23" y="63.9951">+register()</text><text fill="#000000" font-family="sans-serif" font-size="14" lengthAdjust="spacing" textLength="56.7588" x="919.23" y="80.292">+login()</text><text fill="#000000" font-family="sans-serif" font-size="14" lengthAdjust="spacing" textLength="116.0674" x="919.23" y="96.5889">+verifyIdentity()</text><text fill="#000000" font-family="sans-serif" font-size="14" lengthAdjust="spacing" textLength="89.7285" x="919.23" y="112.8857">+getProfile()</text></g><!--class JWTHandler--><g class="entity" data-entity="JWTHandler" data-source-line="33" data-uid="ent0004" id="entity_JWTHandler"><rect fill="#EEF3FF" height="80.5938" rx="2.5" ry="2.5" style="stroke:#2F6BFF;stroke-width:0.5;" width="155.7871" x="792.33" y="261.67"/><ellipse cx="826.2924" cy="277.67" fill="#2F6BFF" rx="11" ry="11" style="stroke:#243142;stroke-width:1;"/><path d="M829.2612,283.3106 Q828.683,283.6075 828.0424,283.7481 Q827.4018,283.9044 826.6987,283.9044 Q824.1987,283.9044 822.8705,282.2638 Q821.558,280.6075 821.558,277.4825 Q821.558,274.3575 822.8705,272.7013 Q824.1987,271.045 826.6987,271.045 Q827.4018,271.045 828.0424,271.2013 Q828.6987,271.3575 829.2612,271.6544 L829.2612,274.3731 Q828.6362,273.795 828.0424,273.5294 Q827.4487,273.2481 826.8237,273.2481 Q825.4799,273.2481 824.7924,274.3263 Q824.1049,275.3888 824.1049,277.4825 Q824.1049,279.5763 824.7924,280.6544 Q825.4799,281.7169 826.8237,281.7169 Q827.4487,281.7169 828.0424,281.4513 Q828.6362,281.17 829.2612,280.5919 L829.2612,283.3106 Z " fill="#000000"/><text fill="#000000" font-family="sans-serif" font-size="14" lengthAdjust="spacing" textLength="81.6484" x="844.5063" y="282.5167">JWTHandler</text><line style="stroke:#2F6BFF;stroke-width:0.5;" x1="793.33" x2="947.1171" y1="293.67" y2="293.67"/><line style="stroke:#2F6BFF;stroke-width:0.5;" x1="793.33" x2="947.1171" y1="301.67" y2="301.67"/><text fill="#000000" font-family="sans-serif" font-size="14" lengthAdjust="spacing" textLength="143.7871" x="798.33" y="318.6651">+makeJWT(payload)</text><text fill="#000000" font-family="sans-serif" font-size="14" lengthAdjust="spacing" textLength="140.0889" x="798.33" y="334.962">+decodeJWT(token)</text></g><!--class PasswordManager--><g class="entity" data-entity="PasswordManager" data-source-line="38" data-uid="ent0005" id="entity_PasswordManager"><rect fill="#EEF3FF" height="80.5938" rx="2.5" ry="2.5" style="stroke:#2F6BFF;stroke-width:0.5;" width="216.4834" x="982.98" y="261.67"/><ellipse cx="1023.5623" cy="277.67" fill="#2F6BFF" rx="11" ry="11" style="stroke:#243142;stroke-width:1;"/><path d="M1026.5311,283.3106 Q1025.9529,283.6075 1025.3123,283.7481 Q1024.6717,283.9044 1023.9686,283.9044 Q1021.4686,283.9044 1020.1404,282.2638 Q1018.8279,280.6075 1018.8279,277.4825 Q1018.8279,274.3575 1020.1404,272.7013 Q1021.4686,271.045 1023.9686,271.045 Q1024.6717,271.045 1025.3123,271.2013 Q1025.9686,271.3575 1026.5311,271.6544 L1026.5311,274.3731 Q1025.9061,273.795 1025.3123,273.5294 Q1024.7186,273.2481 1024.0936,273.2481 Q1022.7498,273.2481 1022.0623,274.3263 Q1021.3748,275.3888 1021.3748,277.4825 Q1021.3748,279.5763 1022.0623,280.6544 Q1022.7498,281.7169 1024.0936,281.7169 Q1024.7186,281.7169 1025.3123,281.4513 Q1025.9061,281.17 1026.5311,280.5919 L1026.5311,283.3106 Z " fill="#000000"/><text fill="#000000" font-family="sans-serif" font-size="14" lengthAdjust="spacing" textLength="127.6338" x="1043.2473" y="282.5167">PasswordManager</text><line style="stroke:#2F6BFF;stroke-width:0.5;" x1="983.98" x2="1198.4634" y1="293.67" y2="293.67"/><line style="stroke:#2F6BFF;stroke-width:0.5;" x1="983.98" x2="1198.4634" y1="301.67" y2="301.67"/><text fill="#000000" font-family="sans-serif" font-size="14" lengthAdjust="spacing" textLength="154.5947" x="988.98" y="318.6651">+hashPassword(pass)</text><text fill="#000000" font-family="sans-serif" font-size="14" lengthAdjust="spacing" textLength="204.4834" x="988.98" y="334.962">+checkPassword(hash, pass)</text></g><!--class FaceRecognitionService--><g class="entity" data-entity="FaceRecognitionService" data-source-line="43" data-uid="ent0006" id="entity_FaceRecognitionService"><rect fill="#EEF3FF" height="80.5938" rx="2.5" ry="2.5" style="stroke:#2F6BFF;stroke-width:0.5;" width="237.9893" x="1234.23" y="261.67"/><ellipse cx="1266.4359" cy="277.67" fill="#2F6BFF" rx="11" ry="11" style="stroke:#243142;stroke-width:1;"/><path d="M1269.4047,283.3106 Q1268.8265,283.6075 1268.1859,283.7481 Q1267.5453,283.9044 1266.8422,283.9044 Q1264.3422,283.9044 1263.014,282.2638 Q1261.7015,280.6075 1261.7015,277.4825 Q1261.7015,274.3575 1263.014,272.7013 Q1264.3422,271.045 1266.8422,271.045 Q1267.5453,271.045 1268.1859,271.2013 Q1268.8422,271.3575 1269.4047,271.6544 L1269.4047,274.3731 Q1268.7797,273.795 1268.1859,273.5294 Q1267.5922,273.2481 1266.9672,273.2481 Q1265.6234,273.2481 1264.9359,274.3263 Q1264.2484,275.3888 1264.2484,277.4825 Q1264.2484,279.5763 1264.9359,280.6544 Q1265.6234,281.7169 1266.9672,281.7169 Q1267.5922,281.7169 1268.1859,281.4513 Q1268.7797,281.17 1269.4047,280.5919 L1269.4047,283.3106 Z " fill="#000000"/><text fill="#000000" font-family="sans-serif" font-size="14" lengthAdjust="spacing" textLength="167.7539" x="1284.2594" y="282.5167">FaceRecognitionService</text><line style="stroke:#2F6BFF;stroke-width:0.5;" x1="1235.23" x2="1471.2193" y1="293.67" y2="293.67"/><line style="stroke:#2F6BFF;stroke-width:0.5;" x1="1235.23" x2="1471.2193" y1="301.67" y2="301.67"/><text fill="#000000" font-family="sans-serif" font-size="14" lengthAdjust="spacing" textLength="192.541" x="1240.23" y="318.6651">+computeEncoding(image)</text><text fill="#000000" font-family="sans-serif" font-size="14" lengthAdjust="spacing" textLength="225.9893" x="1240.23" y="334.962">+compareEncoding(enc1, enc2)</text></g><!--class Exam--><g class="entity" data-entity="Exam" data-source-line="57" data-uid="ent0011" id="entity_Exam"><rect fill="#EEF3FF" height="178.375" rx="2.5" ry="2.5" style="stroke:#2F6BFF;stroke-width:0.5;" width="157.9404" x="87.25" y="689.53"/><ellipse cx="142.2964" cy="705.53" fill="#2F6BFF" rx="11" ry="11" style="stroke:#243142;stroke-width:1;"/><path d="M145.2651,711.1706 Q144.687,711.4675 144.0464,711.6081 Q143.4058,711.7644 142.7026,711.7644 Q140.2026,711.7644 138.8745,710.1238 Q137.562,708.4675 137.562,705.3425 Q137.562,702.2175 138.8745,700.5613 Q140.2026,698.905 142.7026,698.905 Q143.4058,698.905 144.0464,699.0613 Q144.7026,699.2175 145.2651,699.5144 L145.2651,702.2331 Q144.6401,701.655 144.0464,701.3894 Q143.4526,701.1081 142.8276,701.1081 Q141.4839,701.1081 140.7964,702.1863 Q140.1089,703.2488 140.1089,705.3425 Q140.1089,707.4363 140.7964,708.5144 Q141.4839,709.5769 142.8276,709.5769 Q143.4526,709.5769 144.0464,709.3113 Q144.6401,709.03 145.2651,708.4519 L145.2651,711.1706 Z " fill="#000000"/><text fill="#000000" font-family="sans-serif" font-size="14" lengthAdjust="spacing" textLength="39.3477" x="162.7964" y="710.3767">Exam</text><line style="stroke:#2F6BFF;stroke-width:0.5;" x1="88.25" x2="244.1904" y1="721.53" y2="721.53"/><text fill="#000000" font-family="sans-serif" font-size="14" lengthAdjust="spacing" textLength="98.041" x="93.25" y="738.5251">+exam_id: int</text><text fill="#000000" font-family="sans-serif" font-size="14" lengthAdjust="spacing" textLength="134.5723" x="93.25" y="754.822">+exam_title: string</text><text fill="#000000" font-family="sans-serif" font-size="14" lengthAdjust="spacing" textLength="138.9268" x="93.25" y="771.1189">+description: string</text><text fill="#000000" font-family="sans-serif" font-size="14" lengthAdjust="spacing" textLength="113.5176" x="93.25" y="787.4157">+domain: string</text><text fill="#000000" font-family="sans-serif" font-size="14" lengthAdjust="spacing" textLength="121.8438" x="93.25" y="803.7126">+difficulty: string</text><text fill="#000000" font-family="sans-serif" font-size="14" lengthAdjust="spacing" textLength="98.0615" x="93.25" y="820.0095">+duration: int</text><text fill="#000000" font-family="sans-serif" font-size="14" lengthAdjust="spacing" textLength="145.9404" x="93.25" y="836.3064">+total_questions: int</text><text fill="#000000" font-family="sans-serif" font-size="14" lengthAdjust="spacing" textLength="111.542" x="93.25" y="852.6032">+is_active: bool</text><line style="stroke:#2F6BFF;stroke-width:0.5;" x1="88.25" x2="244.1904" y1="859.905" y2="859.905"/></g><!--class Question--><g class="entity" data-entity="Question" data-source-line="68" data-uid="ent0012" id="entity_Question"><rect fill="#EEF3FF" height="129.4844" rx="2.5" ry="2.5" style="stroke:#2F6BFF;stroke-width:0.5;" width="158.2891" x="21.08" y="927.91"/><ellipse cx="64.7323" cy="943.91" fill="#2F6BFF" rx="11" ry="11" style="stroke:#243142;stroke-width:1;"/><path d="M67.7011,949.5506 Q67.123,949.8475 66.4823,949.9881 Q65.8417,950.1444 65.1386,950.1444 Q62.6386,950.1444 61.3105,948.5038 Q59.998,946.8475 59.998,943.7225 Q59.998,940.5975 61.3105,938.9413 Q62.6386,937.285 65.1386,937.285 Q65.8417,937.285 66.4823,937.4413 Q67.1386,937.5975 67.7011,937.8944 L67.7011,940.6131 Q67.0761,940.035 66.4823,939.7694 Q65.8886,939.4881 65.2636,939.4881 Q63.9198,939.4881 63.2323,940.5663 Q62.5448,941.6288 62.5448,943.7225 Q62.5448,945.8163 63.2323,946.8944 Q63.9198,947.9569 65.2636,947.9569 Q65.8886,947.9569 66.4823,947.6913 Q67.0761,947.41 67.7011,946.8319 L67.7011,949.5506 Z " fill="#000000"/><text fill="#000000" font-family="sans-serif" font-size="14" lengthAdjust="spacing" textLength="62.6172" x="85.0995" y="948.7567">Question</text><line style="stroke:#2F6BFF;stroke-width:0.5;" x1="22.08" x2="178.3691" y1="959.91" y2="959.91"/><text fill="#000000" font-family="sans-serif" font-size="14" lengthAdjust="spacing" textLength="119.4102" x="27.08" y="976.9051">+question_id: int</text><text fill="#000000" font-family="sans-serif" font-size="14" lengthAdjust="spacing" textLength="98.041" x="27.08" y="993.202">+exam_id: int</text><text fill="#000000" font-family="sans-serif" font-size="14" lengthAdjust="spacing" textLength="121.5703" x="27.08" y="1009.4989">+question: string</text><text fill="#000000" font-family="sans-serif" font-size="14" lengthAdjust="spacing" textLength="101.083" x="27.08" y="1025.7957">+options: json</text><text fill="#000000" font-family="sans-serif" font-size="14" lengthAdjust="spacing" textLength="146.2891" x="27.08" y="1042.0926">+correct_answer: int</text><line style="stroke:#2F6BFF;stroke-width:0.5;" x1="22.08" x2="178.3691" y1="1049.3944" y2="1049.3944"/></g><!--class ExamController--><g class="entity" data-entity="ExamController" data-source-line="76" data-uid="ent0013" id="entity_ExamController"><rect fill="#EEF3FF" height="80.5938" rx="2.5" ry="2.5" style="stroke:#2F6BFF;stroke-width:0.5;" width="186.4463" x="7" y="516.34"/><ellipse cx="42.6666" cy="532.34" fill="#2F6BFF" rx="11" ry="11" style="stroke:#243142;stroke-width:1;"/><path d="M45.6354,537.9806 Q45.0572,538.2775 44.4166,538.4181 Q43.776,538.5744 43.0729,538.5744 Q40.5729,538.5744 39.2447,536.9338 Q37.9322,535.2775 37.9322,532.1525 Q37.9322,529.0275 39.2447,527.3713 Q40.5729,525.715 43.0729,525.715 Q43.776,525.715 44.4166,525.8713 Q45.0729,526.0275 45.6354,526.3244 L45.6354,529.0431 Q45.0104,528.465 44.4166,528.1994 Q43.8229,527.9181 43.1979,527.9181 Q41.8541,527.9181 41.1666,528.9963 Q40.4791,530.0588 40.4791,532.1525 Q40.4791,534.2463 41.1666,535.3244 Q41.8541,536.3869 43.1979,536.3869 Q43.8229,536.3869 44.4166,536.1213 Q45.0104,535.84 45.6354,535.2619 L45.6354,537.9806 Z " fill="#000000"/><text fill="#000000" font-family="sans-serif" font-size="14" lengthAdjust="spacing" textLength="108.5205" x="61.2592" y="537.1867">ExamController</text><line style="stroke:#2F6BFF;stroke-width:0.5;" x1="8" x2="192.4463" y1="548.34" y2="548.34"/><line style="stroke:#2F6BFF;stroke-width:0.5;" x1="8" x2="192.4463" y1="556.34" y2="556.34"/><text fill="#000000" font-family="sans-serif" font-size="14" lengthAdjust="spacing" textLength="89.8584" x="13" y="573.3351">+listExams()</text><text fill="#000000" font-family="sans-serif" font-size="14" lengthAdjust="spacing" textLength="174.4463" x="13" y="589.632">+getQuestions(exam_id)</text></g><!--class Session--><g class="entity" data-entity="Session" data-source-line="89" data-uid="ent0017" id="entity_Session"><rect fill="#EEF3FF" height="145.7813" rx="2.5" ry="2.5" style="stroke:#2F6BFF;stroke-width:0.5;" width="144.3232" x="261.06" y="483.75"/><ellipse cx="302.5683" cy="499.75" fill="#2F6BFF" rx="11" ry="11" style="stroke:#243142;stroke-width:1;"/><path d="M305.537,505.3906 Q304.9589,505.6875 304.3183,505.8281 Q303.6776,505.9844 302.9745,505.9844 Q300.4745,505.9844 299.1464,504.3438 Q297.8339,502.6875 297.8339,499.5625 Q297.8339,496.4375 299.1464,494.7813 Q300.4745,493.125 302.9745,493.125 Q303.6776,493.125 304.3183,493.2813 Q304.9745,493.4375 305.537,493.7344 L305.537,496.4531 Q304.912,495.875 304.3183,495.6094 Q303.7245,495.3281 303.0995,495.3281 Q301.7558,495.3281 301.0683,496.4063 Q300.3808,497.4688 300.3808,499.5625 Q300.3808,501.6563 301.0683,502.7344 Q301.7558,503.7969 303.0995,503.7969 Q303.7245,503.7969 304.3183,503.5313 Q304.912,503.25 305.537,502.6719 L305.537,505.3906 Z " fill="#000000"/><text fill="#000000" font-family="sans-serif" font-size="14" lengthAdjust="spacing" textLength="53.416" x="322.459" y="504.5967">Session</text><line style="stroke:#2F6BFF;stroke-width:0.5;" x1="262.06" x2="404.3832" y1="515.75" y2="515.75"/><text fill="#000000" font-family="sans-serif" font-size="14" lengthAdjust="spacing" textLength="110.749" x="267.06" y="532.7451">+session_id: int</text><text fill="#000000" font-family="sans-serif" font-size="14" lengthAdjust="spacing" textLength="111.3984" x="267.06" y="549.042">+user_id: string</text><text fill="#000000" font-family="sans-serif" font-size="14" lengthAdjust="spacing" textLength="98.041" x="267.06" y="565.3389">+exam_id: int</text><text fill="#000000" font-family="sans-serif" font-size="14" lengthAdjust="spacing" textLength="132.3232" x="267.06" y="581.6357">+start_time: string</text><text fill="#000000" font-family="sans-serif" font-size="14" lengthAdjust="spacing" textLength="126.0889" x="267.06" y="597.9326">+end_time: string</text><text fill="#000000" font-family="sans-serif" font-size="14" lengthAdjust="spacing" textLength="104.1045" x="267.06" y="614.2295">+status: string</text><line style="stroke:#2F6BFF;stroke-width:0.5;" x1="262.06" x2="404.3832" y1="621.5313" y2="621.5313"/></g><!--class Report--><g class="entity" data-entity="Report" data-source-line="98" data-uid="ent0018" id="entity_Report"><rect fill="#EEF3FF" height="178.375" rx="2.5" ry="2.5" style="stroke:#2F6BFF;stroke-width:0.5;" width="165.583" x="142.43" y="212.78"/><ellipse cx="197.4525" cy="228.78" fill="#2F6BFF" rx="11" ry="11" style="stroke:#243142;stroke-width:1;"/><path d="M200.4212,234.4206 Q199.8431,234.7175 199.2025,234.8581 Q198.5618,235.0144 197.8587,235.0144 Q195.3587,235.0144 194.0306,233.3738 Q192.7181,231.7175 192.7181,228.5925 Q192.7181,225.4675 194.0306,223.8113 Q195.3587,222.155 197.8587,222.155 Q198.5618,222.155 199.2025,222.3113 Q199.8587,222.4675 200.4212,222.7644 L200.4212,225.4831 Q199.7962,224.905 199.2025,224.6394 Q198.6087,224.3581 197.9837,224.3581 Q196.64,224.3581 195.9525,225.4363 Q195.265,226.4988 195.265,228.5925 Q195.265,230.6863 195.9525,231.7644 Q196.64,232.8269 197.9837,232.8269 Q198.6087,232.8269 199.2025,232.5613 Q199.7962,232.28 200.4212,231.7019 L200.4212,234.4206 Z " fill="#000000"/><text fill="#000000" font-family="sans-serif" font-size="14" lengthAdjust="spacing" textLength="47.0381" x="217.9525" y="233.6267">Report</text><line style="stroke:#2F6BFF;stroke-width:0.5;" x1="143.43" x2="307.013" y1="244.78" y2="244.78"/><text fill="#000000" font-family="sans-serif" font-size="14" lengthAdjust="spacing" textLength="101.9922" x="148.43" y="261.7751">+report_id: int</text><text fill="#000000" font-family="sans-serif" font-size="14" lengthAdjust="spacing" textLength="110.749" x="148.43" y="278.072">+session_id: int</text><text fill="#000000" font-family="sans-serif" font-size="14" lengthAdjust="spacing" textLength="111.3984" x="148.43" y="294.3689">+user_id: string</text><text fill="#000000" font-family="sans-serif" font-size="14" lengthAdjust="spacing" textLength="98.041" x="148.43" y="310.6657">+exam_id: int</text><text fill="#000000" font-family="sans-serif" font-size="14" lengthAdjust="spacing" textLength="153.583" x="148.43" y="326.9626">+correct_answers: int</text><text fill="#000000" font-family="sans-serif" font-size="14" lengthAdjust="spacing" textLength="145.9404" x="148.43" y="343.2595">+total_questions: int</text><text fill="#000000" font-family="sans-serif" font-size="14" lengthAdjust="spacing" textLength="132.3574" x="148.43" y="359.5564">+percentage: float</text><text fill="#000000" font-family="sans-serif" font-size="14" lengthAdjust="spacing" textLength="153.2139" x="148.43" y="375.8532">+submitted_at: string</text><line style="stroke:#2F6BFF;stroke-width:0.5;" x1="143.43" x2="307.013" y1="383.155" y2="383.155"/></g><!--class SessionController--><g class="entity" data-entity="SessionController" data-source-line="109" data-uid="ent0019" id="entity_SessionController"><rect fill="#EEF3FF" height="80.5938" rx="2.5" ry="2.5" style="stroke:#2F6BFF;stroke-width:0.5;" width="199.2295" x="342.61" y="261.67"/><ellipse cx="377.6983" cy="277.67" fill="#2F6BFF" rx="11" ry="11" style="stroke:#243142;stroke-width:1;"/><path d="M380.667,283.3106 Q380.0889,283.6075 379.4483,283.7481 Q378.8077,283.9044 378.1045,283.9044 Q375.6045,283.9044 374.2764,282.2638 Q372.9639,280.6075 372.9639,277.4825 Q372.9639,274.3575 374.2764,272.7013 Q375.6045,271.045 378.1045,271.045 Q378.8077,271.045 379.4483,271.2013 Q380.1045,271.3575 380.667,271.6544 L380.667,274.3731 Q380.042,273.795 379.4483,273.5294 Q378.8545,273.2481 378.2295,273.2481 Q376.8858,273.2481 376.1983,274.3263 Q375.5108,275.3888 375.5108,277.4825 Q375.5108,279.5763 376.1983,280.6544 Q376.8858,281.7169 378.2295,281.7169 Q378.8545,281.7169 379.4483,281.4513 Q380.042,281.17 380.667,280.5919 L380.667,283.3106 Z " fill="#000000"/><text fill="#000000" font-family="sans-serif" font-size="14" lengthAdjust="spacing" textLength="122.5889" x="396.1623" y="282.5167">SessionController</text><line style="stroke:#2F6BFF;stroke-width:0.5;" x1="343.61" x2="540.8395" y1="293.67" y2="293.67"/><line style="stroke:#2F6BFF;stroke-width:0.5;" x1="343.61" x2="540.8395" y1="301.67" y2="301.67"/><text fill="#000000" font-family="sans-serif" font-size="14" lengthAdjust="spacing" textLength="187.2295" x="348.61" y="318.6651">+startSession(user, exam)</text><text fill="#000000" font-family="sans-serif" font-size="14" lengthAdjust="spacing" textLength="154.2666" x="348.61" y="334.962">+endSession(session)</text></g><!--class ReportController--><g class="entity" data-entity="ReportController" data-source-line="114" data-uid="ent0020" id="entity_ReportController"><rect fill="#EEF3FF" height="80.5938" rx="2.5" ry="2.5" style="stroke:#2F6BFF;stroke-width:0.5;" width="196.9395" x="58.75" y="23.3"/><ellipse cx="95.6778" cy="39.3" fill="#2F6BFF" rx="11" ry="11" style="stroke:#243142;stroke-width:1;"/><path d="M98.6466,44.9406 Q98.0685,45.2375 97.4278,45.3781 Q96.7872,45.5344 96.0841,45.5344 Q93.5841,45.5344 92.256,43.8938 Q90.9435,42.2375 90.9435,39.1125 Q90.9435,35.9875 92.256,34.3313 Q93.5841,32.675 96.0841,32.675 Q96.7872,32.675 97.4278,32.8313 Q98.0841,32.9875 98.6466,33.2844 L98.6466,36.0031 Q98.0216,35.425 97.4278,35.1594 Q96.8341,34.8781 96.2091,34.8781 Q94.8653,34.8781 94.1778,35.9563 Q93.4903,37.0188 93.4903,39.1125 Q93.4903,41.2063 94.1778,42.2844 Q94.8653,43.3469 96.2091,43.3469 Q96.8341,43.3469 97.4278,43.0813 Q98.0216,42.8 98.6466,42.2219 L98.6466,44.9406 Z " fill="#000000"/><text fill="#000000" font-family="sans-serif" font-size="14" lengthAdjust="spacing" textLength="116.2109" x="114.5507" y="44.1467">ReportController</text><line style="stroke:#2F6BFF;stroke-width:0.5;" x1="59.75" x2="254.6895" y1="55.3" y2="55.3"/><line style="stroke:#2F6BFF;stroke-width:0.5;" x1="59.75" x2="254.6895" y1="63.3" y2="63.3"/><text fill="#000000" font-family="sans-serif" font-size="14" lengthAdjust="spacing" textLength="184.9395" x="64.75" y="80.2951">+generateReport(session)</text><text fill="#000000" font-family="sans-serif" font-size="14" lengthAdjust="spacing" textLength="164.2813" x="64.75" y="96.592">+getReport(session_id)</text></g><!--class FaceDetector--><g class="entity" data-entity="FaceDetector" data-source-line="127" data-uid="ent0024" id="entity_FaceDetector"><rect fill="#EEF3FF" height="80.5938" rx="2.5" ry="2.5" style="stroke:#2F6BFF;stroke-width:0.5;" width="161.1943" x="486.63" y="738.42"/><ellipse cx="517.4916" cy="754.42" fill="#2F6BFF" rx="11" ry="11" style="stroke:#243142;stroke-width:1;"/><path d="M520.4604,760.0606 Q519.8822,760.3575 519.2416,760.4981 Q518.601,760.6544 517.8979,760.6544 Q515.3979,760.6544 514.0697,759.0138 Q512.7572,757.3575 512.7572,754.2325 Q512.7572,751.1075 514.0697,749.4513 Q515.3979,747.795 517.8979,747.795 Q518.601,747.795 519.2416,747.9513 Q519.8979,748.1075 520.4604,748.4044 L520.4604,751.1231 Q519.8354,750.545 519.2416,750.2794 Q518.6479,749.9981 518.0229,749.9981 Q516.6791,749.9981 515.9916,751.0763 Q515.3041,752.1388 515.3041,754.2325 Q515.3041,756.3263 515.9916,757.4044 Q516.6791,758.4669 518.0229,758.4669 Q518.6479,758.4669 519.2416,758.2013 Q519.8354,757.92 520.4604,757.3419 L520.4604,760.0606 Z " fill="#000000"/><text fill="#000000" font-family="sans-serif" font-size="14" lengthAdjust="spacing" textLength="93.9463" x="535.0164" y="759.2667">FaceDetector</text><line style="stroke:#2F6BFF;stroke-width:0.5;" x1="487.63" x2="646.8243" y1="770.42" y2="770.42"/><line style="stroke:#2F6BFF;stroke-width:0.5;" x1="487.63" x2="646.8243" y1="778.42" y2="778.42"/><text fill="#000000" font-family="sans-serif" font-size="14" lengthAdjust="spacing" textLength="149.1943" x="492.63" y="795.4151">+detectFaces(frame)</text><text fill="#000000" font-family="sans-serif" font-size="14" lengthAdjust="spacing" textLength="94.124" x="492.63" y="811.712">+initModels()</text></g><!--class HeadPoseEstimator--><g class="entity" data-entity="HeadPoseEstimator" data-source-line="132" data-uid="ent0025" id="entity_HeadPoseEstimator"><rect fill="#EEF3FF" height="64.2969" rx="2.5" ry="2.5" style="stroke:#2F6BFF;stroke-width:0.5;" width="176.4932" x="682.98" y="746.57"/><ellipse cx="701.3216" cy="762.57" fill="#2F6BFF" rx="11" ry="11" style="stroke:#243142;stroke-width:1;"/><path d="M704.2904,768.2106 Q703.7122,768.5075 703.0716,768.6481 Q702.431,768.8044 701.7279,768.8044 Q699.2279,768.8044 697.8997,767.1638 Q696.5872,765.5075 696.5872,762.3825 Q696.5872,759.2575 697.8997,757.6013 Q699.2279,755.945 701.7279,755.945 Q702.431,755.945 703.0716,756.1013 Q703.7279,756.2575 704.2904,756.5544 L704.2904,759.2731 Q703.6654,758.695 703.0716,758.4294 Q702.4779,758.1481 701.8529,758.1481 Q700.5091,758.1481 699.8216,759.2263 Q699.1341,760.2888 699.1341,762.3825 Q699.1341,764.4763 699.8216,765.5544 Q700.5091,766.6169 701.8529,766.6169 Q702.4779,766.6169 703.0716,766.3513 Q703.6654,766.07 704.2904,765.4919 L704.2904,768.2106 Z " fill="#000000"/><text fill="#000000" font-family="sans-serif" font-size="14" lengthAdjust="spacing" textLength="137.0674" x="716.0642" y="767.4167">HeadPoseEstimator</text><line style="stroke:#2F6BFF;stroke-width:0.5;" x1="683.98" x2="858.4732" y1="778.57" y2="778.57"/><line style="stroke:#2F6BFF;stroke-width:0.5;" x1="683.98" x2="858.4732" y1="786.57" y2="786.57"/><text fill="#000000" font-family="sans-serif" font-size="14" lengthAdjust="spacing" textLength="164.4932" x="688.98" y="803.5651">+estimate(frame, face)</text></g><!--class VoiceMonitor--><g class="entity" data-entity="VoiceMonitor" data-source-line="136" data-uid="ent0026" id="entity_VoiceMonitor"><rect fill="#EEF3FF" height="80.5938" rx="2.5" ry="2.5" style="stroke:#2F6BFF;stroke-width:0.5;" width="123.5605" x="894.44" y="738.42"/><ellipse cx="909.44" cy="754.42" fill="#2F6BFF" rx="11" ry="11" style="stroke:#243142;stroke-width:1;"/><path d="M912.4088,760.0606 Q911.8306,760.3575 911.19,760.4981 Q910.5494,760.6544 909.8463,760.6544 Q907.3463,760.6544 906.0181,759.0138 Q904.7056,757.3575 904.7056,754.2325 Q904.7056,751.1075 906.0181,749.4513 Q907.3463,747.795 909.8463,747.795 Q910.5494,747.795 911.19,747.9513 Q911.8463,748.1075 912.4088,748.4044 L912.4088,751.1231 Q911.7838,750.545 911.19,750.2794 Q910.5963,749.9981 909.9713,749.9981 Q908.6275,749.9981 907.94,751.0763 Q907.2525,752.1388 907.2525,754.2325 Q907.2525,756.3263 907.94,757.4044 Q908.6275,758.4669 909.9713,758.4669 Q910.5963,758.4669 911.19,758.2013 Q911.7838,757.92 912.4088,757.3419 L912.4088,760.0606 Z " fill="#000000"/><text fill="#000000" font-family="sans-serif" font-size="14" lengthAdjust="spacing" textLength="91.5605" x="923.44" y="759.2667">VoiceMonitor</text><line style="stroke:#2F6BFF;stroke-width:0.5;" x1="895.44" x2="1017.0005" y1="770.42" y2="770.42"/><line style="stroke:#2F6BFF;stroke-width:0.5;" x1="895.44" x2="1017.0005" y1="778.42" y2="778.42"/><text fill="#000000" font-family="sans-serif" font-size="14" lengthAdjust="spacing" textLength="105.7861" x="900.44" y="795.4151">+detectVoice()</text><text fill="#000000" font-family="sans-serif" font-size="14" lengthAdjust="spacing" textLength="107.5156" x="900.44" y="811.712">+analyzeRMS()</text></g><!--class ViolationLog--><g class="entity" data-entity="ViolationLog" data-source-line="141" data-uid="ent0027" id="entity_ViolationLog"><rect fill="#EEF3FF" height="129.4844" rx="2.5" ry="2.5" style="stroke:#2F6BFF;stroke-width:0.5;" width="171.3867" x="280.53" y="713.98"/><ellipse cx="319.2974" cy="729.98" fill="#2F6BFF" rx="11" ry="11" style="stroke:#243142;stroke-width:1;"/><path d="M322.2661,735.6206 Q321.688,735.9175 321.0474,736.0581 Q320.4068,736.2144 319.7036,736.2144 Q317.2036,736.2144 315.8755,734.5738 Q314.563,732.9175 314.563,729.7925 Q314.563,726.6675 315.8755,725.0113 Q317.2036,723.355 319.7036,723.355 Q320.4068,723.355 321.0474,723.5113 Q321.7036,723.6675 322.2661,723.9644 L322.2661,726.6831 Q321.6411,726.105 321.0474,725.8394 Q320.4536,725.5581 319.8286,725.5581 Q318.4849,725.5581 317.7974,726.6363 Q317.1099,727.6988 317.1099,729.7925 Q317.1099,731.8863 317.7974,732.9644 Q318.4849,734.0269 319.8286,734.0269 Q320.4536,734.0269 321.0474,733.7613 Q321.6411,733.48 322.2661,732.9019 L322.2661,735.6206 Z " fill="#000000"/><text fill="#000000" font-family="sans-serif" font-size="14" lengthAdjust="spacing" textLength="86.5703" x="338.579" y="734.8267">ViolationLog</text><line style="stroke:#2F6BFF;stroke-width:0.5;" x1="281.53" x2="450.9167" y1="745.98" y2="745.98"/><text fill="#000000" font-family="sans-serif" font-size="14" lengthAdjust="spacing" textLength="118.9521" x="286.53" y="762.9751">+violation_id: int</text><text fill="#000000" font-family="sans-serif" font-size="14" lengthAdjust="spacing" textLength="110.749" x="286.53" y="779.272">+session_id: int</text><text fill="#000000" font-family="sans-serif" font-size="14" lengthAdjust="spacing" textLength="159.3867" x="286.53" y="795.5689">+violation_type: string</text><text fill="#000000" font-family="sans-serif" font-size="14" lengthAdjust="spacing" textLength="107.7275" x="286.53" y="811.8657">+details: string</text><text fill="#000000" font-family="sans-serif" font-size="14" lengthAdjust="spacing" textLength="136.6025" x="286.53" y="828.1626">+timestamp: string</text><line style="stroke:#2F6BFF;stroke-width:0.5;" x1="281.53" x2="450.9167" y1="835.4644" y2="835.4644"/></g><!--class ProctoringEngine--><g class="entity" data-entity="ProctoringEngine" data-source-line="149" data-uid="ent0028" id="entity_ProctoringEngine"><rect fill="#EEF3FF" height="96.8906" rx="2.5" ry="2.5" style="stroke:#2F6BFF;stroke-width:0.5;" width="151.9023" x="593.27" y="508.19"/><ellipse cx="608.27" cy="524.19" fill="#2F6BFF" rx="11" ry="11" style="stroke:#243142;stroke-width:1;"/><path d="M611.2388,529.8306 Q610.6606,530.1275 610.02,530.2681 Q609.3794,530.4244 608.6763,530.4244 Q606.1763,530.4244 604.8481,528.7838 Q603.5356,527.1275 603.5356,524.0025 Q603.5356,520.8775 604.8481,519.2213 Q606.1763,517.565 608.6763,517.565 Q609.3794,517.565 610.02,517.7213 Q610.6763,517.8775 611.2388,518.1744 L611.2388,520.8931 Q610.6138,520.315 610.02,520.0494 Q609.4263,519.7681 608.8013,519.7681 Q607.4575,519.7681 606.77,520.8463 Q606.0825,521.9088 606.0825,524.0025 Q606.0825,526.0963 606.77,527.1744 Q607.4575,528.2369 608.8013,528.2369 Q609.4263,528.2369 610.02,527.9713 Q610.6138,527.69 611.2388,527.1119 L611.2388,529.8306 Z " fill="#000000"/><text fill="#000000" font-family="sans-serif" font-size="14" lengthAdjust="spacing" textLength="119.9023" x="622.27" y="529.0367">ProctoringEngine</text><line style="stroke:#2F6BFF;stroke-width:0.5;" x1="594.27" x2="744.1723" y1="540.19" y2="540.19"/><line style="stroke:#2F6BFF;stroke-width:0.5;" x1="594.27" x2="744.1723" y1="548.19" y2="548.19"/><text fill="#000000" font-family="sans-serif" font-size="14" lengthAdjust="spacing" textLength="121.4609" x="599.27" y="565.1851">+analyzeFrame()</text><text fill="#000000" font-family="sans-serif" font-size="14" lengthAdjust="spacing" textLength="117.2227" x="599.27" y="581.482">+monitorAudio()</text><text fill="#000000" font-family="sans-serif" font-size="14" lengthAdjust="spacing" textLength="105.3145" x="599.27" y="597.7789">+logViolation()</text></g><!--link AuthController to User--><g class="link" data-entity-1="AuthController" data-entity-2="User" data-source-line="48" data-uid="lnk7" id="link_AuthController_User"><path codeLine="48" d="M913.05,95.42 C871.25,116.26 817.57,146.13 775.22,180.19 C769.3,184.95 767.8415,185.9832 762.0815,191.2932" fill="none" id="AuthController-to-User" style="stroke:#243142;stroke-width:1;"/><polygon fill="#243142" points="757.67,195.36,766.9984,192.2007,761.3462,191.971,761.576,186.3188,757.67,195.36" style="stroke:#243142;stroke-width:1;"/></g><!--link AuthController to JWTHandler--><g class="link" data-entity-1="AuthController" data-entity-2="JWTHandler" data-source-line="49" data-uid="lnk8" id="link_AuthController_JWTHandler"><path codeLine="49" d="M954.15,120.61 C934.01,163.89 909.1714,217.2702 891.2414,255.8002" fill="none" id="AuthController-to-JWTHandler" style="stroke:#243142;stroke-width:1;"/><polygon fill="#243142" points="888.71,261.24,896.1337,254.7679,890.8195,256.7068,888.8806,251.3926,888.71,261.24" style="stroke:#243142;stroke-width:1;"/></g><!--link AuthController to PasswordManager--><g class="link" data-entity-1="AuthController" data-entity-2="PasswordManager" data-source-line="50" data-uid="lnk9" id="link_AuthController_PasswordManager"><path codeLine="50" d="M1006.53,120.61 C1026.85,163.89 1051.93,217.2788 1070.02,255.8088" fill="none" id="AuthController-to-PasswordManager" style="stroke:#243142;stroke-width:1;"/><polygon fill="#243142" points="1072.57,261.24,1072.3658,251.3933,1070.445,256.714,1065.1243,254.7932,1072.57,261.24" style="stroke:#243142;stroke-width:1;"/></g><!--link AuthController to FaceRecognitionService--><g class="link" data-entity-1="AuthController" data-entity-2="FaceRecognitionService" data-source-line="51" data-uid="lnk10" id="link_AuthController_FaceRecognitionService"><path codeLine="51" d="M1047.48,91.54 C1096.43,112.52 1163.3,144.08 1217.22,180.19 C1252.65,203.9 1284.2224,232.0233 1310.2324,257.2433" fill="none" id="AuthController-to-FaceRecognitionService" style="stroke:#243142;stroke-width:1;"/><polygon fill="#243142" points="1314.54,261.42,1310.8632,252.2832,1310.9504,257.9394,1305.2942,258.0266,1314.54,261.42" style="stroke:#243142;stroke-width:1;"/></g><!--link ExamController to Exam--><g class="link" data-entity-1="ExamController" data-entity-2="Exam" data-source-line="81" data-uid="lnk14" id="link_ExamController_Exam"><path codeLine="81" d="M112.1,597.24 C119.78,622.86 128.3776,651.5125 137.9376,683.4125" fill="none" id="ExamController-to-Exam" style="stroke:#243142;stroke-width:1;"/><polygon fill="#243142" points="139.66,689.16,140.908,679.3905,138.2246,684.3705,133.2447,681.6871,139.66,689.16" style="stroke:#243142;stroke-width:1;"/></g><!--link ExamController to Question--><g class="link" data-entity-1="ExamController" data-entity-2="Question" data-source-line="82" data-uid="lnk15" id="link_ExamController_Question"><path codeLine="82" d="M88.75,597.36 C81.85,623.33 73.75,658.14 70.22,689.53 C61.38,768.31 60.82,789.19 70.22,867.91 C72.57,887.55 75.5028,902.7547 80.2028,921.8047" fill="none" id="ExamController-to-Question" style="stroke:#243142;stroke-width:1;"/><polygon fill="#243142" points="81.64,927.63,83.3677,917.9339,80.4423,922.7756,75.6006,919.8502,81.64,927.63" style="stroke:#243142;stroke-width:1;"/></g><!--link Exam to Question--><g class="link" data-entity-1="Exam" data-entity-2="Question" data-source-line="83" data-uid="lnk16" id="link_Exam_Question"><path codeLine="83" d="M138.62,868.37 C132.43,888.22 127.7735,903.1712 121.9735,921.8012" fill="none" id="Exam-to-Question" style="stroke:#243142;stroke-width:1;"/><polygon fill="#243142" points="120.19,927.53,126.6845,920.1258,121.6763,922.756,119.0461,917.7478,120.19,927.53" style="stroke:#243142;stroke-width:1;"/><text fill="#000000" font-family="sans-serif" font-size="13" lengthAdjust="spacing" textLength="8.271" x="128.211" y="887.8802">1</text><text fill="#000000" font-family="sans-serif" font-size="13" lengthAdjust="spacing" textLength="23.0356" x="98.1179" y="916.6611">0..*</text></g><!--link SessionController to Session--><g class="link" data-entity-1="SessionController" data-entity-2="Session" data-source-line="119" data-uid="lnk21" id="link_SessionController_Session"><path codeLine="119" d="M425.07,342.73 C408.85,380.32 386.5166,432.1108 366.8066,477.8008" fill="none" id="SessionController-to-Session" style="stroke:#243142;stroke-width:1;"/><polygon fill="#243142" points="364.43,483.31,371.6677,476.6305,366.4105,478.719,364.3221,473.4617,364.43,483.31" style="stroke:#243142;stroke-width:1;"/></g><!--link ReportController to Report--><g class="link" data-entity-1="ReportController" data-entity-2="Report" data-source-line="120" data-uid="lnk22" id="link_ReportController_Report"><path codeLine="120" d="M168.6,104.16 C177.11,133.73 187.4211,169.5539 198.1611,206.8839" fill="none" id="ReportController-to-Report" style="stroke:#243142;stroke-width:1;"/><polygon fill="#243142" points="199.82,212.65,201.1757,202.8949,198.4376,207.8449,193.4875,205.1068,199.82,212.65" style="stroke:#243142;stroke-width:1;"/></g><!--link ReportController to Session--><g class="link" data-entity-1="ReportController" data-entity-2="Session" data-source-line="121" data-uid="lnk23" id="link_ReportController_Session"><path codeLine="121" d="M140.08,104.22 C112.82,173.72 68.2,320.08 125.22,423.75 C129.15,430.89 197.085,473.2101 255.515,508.7801" fill="none" id="ReportController-to-Session" style="stroke:#243142;stroke-width:1;"/><polygon fill="#243142" points="260.64,511.9,255.0324,503.8034,256.3691,509.3001,250.8725,510.6368,260.64,511.9" style="stroke:#243142;stroke-width:1;"/></g><!--link ProctoringEngine to FaceDetector--><g class="link" data-entity-1="ProctoringEngine" data-entity-2="FaceDetector" data-source-line="155" data-uid="lnk29" id="link_ProctoringEngine_FaceDetector"><path codeLine="155" d="M647.09,605.39 C628.69,645.09 605.3431,695.4663 588.0831,732.7063" fill="none" id="ProctoringEngine-to-FaceDetector" style="stroke:#243142;stroke-width:1;"/><polygon fill="#243142" points="585.56,738.15,592.9737,731.6664,587.6625,733.6136,585.7154,728.3024,585.56,738.15" style="stroke:#243142;stroke-width:1;"/></g><!--link ProctoringEngine to HeadPoseEstimator--><g class="link" data-entity-1="ProctoringEngine" data-entity-2="HeadPoseEstimator" data-source-line="156" data-uid="lnk30" id="link_ProctoringEngine_HeadPoseEstimator"><path codeLine="156" d="M691.36,605.39 C711.16,648.12 737.0965,704.0965 754.1565,740.8965" fill="none" id="ProctoringEngine-to-HeadPoseEstimator" style="stroke:#243142;stroke-width:1;"/><polygon fill="#243142" points="756.68,746.34,756.5237,736.4924,754.5771,741.8037,749.2657,739.8571,756.68,746.34" style="stroke:#243142;stroke-width:1;"/></g><!--link ProctoringEngine to VoiceMonitor--><g class="link" data-entity-1="ProctoringEngine" data-entity-2="VoiceMonitor" data-source-line="157" data-uid="lnk31" id="link_ProctoringEngine_VoiceMonitor"><path codeLine="157" d="M745.33,599.06 C786.29,622.99 836.6,655.13 877.22,689.53 C894.32,704.01 907.2797,717.5907 921.0097,733.6407" fill="none" id="ProctoringEngine-to-VoiceMonitor" style="stroke:#243142;stroke-width:1;"/><polygon fill="#243142" points="924.91,738.2,922.0991,728.7608,921.6597,734.4005,916.02,733.9612,924.91,738.2" style="stroke:#243142;stroke-width:1;"/></g><!--link ProctoringEngine to ViolationLog--><g class="link" data-entity-1="ProctoringEngine" data-entity-2="ViolationLog" data-source-line="158" data-uid="lnk32" id="link_ProctoringEngine_ViolationLog"><path codeLine="158" d="M593.14,604.64 C555.14,628.9 508.92,659.63 469.22,689.53 C459.16,697.11 453.4369,701.5501 443.3469,709.8801" fill="none" id="ProctoringEngine-to-ViolationLog" style="stroke:#243142;stroke-width:1;"/><polygon fill="#243142" points="438.72,713.7,448.207,711.0548,442.5758,710.5168,443.1138,704.8856,438.72,713.7" style="stroke:#243142;stroke-width:1;"/></g><!--link User to Session--><g class="link" data-entity-1="User" data-entity-2="Session" data-source-line="164" data-uid="lnk33" id="link_User_Session"><path codeLine="164" d="M576.7,408.47 C570.95,413.81 565.11,418.95 559.22,423.75 C511.89,462.39 457.2366,494.0783 410.9666,518.0683" fill="none" id="User-to-Session" style="stroke:#243142;stroke-width:1;"/><polygon fill="#243142" points="405.64,520.83,415.4711,520.2385,410.0788,518.5286,411.7888,513.1363,405.64,520.83" style="stroke:#243142;stroke-width:1;"/><text fill="#000000" font-family="sans-serif" font-size="13" lengthAdjust="spacing" textLength="8.271" x="560.8839" y="413.7407">1</text><text fill="#000000" font-family="sans-serif" font-size="13" lengthAdjust="spacing" textLength="23.0356" x="413.3779" y="513.9103">0..*</text></g><!--link Session to ViolationLog--><g class="link" data-entity-1="Session" data-entity-2="ViolationLog" data-source-line="165" data-uid="lnk34" id="link_Session_ViolationLog"><path codeLine="165" d="M344.07,630.01 C348.13,657.07 351.8213,681.6562 355.7513,707.8962" fill="none" id="Session-to-ViolationLog" style="stroke:#243142;stroke-width:1;"/><polygon fill="#243142" points="356.64,713.83,359.2628,704.3368,355.8994,708.8852,351.351,705.5218,356.64,713.83" style="stroke:#243142;stroke-width:1;"/><text fill="#000000" font-family="sans-serif" font-size="13" lengthAdjust="spacing" textLength="8.271" x="336.7138" y="649.5382">1</text><text fill="#000000" font-family="sans-serif" font-size="13" lengthAdjust="spacing" textLength="23.0356" x="331.336" y="702.9863">0..*</text></g><!--link Session to Exam--><g class="link" data-entity-1="Session" data-entity-2="Exam" data-source-line="166" data-uid="lnk35" id="link_Session_Exam"><path codeLine="166" d="M278.31,630.01 C263.95,648.92 251.9472,664.7505 237.0272,684.4105" fill="none" id="Session-to-Exam" style="stroke:#243142;stroke-width:1;"/><polygon fill="#243142" points="233.4,689.19,242.0271,684.4389,236.4226,685.2071,235.6544,679.6026,233.4,689.19" style="stroke:#243142;stroke-width:1;"/><text fill="#000000" font-family="sans-serif" font-size="13" lengthAdjust="spacing" textLength="8.271" x="264.8916" y="649.5382">1</text><text fill="#000000" font-family="sans-serif" font-size="13" lengthAdjust="spacing" textLength="8.271" x="230.4454" y="678.5303">1</text></g><!--link Report to Session--><g class="link" data-entity-1="Report" data-entity-2="Session" data-source-line="167" data-uid="lnk36" id="link_Report_Session"><path codeLine="167" d="M263,391.34 C275.89,421.51 287.7918,449.3428 300.0718,478.0728" fill="none" id="Report-to-Session" style="stroke:#243142;stroke-width:1;"/><polygon fill="#243142" points="302.43,483.59,302.5708,473.7421,300.4648,478.9924,295.2146,476.8864,302.43,483.59" style="stroke:#243142;stroke-width:1;"/><text fill="#000000" font-family="sans-serif" font-size="13" lengthAdjust="spacing" textLength="8.271" x="257.7025" y="411.1317">1</text><text fill="#000000" font-family="sans-serif" font-size="13" lengthAdjust="spacing" textLength="8.271" x="291.0185" y="472.7342">1</text></g><!--SRC=[dLPBSzis4BxhLs3ScLPkxKpiP7h8eJEimiJgM9Ogocbl79XSKgX8W0L0Eqgd_xqBWA3ua2rFVP21RvzOx7wWsZ5UKKbBaXHKgK1hoHvg3VD4y8Xz0_9seleglz9abqjHytGc2Y79Tm3PkomRgGcPWcnKhhEV7yOgWPJYoMkyVtVr_hgZeJH847fVmMmKSUIkgzoBwxnEVY2Np_sXBBZVt8Htc_aisCoNTsHs6qHH6BrePFCdzmea-MT2o4yi_K0OrsPP8nYRlS9Iyjn0MLqKCQSbT46bwnIu7gX2ILdH1Qgju3sxHDHIzH0fYjw-mjoUi0pnbghjm9SMSKLr3mMUY1JN8q4YWMf8OwfRzDz9S_IWrjkPu1fZ5xu84d9cRc9wRdQ5o1btoqUGBDlFpN6PtZii1xsI8cC5uBvr-ziVcnlAqzPbINU0sBIY-qBGr5gcWFbQL8iTy8xrgZduWdAQUnUc25umDQMnJf8j9BiMDZeNn0bRRvze0ckCbNEc6Ku3o4UMW7EQYBB2AGcRqarPYG7FlOJAWmIhUtL1yFVQkXxKxVBo5zj5n_13BOv91sSzfdBy09DJun3-6Ip88hWBFeSB78jNp47u5MVGrWLm5NU6mUxnqliDce9A9AjCKZrOOFFt4PPbBAaBlU-XjQJEjecYXQP5_7SDoi2gnPcAQQBP8mP_4A8uNEtlZQfBsXkE4k_ilKut3r4ruVvIWhkxbn8I7LEkda0wspQcAT9mOWgS5uEhTYPyPchQP62xPc1hBjT0nt3lmCh8sTMPHS_Ulddpuzb1UAe7aFyYvCA8V4_MuMgvtho63YDGgYsgSfluPMOSbbbfAZKsJ9ygWQSZ33LrhSR4j8PAIEq9oQnx_lzNLlrxLIVxhWAP8DVXN7uW6VAM2rq_b4m_nwTDxOODOklHoAOcKwGIJEwygOgNDCSw7vPXw2u73ZWxuAG7CzTxVTJttZWpqr0DEXd5CK877fTvmrCTk5elPvlbUdxtcIoM7-zlmrSqe26yZw3ngaHpuDJk3Awc6NufE8vcI8WBV4CArNrxRe2cAw4WnDiiQUi2t1QS_GN9q5d7wej0Jbq8zDYFQN4triZGnVuRh1THDzmN9WfBOxSYTuQF7ZdHiGSzyyNJ9rQDdm-g2vcvmIuggt7FuVjhAeLOoF6jRfws9jjFvhGk_zATBgXJ9jgtlKtVdMdaopz0_ZwEQungVbojM-HdD3hLFDbRw_3MVkf5D_FLoyHcl_069EexsDFTGDpBPAI3_orpDpJLnHlT_m00]--></g></svg>