<svg xmlns="http://www.w3.org/2000/svg" xmlns:xlink="http://www.w3.org/1999/xlink" contentStyleType="text/css" data-diagram-type="SEQUENCE" height="2138px" preserveAspectRatio="none" style="width:1231px;height:2138px;background:#FFFFFF;" version="1.1" viewBox="0 0 1231 2138" width="1231px" zoomAndPan="magnify"><title>Collaboration Diagram - Exam Session Flow</title><defs/><g><text fill="#000000" font-family="sans-serif" font-size="14" font-weight="bold" lengthAdjust="spacing" textLength="343.1846" x="440.2778" y="27.9951">Collaboration Diagram - Exam Session Flow</text><g><title>Student</title><rect fill="#000000" fill-opacity="0.00000" height="1997.0313" width="8" x="35.5557" y="89.8906"/><line style="stroke:#181818;stroke-width:0.5;stroke-dasharray:5,5;" x1="39" x2="39" y1="89.8906" y2="2086.9219"/></g><g><title>UI</title><rect fill="#000000" fill-opacity="0.00000" height="1997.0313" width="8" x="194.0435" y="89.8906"/><line style="stroke:#181818;stroke-width:0.5;stroke-dasharray:5,5;" x1="197.8555" x2="197.8555" y1="89.8906" y2="2086.9219"/></g><g><title>JWT Auth</title><rect fill="#000000" fill-opacity="0.00000" height="1997.0313" width="8" x="327.6675" y="89.8906"/><line style="stroke:#181818;stroke-width:0.5;stroke-dasharray:5,5;" x1="330.7744" x2="330.7744" y1="89.8906" y2="2086.9219"/></g><g><title>Session Mgr</title><rect fill="#000000" fill-opacity="0.00000" height="1997.0313" width="8" x="425.8545" y="89.8906"/><line style="stroke:#181818;stroke-width:0.5;stroke-dasharray:5,5;" x1="429.5605" x2="429.5605" y1="89.8906" y2="2086.9219"/></g><g><title>Monitor</title><rect fill="#000000" fill-opacity="0.00000" height="1997.0313" width="8" x="518.7573" y="89.8906"/><line style="stroke:#181818;stroke-width:0.5;stroke-dasharray:5,5;" x1="522.1484" x2="522.1484" y1="89.8906" y2="2086.9219"/></g><g><title>Face Detect</title><rect fill="#000000" fill-opacity="0.00000" height="1997.0313" width="8" x="658.2593" y="89.8906"/><line style="stroke:#181818;stroke-width:0.5;stroke-dasharray:5,5;" x1="662.2217" x2="662.2217" y1="89.8906" y2="2086.9219"/></g><g><title>Face Recog</title><rect fill="#000000" fill-opacity="0.00000" height="1997.0313" width="8" x="780.8257" y="89.8906"/><line style="stroke:#181818;stroke-width:0.5;stroke-dasharray:5,5;" x1="784.3843" x2="784.3843" y1="89.8906" y2="2086.9219"/></g><g><title>Audio</title><rect fill="#000000" fill-opacity="0.00000" height="1997.0313" width="8" x="869.2578" y="89.8906"/><line style="stroke:#181818;stroke-width:0.5;stroke-dasharray:5,5;" x1="872.2671" x2="872.2671" y1="89.8906" y2="2086.9219"/></g><g><title>SQLite DB</title><rect fill="#000000" fill-opacity="0.00000" height="1997.0313" width="8" x="952.5151" y="89.8906"/><line style="stroke:#181818;stroke-width:0.5;stroke-dasharray:5,5;" x1="956.2485" x2="956.2485" y1="89.8906" y2="2086.9219"/></g><g><title>File Storage</title><rect fill="#000000" fill-opacity="0.00000" height="1997.0313" width="8" x="1053.6177" y="89.8906"/><line style="stroke:#181818;stroke-width:0.5;stroke-dasharray:5,5;" x1="1056.7817" x2="1056.7817" y1="89.8906" y2="2086.9219"/></g><g><title>Proctor</title><rect fill="#000000" fill-opacity="0.00000" height="1997.0313" width="8" x="1183.6045" y="89.8906"/><line style="stroke:#181818;stroke-width:0.5;stroke-dasharray:5,5;" x1="1187.4688" x2="1187.4688" y1="89.8906" y2="2086.9219"/></g><g class="participant participant-head" data-participant="S"><rect fill="#E2E2F0" height="30.2969" rx="2.5" ry="2.5" style="stroke:#181818;stroke-width:0.5;" width="69.1113" x="5" y="58.5938"/><text fill="#000000" font-family="sans-serif" font-size="14" lengthAdjust="spacing" textLength="55.1113" x="12" y="78.5889">Student</text></g><g class="participant participant-tail" data-participant="S"><rect fill="#E2E2F0" height="30.2969" rx="2.5" ry="2.5" style="stroke:#181818;stroke-width:0.5;" width="69.1113" x="5" y="2085.9219"/><text fill="#000000" font-family="sans-serif" font-size="14" lengthAdjust="spacing" textLength="55.1113" x="12" y="2105.917">Student</text></g><g class="participant participant-head" data-participant="UI"><rect fill="#E2E2F0" height="30.2969" rx="2.5" ry="2.5" style="stroke:#181818;stroke-width:0.5;" width="28.376" x="183.8555" y="58.5938"/><text fill="#000000" font-family="sans-serif" font-size="14" lengthAdjust="spacing" textLength="14.376" x="190.8555" y="78.5889">UI</text></g><g class="participant participant-tail" data-participant="UI"><rect fill="#E2E2F0" height="30.2969" rx="2.5" ry="2.5" style="stroke:#181818;stroke-width:0.5;" width="28.376" x="183.8555" y="2085.9219"/><text fill="#000000" font-family="sans-serif" font-size="14" lengthAdjust="spacing" textLength="14.376" x="190.8555" y="2105.917">UI</text></g><g class="participant participant-head" data-participant="AUTH"><rect fill="#E2E2F0" height="30.2969" rx="2.5" ry="2.5" style="stroke:#181818;stroke-width:0.5;" width="77.7861" x="292.7744" y="58.5938"/><text fill="#000000" font-family="sans-serif" font-size="14" lengthAdjust="spacing" textLength="63.7861" x="299.7744" y="78.5889">JWT Auth</text></g><g class="participant participant-tail" data-participant="AUTH"><rect fill="#E2E2F0" height="30.2969" rx="2.5" ry="2.5" style="stroke:#181818;stroke-width:0.5;" width="77.7861" x="292.7744" y="2085.9219"/><text fill="#000000" font-family="sans-serif" font-size="14" lengthAdjust="spacing" textLength="63.7861" x="299.7744" y="2105.917">JWT Auth</text></g><g class="participant participant-head" data-participant="SESSION"><rect fill="#E2E2F0" height="30.2969" rx="2.5" ry="2.5" style="stroke:#181818;stroke-width:0.5;" width="98.5879" x="380.5605" y="58.5938"/><text fill="#000000" font-family="sans-serif" font-size="14" lengthAdjust="spacing" textLength="84.5879" x="387.5605" y="78.5889">Session Mgr</text></g><g class="participant participant-tail" data-participant="SESSION"><rect fill="#E2E2F0" height="30.2969" rx="2.5" ry="2.5" style="stroke:#181818;stroke-width:0.5;" width="98.5879" x="380.5605" y="2085.9219"/><text fill="#000000" font-family="sans-serif" font-size="14" lengthAdjust="spacing" textLength="84.5879" x="387.5605" y="2105.917">Session Mgr</text></g><g class="participant participant-head" data-participant="MON"><rect fill="#E2E2F0" height="30.2969" rx="2.5" ry="2.5" style="stroke:#181818;stroke-width:0.5;" width="67.2178" x="489.1484" y="58.5938"/><text fill="#000000" font-family="sans-serif" font-size="14" lengthAdjust="spacing" textLength="53.2178" x="496.1484" y="78.5889">Monitor</text></g><g class="participant participant-tail" data-participant="MON"><rect fill="#E2E2F0" height="30.2969" rx="2.5" ry="2.5" style="stroke:#181818;stroke-width:0.5;" width="67.2178" x="489.1484" y="2085.9219"/><text fill="#000000" font-family="sans-serif" font-size="14" lengthAdjust="spacing" textLength="53.2178" x="496.1484" y="2105.917">Monitor</text></g><g class="participant participant-head" data-participant="FACE"><rect fill="#E2E2F0" height="46.5938" rx="2.5" ry="2.5" style="stroke:#181818;stroke-width:0.5;" width="98.0752" x="613.2217" y="42.2969"/><text fill="#000000" font-family="sans-serif" font-size="14" lengthAdjust="spacing" textLength="84.0752" x="620.2217" y="62.292">Face Detect</text><text fill="#000000" font-family="sans-serif" font-size="14" lengthAdjust="spacing" textLength="39.1836" x="642.6675" y="78.5889">(CV2)</text></g><g class="participant participant-tail" data-participant="FACE"><rect fill="#E2E2F0" height="46.5938" rx="2.5" ry="2.5" style="stroke:#181818;stroke-width:0.5;" width="98.0752" x="613.2217" y="2085.9219"/><text fill="#000000" font-family="sans-serif" font-size="14" lengthAdjust="spacing" textLength="84.0752" x="620.2217" y="2105.917">Face Detect</text><text fill="#000000" font-family="sans-serif" font-size="14" lengthAdjust="spacing" textLength="39.1836" x="642.6675" y="2122.2139">(CV2)</text></g><g class="participant participant-head" data-participant="RECOG"><rect fill="#E2E2F0" height="46.5938" rx="2.5" ry="2.5" style="stroke:#181818;stroke-width:0.5;" width="94.8828" x="737.3843" y="42.2969"/><text fill="#000000" font-family="sans-serif" font-size="14" lengthAdjust="spacing" textLength="80.8828" x="744.3843" y="62.292">Face Recog</text><text fill="#000000" font-family="sans-serif" font-size="14" lengthAdjust="spacing" textLength="59.876" x="754.8877" y="78.5889">(Library)</text></g><g class="participant participant-tail" data-participant="RECOG"><rect fill="#E2E2F0" height="46.5938" rx="2.5" ry="2.5" style="stroke:#181818;stroke-width:0.5;" width="94.8828" x="737.3843" y="2085.9219"/><text fill="#000000" font-family="sans-serif" font-size="14" lengthAdjust="spacing" textLength="80.8828" x="744.3843" y="2105.917">Face Recog</text><text fill="#000000" font-family="sans-serif" font-size="14" lengthAdjust="spacing" textLength="59.876" x="754.8877" y="2122.2139">(Library)</text></g><g class="participant participant-head" data-participant="AUD"><rect fill="#E2E2F0" height="46.5938" rx="2.5" ry="2.5" style="stroke:#181818;stroke-width:0.5;" width="61.9814" x="842.2671" y="42.2969"/><text fill="#000000" font-family="sans-serif" font-size="14" lengthAdjust="spacing" textLength="39.792" x="853.3618" y="62.292">Audio</text><text fill="#000000" font-family="sans-serif" font-size="14" lengthAdjust="spacing" textLength="47.9814" x="849.2671" y="78.5889">Engine</text></g><g class="participant participant-tail" data-participant="AUD"><rect fill="#E2E2F0" height="46.5938" rx="2.5" ry="2.5" style="stroke:#181818;stroke-width:0.5;" width="61.9814" x="842.2671" y="2085.9219"/><text fill="#000000" font-family="sans-serif" font-size="14" lengthAdjust="spacing" textLength="39.792" x="853.3618" y="2105.917">Audio</text><text fill="#000000" font-family="sans-serif" font-size="14" lengthAdjust="spacing" textLength="47.9814" x="849.2671" y="2122.2139">Engine</text></g><g class="participant participant-head" data-participant="DB"><rect fill="#E2E2F0" height="30.2969" rx="2.5" ry="2.5" style="stroke:#181818;stroke-width:0.5;" width="84.5332" x="914.2485" y="58.5938"/><text fill="#000000" font-family="sans-serif" font-size="14" lengthAdjust="spacing" textLength="70.5332" x="921.2485" y="78.5889">SQLite DB</text></g><g class="participant participant-tail" data-participant="DB"><rect fill="#E2E2F0" height="30.2969" rx="2.5" ry="2.5" style="stroke:#181818;stroke-width:0.5;" width="84.5332" x="914.2485" y="2085.9219"/><text fill="#000000" font-family="sans-serif" font-size="14" lengthAdjust="spacing" textLength="70.5332" x="921.2485" y="2105.917">SQLite DB</text></g><g class="participant participant-head" data-participant="FS"><rect fill="#E2E2F0" height="30.2969" rx="2.5" ry="2.5" style="stroke:#181818;stroke-width:0.5;" width="97.6719" x="1008.7817" y="58.5938"/><text fill="#000000" font-family="sans-serif" font-size="14" lengthAdjust="spacing" textLength="83.6719" x="1015.7817" y="78.5889">File Storage</text></g><g class="participant participant-tail" data-participant="FS"><rect fill="#E2E2F0" height="30.2969" rx="2.5" ry="2.5" style="stroke:#181818;stroke-width:0.5;" width="97.6719" x="1008.7817" y="2085.9219"/><text fill="#000000" font-family="sans-serif" font-size="14" lengthAdjust="spacing" textLength="83.6719" x="1015.7817" y="2105.917">File Storage</text></g><g class="participant participant-head" data-participant="PROC"><rect fill="#E2E2F0" height="30.2969" rx="2.5" ry="2.5" style="stroke:#181818;stroke-width:0.5;" width="64.2715" x="1155.4688" y="58.5938"/><text fill="#000000" font-family="sans-serif" font-size="14" lengthAdjust="spacing" textLength="50.2715" x="1162.4688" y="78.5889">Proctor</text></g><g class="participant participant-tail" data-participant="PROC"><rect fill="#E2E2F0" height="30.2969" rx="2.5" ry="2.5" style="stroke:#181818;stroke-width:0.5;" width="64.2715" x="1155.4688" y="2085.9219"/><text fill="#000000" font-family="sans-serif" font-size="14" lengthAdjust="spacing" textLength="50.2715" x="1162.4688" y="2105.917">Proctor</text></g><rect fill="#EEEEEE" height="3" style="stroke:#EEEEEE;stroke-width:1;" width="1224.7402" x="0" y="120.457"/><line style="stroke:#000000;stroke-width:1;" x1="0" x2="1224.7402" y1="120.457" y2="120.457"/><line style="stroke:#000000;stroke-width:1;" x1="0" x2="1224.7402" y1="123.457" y2="123.457"/><rect fill="#EEEEEE" height="23.1328" style="stroke:#000000;stroke-width:2;" width="176.0239" x="524.3582" y="109.8906"/><text fill="#000000" font-family="sans-serif" font-size="13" font-weight="bold" lengthAdjust="spacing" textLength="157.498" x="530.3582" y="125.9575">Authentication Phase</text><g class="message" data-participant-1="S" data-participant-2="UI"><polygon fill="#181818" points="186.0435,160.1563,196.0435,164.1563,186.0435,168.1563,190.0435,164.1563" style="stroke:#181818;stroke-width:1;"/><line style="stroke:#181818;stroke-width:1;" x1="39.5557" x2="192.0435" y1="164.1563" y2="164.1563"/><text fill="#000000" font-family="sans-serif" font-size="13" lengthAdjust="spacing" textLength="129.8477" x="46.5557" y="159.0903">1: login(email, pwd)</text></g><g class="message" data-participant-1="UI" data-participant-2="AUTH"><polygon fill="#181818" points="319.6675,189.2891,329.6675,193.2891,319.6675,197.2891,323.6675,193.2891" style="stroke:#181818;stroke-width:1;"/><line style="stroke:#181818;stroke-width:1;" x1="198.0435" x2="325.6675" y1="193.2891" y2="193.2891"/><text fill="#000000" font-family="sans-serif" font-size="13" lengthAdjust="spacing" textLength="109.624" x="205.0435" y="188.2231">2: authenticate()</text></g><g class="message" data-participant-1="AUTH" data-participant-2="DB"><polygon fill="#181818" points="944.5151,218.4219,954.5151,222.4219,944.5151,226.4219,948.5151,222.4219" style="stroke:#181818;stroke-width:1;"/><line style="stroke:#181818;stroke-width:1;" x1="331.6675" x2="950.5151" y1="222.4219" y2="222.4219"/><text fill="#000000" font-family="sans-serif" font-size="13" lengthAdjust="spacing" textLength="93.4756" x="338.6675" y="217.356">3: verifyUser()</text></g><g class="message" data-participant-1="DB" data-participant-2="AUTH"><polygon fill="#181818" points="342.6675,247.5547,332.6675,251.5547,342.6675,255.5547,338.6675,251.5547" style="stroke:#181818;stroke-width:1;"/><line style="stroke:#181818;stroke-width:1;stroke-dasharray:2,2;" x1="336.6675" x2="955.5151" y1="251.5547" y2="251.5547"/><text fill="#000000" font-family="sans-serif" font-size="13" lengthAdjust="spacing" textLength="77.4731" x="348.6675" y="246.4888">4: userValid</text></g><g class="message" data-participant-1="UI" data-participant-2="AUTH"><polygon fill="#181818" points="319.6675,276.6875,329.6675,280.6875,319.6675,284.6875,323.6675,280.6875" style="stroke:#181818;stroke-width:1;"/><line style="stroke:#181818;stroke-width:1;" x1="198.0435" x2="325.6675" y1="280.6875" y2="280.6875"/><text fill="#000000" font-family="sans-serif" font-size="13" lengthAdjust="spacing" textLength="107.561" x="205.0435" y="275.6216">5: captureFace()</text></g><g class="message" data-participant-1="AUTH" data-participant-2="FS"><polygon fill="#181818" points="1045.6177,305.8203,1055.6177,309.8203,1045.6177,313.8203,1049.6177,309.8203" style="stroke:#181818;stroke-width:1;"/><line style="stroke:#181818;stroke-width:1;" x1="331.6675" x2="1051.6177" y1="309.8203" y2="309.8203"/><text fill="#000000" font-family="sans-serif" font-size="13" lengthAdjust="spacing" textLength="114.6196" x="338.6675" y="304.7544">6: loadEncoding()</text></g><g class="message" data-participant-1="FS" data-participant-2="AUTH"><polygon fill="#181818" points="342.6675,334.9531,332.6675,338.9531,342.6675,342.9531,338.6675,338.9531" style="stroke:#181818;stroke-width:1;"/><line style="stroke:#181818;stroke-width:1;stroke-dasharray:2,2;" x1="336.6675" x2="1056.6177" y1="338.9531" y2="338.9531"/><text fill="#000000" font-family="sans-serif" font-size="13" lengthAdjust="spacing" textLength="100.001" x="348.6675" y="333.8872">7: encoding.pkl</text></g><g class="message" data-participant-1="AUTH" data-participant-2="RECOG"><polygon fill="#181818" points="772.8257,364.0859,782.8257,368.0859,772.8257,372.0859,776.8257,368.0859" style="stroke:#181818;stroke-width:1;"/><line style="stroke:#181818;stroke-width:1;" x1="331.6675" x2="778.8257" y1="368.0859" y2="368.0859"/><text fill="#000000" font-family="sans-serif" font-size="13" lengthAdjust="spacing" textLength="114.8418" x="338.6675" y="363.02">8: compareFace()</text></g><g class="message" data-participant-1="RECOG" data-participant-2="AUTH"><polygon fill="#181818" points="342.6675,393.2188,332.6675,397.2188,342.6675,401.2188,338.6675,397.2188" style="stroke:#181818;stroke-width:1;"/><line style="stroke:#181818;stroke-width:1;stroke-dasharray:2,2;" x1="336.6675" x2="783.8257" y1="397.2188" y2="397.2188"/><text fill="#000000" font-family="sans-serif" font-size="13" lengthAdjust="spacing" textLength="90.9238" x="348.6675" y="392.1528">9: 87% match</text></g><g class="message" data-participant-1="AUTH" data-participant-2="UI"><polygon fill="#181818" points="209.0435,422.3516,199.0435,426.3516,209.0435,430.3516,205.0435,426.3516" style="stroke:#181818;stroke-width:1;"/><line style="stroke:#181818;stroke-width:1;stroke-dasharray:2,2;" x1="203.0435" x2="330.6675" y1="426.3516" y2="426.3516"/><text fill="#000000" font-family="sans-serif" font-size="13" lengthAdjust="spacing" textLength="90.6318" x="215.0435" y="421.2856">10: JWT token</text></g><rect fill="#EEEEEE" height="3" style="stroke:#EEEEEE;stroke-width:1;" width="1224.7402" x="0" y="454.918"/><line style="stroke:#000000;stroke-width:1;" x1="0" x2="1224.7402" y1="454.918" y2="454.918"/><line style="stroke:#000000;stroke-width:1;" x1="0" x2="1224.7402" y1="457.918" y2="457.918"/><rect fill="#EEEEEE" height="23.1328" style="stroke:#000000;stroke-width:2;" width="154.7339" x="535.0032" y="444.3516"/><text fill="#000000" font-family="sans-serif" font-size="13" font-weight="bold" lengthAdjust="spacing" textLength="136.208" x="541.0032" y="460.4185">Exam Initialization</text><g class="message" data-participant-1="UI" data-participant-2="SESSION"><polygon fill="#181818" points="417.8545,494.6172,427.8545,498.6172,417.8545,502.6172,421.8545,498.6172" style="stroke:#181818;stroke-width:1;"/><line style="stroke:#181818;stroke-width:1;" x1="198.0435" x2="423.8545" y1="498.6172" y2="498.6172"/><text fill="#000000" font-family="sans-serif" font-size="13" lengthAdjust="spacing" textLength="102.0132" x="205.0435" y="493.5513">11: startExam()</text></g><g class="message" data-participant-1="SESSION" data-participant-2="DB"><polygon fill="#181818" points="944.5151,523.75,954.5151,527.75,944.5151,531.75,948.5151,527.75" style="stroke:#181818;stroke-width:1;"/><line style="stroke:#181818;stroke-width:1;" x1="429.8545" x2="950.5151" y1="527.75" y2="527.75"/><text fill="#000000" font-family="sans-serif" font-size="13" lengthAdjust="spacing" textLength="126.3501" x="436.8545" y="522.6841">12: createSession()</text></g><g class="message" data-participant-1="DB" data-participant-2="SESSION"><polygon fill="#181818" points="440.8545,552.8828,430.8545,556.8828,440.8545,560.8828,436.8545,556.8828" style="stroke:#181818;stroke-width:1;"/><line style="stroke:#181818;stroke-width:1;stroke-dasharray:2,2;" x1="434.8545" x2="955.5151" y1="556.8828" y2="556.8828"/><text fill="#000000" font-family="sans-serif" font-size="13" lengthAdjust="spacing" textLength="87.02" x="446.8545" y="551.8169">13: sessionID</text></g><g class="message" data-participant-1="SESSION" data-participant-2="DB"><polygon fill="#181818" points="944.5151,582.0156,954.5151,586.0156,944.5151,590.0156,948.5151,586.0156" style="stroke:#181818;stroke-width:1;"/><line style="stroke:#181818;stroke-width:1;" x1="429.8545" x2="950.5151" y1="586.0156" y2="586.0156"/><text fill="#000000" font-family="sans-serif" font-size="13" lengthAdjust="spacing" textLength="144.7837" x="436.8545" y="580.9497">14: getExamContent()</text></g><g class="message" data-participant-1="DB" data-participant-2="UI"><polygon fill="#181818" points="209.0435,611.1484,199.0435,615.1484,209.0435,619.1484,205.0435,615.1484" style="stroke:#181818;stroke-width:1;"/><line style="stroke:#181818;stroke-width:1;stroke-dasharray:2,2;" x1="203.0435" x2="955.5151" y1="615.1484" y2="615.1484"/><text fill="#000000" font-family="sans-serif" font-size="13" lengthAdjust="spacing" textLength="87.9912" x="215.0435" y="610.0825">15: questions</text></g><rect fill="#EEEEEE" height="3" style="stroke:#EEEEEE;stroke-width:1;" width="1224.7402" x="0" y="643.7148"/><line style="stroke:#000000;stroke-width:1;" x1="0" x2="1224.7402" y1="643.7148" y2="643.7148"/><line style="stroke:#000000;stroke-width:1;" x1="0" x2="1224.7402" y1="646.7148" y2="646.7148"/><rect fill="#EEEEEE" height="23.1328" style="stroke:#000000;stroke-width:2;" width="146.1582" x="539.291" y="633.1484"/><text fill="#000000" font-family="sans-serif" font-size="13" font-weight="bold" lengthAdjust="spacing" textLength="127.6323" x="545.291" y="649.2153">Monitoring Setup</text><g class="message" data-participant-1="UI" data-participant-2="MON"><polygon fill="#181818" points="510.7573,683.4141,520.7573,687.4141,510.7573,691.4141,514.7573,687.4141" style="stroke:#181818;stroke-width:1;"/><line style="stroke:#181818;stroke-width:1;" x1="198.0435" x2="516.7573" y1="687.4141" y2="687.4141"/><text fill="#000000" font-family="sans-serif" font-size="13" lengthAdjust="spacing" textLength="130.2793" x="205.0435" y="682.3481">16: enableCamera()</text></g><g class="message" data-participant-1="UI" data-participant-2="MON"><polygon fill="#181818" points="510.7573,712.5469,520.7573,716.5469,510.7573,720.5469,514.7573,716.5469" style="stroke:#181818;stroke-width:1;"/><line style="stroke:#181818;stroke-width:1;" x1="198.0435" x2="516.7573" y1="716.5469" y2="716.5469"/><text fill="#000000" font-family="sans-serif" font-size="13" lengthAdjust="spacing" textLength="155.2192" x="205.0435" y="711.481">17: enableMicrophone()</text></g><g class="message" data-participant-1="MON" data-participant-2="FACE"><polygon fill="#181818" points="650.2593,741.6797,660.2593,745.6797,650.2593,749.6797,654.2593,745.6797" style="stroke:#181818;stroke-width:1;"/><line style="stroke:#181818;stroke-width:1;" x1="522.7573" x2="656.2593" y1="745.6797" y2="745.6797"/><text fill="#000000" font-family="sans-serif" font-size="13" lengthAdjust="spacing" textLength="108.7861" x="529.7573" y="740.6138">18: loadModels()</text></g><g class="message" data-participant-1="FACE" data-participant-2="MON"><polygon fill="#181818" points="533.7573,770.8125,523.7573,774.8125,533.7573,778.8125,529.7573,774.8125" style="stroke:#181818;stroke-width:1;"/><line style="stroke:#181818;stroke-width:1;stroke-dasharray:2,2;" x1="527.7573" x2="661.2593" y1="774.8125" y2="774.8125"/><text fill="#000000" font-family="sans-serif" font-size="13" lengthAdjust="spacing" textLength="113.6929" x="539.7573" y="769.7466">19: models ready</text></g><g class="message" data-participant-1="MON" data-participant-2="UI"><polygon fill="#181818" points="209.0435,799.9453,199.0435,803.9453,209.0435,807.9453,205.0435,803.9453" style="stroke:#181818;stroke-width:1;"/><line style="stroke:#181818;stroke-width:1;stroke-dasharray:2,2;" x1="203.0435" x2="521.7573" y1="803.9453" y2="803.9453"/><text fill="#000000" font-family="sans-serif" font-size="13" lengthAdjust="spacing" textLength="116.3462" x="215.0435" y="798.8794">20: monitoring on</text></g><rect fill="#EEEEEE" height="3" style="stroke:#EEEEEE;stroke-width:1;" width="1224.7402" x="0" y="832.5117"/><line style="stroke:#000000;stroke-width:1;" x1="0" x2="1224.7402" y1="832.5117" y2="832.5117"/><line style="stroke:#000000;stroke-width:1;" x1="0" x2="1224.7402" y1="835.5117" y2="835.5117"/><rect fill="#EEEEEE" height="23.1328" style="stroke:#000000;stroke-width:2;" width="167.3911" x="528.6746" y="821.9453"/><text fill="#000000" font-family="sans-serif" font-size="13" font-weight="bold" lengthAdjust="spacing" textLength="148.8652" x="534.6746" y="838.0122">Real-Time Detection</text><g class="message" data-participant-1="S" data-participant-2="UI"><polygon fill="#181818" points="186.0435,872.2109,196.0435,876.2109,186.0435,880.2109,190.0435,876.2109" style="stroke:#181818;stroke-width:1;"/><line style="stroke:#181818;stroke-width:1;" x1="39.5557" x2="192.0435" y1="876.2109" y2="876.2109"/><text fill="#000000" font-family="sans-serif" font-size="13" lengthAdjust="spacing" textLength="107.8848" x="46.5557" y="871.145">21: videoStream</text></g><g class="message" data-participant-1="UI" data-participant-2="MON"><polygon fill="#181818" points="510.7573,901.3438,520.7573,905.3438,510.7573,909.3438,514.7573,905.3438" style="stroke:#181818;stroke-width:1;"/><line style="stroke:#181818;stroke-width:1;" x1="198.0435" x2="516.7573" y1="905.3438" y2="905.3438"/><text fill="#000000" font-family="sans-serif" font-size="13" lengthAdjust="spacing" textLength="70.3765" x="205.0435" y="900.2778">22: frames</text></g><g class="message" data-participant-1="MON" data-participant-2="FACE"><polygon fill="#181818" points="650.2593,930.4766,660.2593,934.4766,650.2593,938.4766,654.2593,934.4766" style="stroke:#181818;stroke-width:1;"/><line style="stroke:#181818;stroke-width:1;" x1="522.7573" x2="656.2593" y1="934.4766" y2="934.4766"/><text fill="#000000" font-family="sans-serif" font-size="13" lengthAdjust="spacing" textLength="114.1499" x="529.7573" y="929.4106">23: detectFaces()</text></g><g class="message" data-participant-1="FACE" data-participant-2="RECOG"><polygon fill="#181818" points="772.8257,959.6094,782.8257,963.6094,772.8257,967.6094,776.8257,963.6094" style="stroke:#181818;stroke-width:1;"/><line style="stroke:#181818;stroke-width:1;" x1="662.2593" x2="778.8257" y1="963.6094" y2="963.6094"/><text fill="#000000" font-family="sans-serif" font-size="13" lengthAdjust="spacing" textLength="98.5664" x="669.2593" y="958.5435">24: recognize()</text></g><g class="message" data-participant-1="RECOG" data-participant-2="MON"><polygon fill="#181818" points="533.7573,988.7422,523.7573,992.7422,533.7573,996.7422,529.7573,992.7422" style="stroke:#181818;stroke-width:1;"/><line style="stroke:#181818;stroke-width:1;stroke-dasharray:2,2;" x1="527.7573" x2="783.8257" y1="992.7422" y2="992.7422"/><text fill="#000000" font-family="sans-serif" font-size="13" lengthAdjust="spacing" textLength="83.7827" x="539.7573" y="987.6763">25: faceData</text></g><g class="message" data-participant-1="S" data-participant-2="UI"><polygon fill="#181818" points="186.0435,1017.875,196.0435,1021.875,186.0435,1025.875,190.0435,1021.875" style="stroke:#181818;stroke-width:1;"/><line style="stroke:#181818;stroke-width:1;" x1="39.5557" x2="192.0435" y1="1021.875" y2="1021.875"/><text fill="#000000" font-family="sans-serif" font-size="13" lengthAdjust="spacing" textLength="108.3989" x="46.5557" y="1016.8091">26: audioStream</text></g><g class="message" data-participant-1="UI" data-participant-2="MON"><polygon fill="#181818" points="510.7573,1047.0078,520.7573,1051.0078,510.7573,1055.0078,514.7573,1051.0078" style="stroke:#181818;stroke-width:1;"/><line style="stroke:#181818;stroke-width:1;" x1="198.0435" x2="516.7573" y1="1051.0078" y2="1051.0078"/><text fill="#000000" font-family="sans-serif" font-size="13" lengthAdjust="spacing" textLength="92.1172" x="205.0435" y="1045.9419">27: audioData</text></g><g class="message" data-participant-1="MON" data-participant-2="AUD"><polygon fill="#181818" points="861.2578,1076.1406,871.2578,1080.1406,861.2578,1084.1406,865.2578,1080.1406" style="stroke:#181818;stroke-width:1;"/><line style="stroke:#181818;stroke-width:1;" x1="522.7573" x2="867.2578" y1="1080.1406" y2="1080.1406"/><text fill="#000000" font-family="sans-serif" font-size="13" lengthAdjust="spacing" textLength="85.4966" x="529.7573" y="1075.0747">28: analyze()</text></g><rect fill="#EEEEEE" height="3" style="stroke:#EEEEEE;stroke-width:1;" width="1224.7402" x="0" y="1108.707"/><line style="stroke:#000000;stroke-width:1;" x1="0" x2="1224.7402" y1="1108.707" y2="1108.707"/><line style="stroke:#000000;stroke-width:1;" x1="0" x2="1224.7402" y1="1111.707" y2="1111.707"/><rect fill="#EEEEEE" height="23.1328" style="stroke:#000000;stroke-width:2;" width="154.2705" x="535.2349" y="1098.1406"/><text fill="#000000" font-family="sans-serif" font-size="13" font-weight="bold" lengthAdjust="spacing" textLength="135.7446" x="541.2349" y="1114.2075">Violation Handling</text><g class="message" data-participant-1="AUD" data-participant-2="MON"><polygon fill="#181818" points="533.7573,1148.4063,523.7573,1152.4063,533.7573,1156.4063,529.7573,1152.4063" style="stroke:#181818;stroke-width:1;"/><line style="stroke:#181818;stroke-width:1;stroke-dasharray:2,2;" x1="527.7573" x2="872.2578" y1="1152.4063" y2="1152.4063"/><text fill="#000000" font-family="sans-serif" font-size="13" lengthAdjust="spacing" textLength="119.0566" x="539.7573" y="1147.3403">29: voiceDetected</text></g><g class="message" data-participant-1="FACE" data-participant-2="MON"><polygon fill="#181818" points="533.7573,1177.5391,523.7573,1181.5391,533.7573,1185.5391,529.7573,1181.5391" style="stroke:#181818;stroke-width:1;"/><line style="stroke:#181818;stroke-width:1;stroke-dasharray:2,2;" x1="527.7573" x2="661.2593" y1="1181.5391" y2="1181.5391"/><text fill="#000000" font-family="sans-serif" font-size="13" lengthAdjust="spacing" textLength="115.502" x="539.7573" y="1176.4731">30: multipleFaces</text></g><g class="message" data-participant-1="MON" data-participant-2="DB"><polygon fill="#181818" points="944.5151,1206.6719,954.5151,1210.6719,944.5151,1214.6719,948.5151,1210.6719" style="stroke:#181818;stroke-width:1;"/><line style="stroke:#181818;stroke-width:1;" x1="522.7573" x2="950.5151" y1="1210.6719" y2="1210.6719"/><text fill="#000000" font-family="sans-serif" font-size="13" lengthAdjust="spacing" textLength="111.9536" x="529.7573" y="1205.606">31: logViolation()</text></g><g class="message" data-participant-1="MON" data-participant-2="UI"><polygon fill="#181818" points="209.0435,1235.8047,199.0435,1239.8047,209.0435,1243.8047,205.0435,1239.8047" style="stroke:#181818;stroke-width:1;"/><line style="stroke:#181818;stroke-width:1;" x1="203.0435" x2="521.7573" y1="1239.8047" y2="1239.8047"/><text fill="#000000" font-family="sans-serif" font-size="13" lengthAdjust="spacing" textLength="65.2158" x="215.0435" y="1234.7388">32: alert()</text></g><g class="message" data-participant-1="MON" data-participant-2="PROC"><polygon fill="#181818" points="1175.6045,1264.9375,1185.6045,1268.9375,1175.6045,1272.9375,1179.6045,1268.9375" style="stroke:#181818;stroke-width:1;"/><line style="stroke:#181818;stroke-width:1;" x1="522.7573" x2="1181.6045" y1="1268.9375" y2="1268.9375"/><text fill="#000000" font-family="sans-serif" font-size="13" lengthAdjust="spacing" textLength="72.3696" x="529.7573" y="1263.8716">33: notify()</text></g><rect fill="#EEEEEE" height="3" style="stroke:#EEEEEE;stroke-width:1;" width="1224.7402" x="0" y="1297.5039"/><line style="stroke:#000000;stroke-width:1;" x1="0" x2="1224.7402" y1="1297.5039" y2="1297.5039"/><line style="stroke:#000000;stroke-width:1;" x1="0" x2="1224.7402" y1="1300.5039" y2="1300.5039"/><rect fill="#EEEEEE" height="23.1328" style="stroke:#000000;stroke-width:2;" width="161.3862" x="531.677" y="1286.9375"/><text fill="#000000" font-family="sans-serif" font-size="13" font-weight="bold" lengthAdjust="spacing" textLength="142.8604" x="537.677" y="1303.0044">Answer Submission</text><g class="message" data-participant-1="S" data-participant-2="UI"><polygon fill="#181818" points="186.0435,1337.2031,196.0435,1341.2031,186.0435,1345.2031,190.0435,1341.2031" style="stroke:#181818;stroke-width:1;"/><line style="stroke:#181818;stroke-width:1;" x1="39.5557" x2="192.0435" y1="1341.2031" y2="1341.2031"/><text fill="#000000" font-family="sans-serif" font-size="13" lengthAdjust="spacing" textLength="134.4878" x="46.5557" y="1336.1372">34: submitAnswers()</text></g><g class="message" data-participant-1="UI" data-participant-2="SESSION"><polygon fill="#181818" points="417.8545,1366.3359,427.8545,1370.3359,417.8545,1374.3359,421.8545,1370.3359" style="stroke:#181818;stroke-width:1;"/><line style="stroke:#181818;stroke-width:1;" x1="198.0435" x2="423.8545" y1="1370.3359" y2="1370.3359"/><text fill="#000000" font-family="sans-serif" font-size="13" lengthAdjust="spacing" textLength="65.6284" x="205.0435" y="1365.27">35: save()</text></g><g class="message" data-participant-1="SESSION" data-participant-2="DB"><polygon fill="#181818" points="944.5151,1395.4688,954.5151,1399.4688,944.5151,1403.4688,948.5151,1399.4688" style="stroke:#181818;stroke-width:1;"/><line style="stroke:#181818;stroke-width:1;" x1="429.8545" x2="950.5151" y1="1399.4688" y2="1399.4688"/><text fill="#000000" font-family="sans-serif" font-size="13" lengthAdjust="spacing" textLength="68.3643" x="436.8545" y="1394.4028">36: store()</text></g><g class="message" data-participant-1="DB" data-participant-2="SESSION"><polygon fill="#181818" points="440.8545,1424.6016,430.8545,1428.6016,440.8545,1432.6016,436.8545,1428.6016" style="stroke:#181818;stroke-width:1;"/><line style="stroke:#181818;stroke-width:1;stroke-dasharray:2,2;" x1="434.8545" x2="955.5151" y1="1428.6016" y2="1428.6016"/><text fill="#000000" font-family="sans-serif" font-size="13" lengthAdjust="spacing" textLength="63.7368" x="446.8545" y="1423.5356">37: saved</text></g><rect fill="#EEEEEE" height="3" style="stroke:#EEEEEE;stroke-width:1;" width="1224.7402" x="0" y="1457.168"/><line style="stroke:#000000;stroke-width:1;" x1="0" x2="1224.7402" y1="1457.168" y2="1457.168"/><line style="stroke:#000000;stroke-width:1;" x1="0" x2="1224.7402" y1="1460.168" y2="1460.168"/><rect fill="#EEEEEE" height="23.1328" style="stroke:#000000;stroke-width:2;" width="146.0884" x="539.3259" y="1446.6016"/><text fill="#000000" font-family="sans-serif" font-size="13" font-weight="bold" lengthAdjust="spacing" textLength="127.5625" x="545.3259" y="1462.6685">Exam Completion</text><g class="message" data-participant-1="UI" data-participant-2="SESSION"><polygon fill="#181818" points="417.8545,1496.8672,427.8545,1500.8672,417.8545,1504.8672,421.8545,1500.8672" style="stroke:#181818;stroke-width:1;"/><line style="stroke:#181818;stroke-width:1;" x1="198.0435" x2="423.8545" y1="1500.8672" y2="1500.8672"/><text fill="#000000" font-family="sans-serif" font-size="13" lengthAdjust="spacing" textLength="96.2241" x="205.0435" y="1495.8013">38: endExam()</text></g><g class="message" data-participant-1="SESSION" data-participant-2="DB"><polygon fill="#181818" points="944.5151,1526,954.5151,1530,944.5151,1534,948.5151,1530" style="stroke:#181818;stroke-width:1;"/><line style="stroke:#181818;stroke-width:1;" x1="429.8545" x2="950.5151" y1="1530" y2="1530"/><text fill="#000000" font-family="sans-serif" font-size="13" lengthAdjust="spacing" textLength="118.2822" x="436.8545" y="1524.9341">39: closeSession()</text></g><g class="message" data-participant-1="SESSION" data-participant-2="DB"><polygon fill="#181818" points="944.5151,1555.1328,954.5151,1559.1328,944.5151,1563.1328,948.5151,1559.1328" style="stroke:#181818;stroke-width:1;"/><line style="stroke:#181818;stroke-width:1;" x1="429.8545" x2="950.5151" y1="1559.1328" y2="1559.1328"/><text fill="#000000" font-family="sans-serif" font-size="13" lengthAdjust="spacing" textLength="81.6372" x="436.8545" y="1554.0669">40: finalize()</text></g><rect fill="#EEEEEE" height="3" style="stroke:#EEEEEE;stroke-width:1;" width="1224.7402" x="0" y="1587.6992"/><line style="stroke:#000000;stroke-width:1;" x1="0" x2="1224.7402" y1="1587.6992" y2="1587.6992"/><line style="stroke:#000000;stroke-width:1;" x1="0" x2="1224.7402" y1="1590.6992" y2="1590.6992"/><rect fill="#EEEEEE" height="23.1328" style="stroke:#000000;stroke-width:2;" width="154.3403" x="535.2" y="1577.1328"/><text fill="#000000" font-family="sans-serif" font-size="13" font-weight="bold" lengthAdjust="spacing" textLength="135.8145" x="541.2" y="1593.1997">Report Generation</text><g class="message" data-participant-1="PROC" data-participant-2="UI"><polygon fill="#181818" points="209.0435,1627.3984,199.0435,1631.3984,209.0435,1635.3984,205.0435,1631.3984" style="stroke:#181818;stroke-width:1;"/><line style="stroke:#181818;stroke-width:1;" x1="203.0435" x2="1186.6045" y1="1631.3984" y2="1631.3984"/><text fill="#000000" font-family="sans-serif" font-size="13" lengthAdjust="spacing" textLength="128.5781" x="215.0435" y="1626.3325">41: requestReport()</text></g><g class="message" data-participant-1="UI" data-participant-2="SESSION"><polygon fill="#181818" points="417.8545,1656.5313,427.8545,1660.5313,417.8545,1664.5313,421.8545,1660.5313" style="stroke:#181818;stroke-width:1;"/><line style="stroke:#181818;stroke-width:1;" x1="198.0435" x2="423.8545" y1="1660.5313" y2="1660.5313"/><text fill="#000000" font-family="sans-serif" font-size="13" lengthAdjust="spacing" textLength="94.0913" x="205.0435" y="1655.4653">42: generate()</text></g><g class="message" data-participant-1="SESSION" data-participant-2="DB"><polygon fill="#181818" points="944.5151,1685.6641,954.5151,1689.6641,944.5151,1693.6641,948.5151,1689.6641" style="stroke:#181818;stroke-width:1;"/><line style="stroke:#181818;stroke-width:1;" x1="429.8545" x2="950.5151" y1="1689.6641" y2="1689.6641"/><text fill="#000000" font-family="sans-serif" font-size="13" lengthAdjust="spacing" textLength="120.2563" x="436.8545" y="1684.5981">43: getViolations()</text></g><g class="message" data-participant-1="DB" data-participant-2="SESSION"><polygon fill="#181818" points="440.8545,1714.7969,430.8545,1718.7969,440.8545,1722.7969,436.8545,1718.7969" style="stroke:#181818;stroke-width:1;"/><line style="stroke:#181818;stroke-width:1;stroke-dasharray:2,2;" x1="434.8545" x2="955.5151" y1="1718.7969" y2="1718.7969"/><text fill="#000000" font-family="sans-serif" font-size="13" lengthAdjust="spacing" textLength="97.7095" x="446.8545" y="1713.731">44: violations[]</text></g><g class="message" data-participant-1="SESSION" data-participant-2="FS"><polygon fill="#181818" points="1045.6177,1743.9297,1055.6177,1747.9297,1045.6177,1751.9297,1049.6177,1747.9297" style="stroke:#181818;stroke-width:1;"/><line style="stroke:#181818;stroke-width:1;" x1="429.8545" x2="1051.6177" y1="1747.9297" y2="1747.9297"/><text fill="#000000" font-family="sans-serif" font-size="13" lengthAdjust="spacing" textLength="90.9556" x="436.8545" y="1742.8638">45: savePDF()</text></g><g class="message" data-participant-1="FS" data-participant-2="PROC"><polygon fill="#181818" points="1175.6045,1773.0625,1185.6045,1777.0625,1175.6045,1781.0625,1179.6045,1777.0625" style="stroke:#181818;stroke-width:1;"/><line style="stroke:#181818;stroke-width:1;stroke-dasharray:2,2;" x1="1057.6177" x2="1181.6045" y1="1777.0625" y2="1777.0625"/><text fill="#000000" font-family="sans-serif" font-size="13" lengthAdjust="spacing" textLength="105.9868" x="1064.6177" y="1771.9966">46: reportReady</text></g><path d="M336,1790.0625 L336,1845.0625 L440,1845.0625 L440,1800.0625 L430,1790.0625 L336,1790.0625" fill="#FEFFDD" style="stroke:#181818;stroke-width:0.5;"/><path d="M430,1790.0625 L430,1800.0625 L440,1800.0625 L430,1790.0625" fill="#FEFFDD" style="stroke:#181818;stroke-width:0.5;"/><text fill="#000000" font-family="sans-serif" font-size="13" font-weight="bold" lengthAdjust="spacing" textLength="67.355" x="342" y="1807.1294">JWT Auth</text><text fill="#000000" font-family="sans-serif" font-size="13" lengthAdjust="spacing" textLength="62.5435" x="342" y="1822.2622">No admin</text><text fill="#000000" font-family="sans-serif" font-size="13" lengthAdjust="spacing" textLength="83.5923" x="342" y="1837.395">Token-based</text><path d="M667,1855.4609 L667,1925.4609 L779,1925.4609 L779,1865.4609 L769,1855.4609 L667,1855.4609" fill="#FEFFDD" style="stroke:#181818;stroke-width:0.5;"/><path d="M769,1855.4609 L769,1865.4609 L779,1865.4609 L769,1855.4609" fill="#FEFFDD" style="stroke:#181818;stroke-width:0.5;"/><text fill="#000000" font-family="sans-serif" font-size="13" font-weight="bold" lengthAdjust="spacing" textLength="71.2017" x="673" y="1872.5278">Detection</text><text fill="#000000" font-family="sans-serif" font-size="13" lengthAdjust="spacing" textLength="91.8633" x="673" y="1887.6606">YuNet (ONNX)</text><text fill="#000000" font-family="sans-serif" font-size="13" lengthAdjust="spacing" textLength="64.8413" x="673" y="1902.7935">Caffe SSD</text><text fill="#000000" font-family="sans-serif" font-size="13" lengthAdjust="spacing" textLength="90.3652" x="673" y="1917.9263">Haar Cascade</text><path d="M789,1935.9922 L789,2005.9922 L917,2005.9922 L917,1945.9922 L907,1935.9922 L789,1935.9922" fill="#FEFFDD" style="stroke:#181818;stroke-width:0.5;"/><path d="M907,1935.9922 L907,1945.9922 L917,1945.9922 L907,1935.9922" fill="#FEFFDD" style="stroke:#181818;stroke-width:0.5;"/><text fill="#000000" font-family="sans-serif" font-size="13" font-weight="bold" lengthAdjust="spacing" textLength="87.3374" x="795" y="1953.0591">Recognition</text><text fill="#000000" font-family="sans-serif" font-size="13" lengthAdjust="spacing" textLength="107.6372" x="795" y="1968.1919">face_recognition</text><text fill="#000000" font-family="sans-serif" font-size="13" lengthAdjust="spacing" textLength="77.2192" x="795" y="1983.3247">library used</text><text fill="#000000" font-family="sans-serif" font-size="13" lengthAdjust="spacing" textLength="71.2144" x="795" y="1998.4575">(not YOLO)</text><path d="M961,2016.5234 L961,2071.5234 L1069,2071.5234 L1069,2026.5234 L1059,2016.5234 L961,2016.5234" fill="#FEFFDD" style="stroke:#181818;stroke-width:0.5;"/><path d="M1059,2016.5234 L1059,2026.5234 L1069,2026.5234 L1059,2016.5234" fill="#FEFFDD" style="stroke:#181818;stroke-width:0.5;"/><text fill="#000000" font-family="sans-serif" font-size="13" font-weight="bold" lengthAdjust="spacing" textLength="48.1851" x="967" y="2033.5903">SQLite</text><text fill="#000000" font-family="sans-serif" font-size="13" lengthAdjust="spacing" textLength="79.6948" x="967" y="2048.7231">users.db file</text><text fill="#000000" font-family="sans-serif" font-size="13" lengthAdjust="spacing" textLength="87.439" x="967" y="2063.856">Local storage</text><!--SRC=[TPLjRo8t58M_pw-mLbeLecMr0KfIf5HAW6oe0gHCadRLhIepOuYr7flrU99cVttFjUS5AFa4utjzVFtu7jj9fmGR6QNuobZkfD5iBFd6yenrsEHV_CGYpsduMfcNAFg9FUI2vU9x8NGYM5hcvkuLEcjZsKeu9onJKWkMSSqt8XFQHLjkdKpabcl7tiMkI37uZl6SnVkXXwaVVPZk3__snpsxBDoJ3ru-tDyS29OrpZOsY4xYUBgOxoVDZ9REX8JPOV2QOpTZuKJYlkhMwB7RzddNbwF9aSIbICm6URToPRbz3RdBoMZnUJ_viaYb-QedUWCSPUtZWz9_lvKEIr_vyFZgO3K9h36g1iTGq06lEskIQbDtoyKeYYukF2dmbKauqBidZZExk8XYrlaLQDcGdGwPCYYg9J8krGUsVKdR4IA84rraT8UCDpAYrOvy00dZAuHxG_Oih5o_eXqiWXZiD9FxGrPW_94hcKRxkZyFMSAthh22IEx8NiU83gWkdavqObAfDmXZU4VuRCX46Vku_QRgoPuzukTGDna8LUeXiAFm2vBEtgCrNV9KJg-XV1eoQZHdlWdjGNe3JD4s4Zlv4MY2OzXGsMGq4JXpXsEXV2nQHIfOfu2PM06CPQCsm7P4W3GFuUdu_n90kX5-WP7H3iVIQ8JY0HQcpAd6t1TVzZjGmSEks3QLpyA20uB9LqgCU2OiRxNtmsTLU2OJQxPFHXFGMIYAZ459v-70PYOLAgVZel5E8mBScOynx3zz3TEhchkVA5fNQGBqfU2gSo-poeybzAPvky3zB5DXOWVHRA_gBb2lSIE9_A3IBl2cNeyweocrwPqk45iojfO_zbkdb0RXDUQEkUFHRZa3iWgCVgoSipBc9vKLuGwW4D3XVbIlVZ7Q-ACqAlJO3TUf8YJODsNl506WpqQY2hyNaHuIxn7JGZcvLTu3DOTWss3yUgNcGFrMUkHw9QnhnkbIeGZmQUDW-BBOIvs_u9wFYrKcm-MxTqOzmCmfva9YNdTNq_4z0CtvipZYcDw076MiEEQKtbcObpOU7S7qIhpbpzuvjNBwXZjxG9eea- -Oyp2b3wXhgUaIg0vhARR6ElPPQ67hYy73gX3qJwcVl2T3yX44_IxPsaiSmz3lUTVNnvKVmz7lansgZB_-tbNnbsg_v7mtlcukrF9S-mCgagfRUdz6E6J1hDmyEMRMuQbbxEIaUe1FJl0vDuodcTJuUqztPMU51oQDW9XwH1oA-4UKH6e_UvKlnLmurbhCvt-syJdYwpNUkdYC_pUSMmpa2K_5cxBXlINTPN1jhKmk_SSsWnXIuQMcPod5PmjIxClYTj5-KnvFCMc7zzdBqfEMVqnNQ0Kby7rh4gvyc-9rhdN-0m00]--></g></svg>