<svg xmlns="http://www.w3.org/2000/svg" xmlns:xlink="http://www.w3.org/1999/xlink" contentStyleType="text/css" data-diagram-type="DESCRIPTION" height="1298px" preserveAspectRatio="none" style="width:2468px;height:1298px;background:#FFFFFF;" version="1.1" viewBox="0 0 2468 1298" width="2468px" zoomAndPan="magnify"><title>Component Diagram - AI-Based Online Exam Proctoring System</title><defs/><g><g class="title" data-source-line="1"><text fill="#000000" font-family="sans-serif" font-size="14" font-weight="bold" lengthAdjust="spacing" textLength="501.7783" x="976.1744" y="22.9951">Component Diagram - AI-Based Online Exam Proctoring System</text></g><!--cluster Exam Proctoring System--><g class="cluster" data-entity="Exam Proctoring System" data-source-line="6" data-uid="ent0004" id="cluster_Exam Proctoring System"><path d="M9.4,182.0969 L204.1783,182.0969 A3.75,3.75 0 0 1 206.6783,184.5969 L213.6783,204.3937 L1766.4,204.3937 A2.5,2.5 0 0 1 1768.9,206.8937 L1768.9,1288.5269 A2.5,2.5 0 0 1 1766.4,1291.0269 L9.4,1291.0269 A2.5,2.5 0 0 1 6.9,1288.5269 L6.9,184.5969 A2.5,2.5 0 0 1 9.4,182.0969" fill="none" style="stroke:#000000;stroke-width:1.5;"/><line style="stroke:#000000;stroke-width:1.5;" x1="6.9" x2="213.6783" y1="204.3937" y2="204.3937"/><text fill="#000000" font-family="sans-serif" font-size="14" font-weight="bold" lengthAdjust="spacing" textLength="193.7783" x="10.9" y="197.092">Exam Proctoring System</text></g><!--cluster Frontend Layer--><g class="cluster" data-entity="Frontend Layer" data-source-line="8" data-uid="ent0005" id="cluster_Frontend Layer"><path d="M1254.4,225.0969 L1376.3961,225.0969 A3.75,3.75 0 0 1 1378.8961,227.5969 L1385.8961,247.3937 L1742.4,247.3937 A2.5,2.5 0 0 1 1744.9,249.8937 L1744.9,319.8969 A2.5,2.5 0 0 1 1742.4,322.3969 L1254.4,322.3969 A2.5,2.5 0 0 1 1251.9,319.8969 L1251.9,227.5969 A2.5,2.5 0 0 1 1254.4,225.0969" fill="none" style="stroke:#000000;stroke-width:1.5;"/><line style="stroke:#000000;stroke-width:1.5;" x1="1251.9" x2="1385.8961" y1="247.3937" y2="247.3937"/><text fill="#000000" font-family="sans-serif" font-size="14" font-weight="bold" lengthAdjust="spacing" textLength="120.9961" x="1255.9" y="240.092">Frontend Layer</text></g><!--cluster Backend Layer (Flask)--><g class="cluster" data-entity="Backend Layer .Flask." data-source-line="13" data-uid="ent0008" id="cluster_Backend Layer .Flask."><path d="M572.4,638.5469 L748.5025,638.5469 A3.75,3.75 0 0 1 751.0025,641.0469 L758.0025,660.8438 L1712.4,660.8438 A2.5,2.5 0 0 1 1714.9,663.3438 L1714.9,733.3369 A2.5,2.5 0 0 1 1712.4,735.8369 L572.4,735.8369 A2.5,2.5 0 0 1 569.9,733.3369 L569.9,641.0469 A2.5,2.5 0 0 1 572.4,638.5469" fill="none" style="stroke:#000000;stroke-width:1.5;"/><line style="stroke:#000000;stroke-width:1.5;" x1="569.9" x2="758.0025" y1="660.8438" y2="660.8438"/><text fill="#000000" font-family="sans-serif" font-size="14" font-weight="bold" lengthAdjust="spacing" textLength="175.1025" x="573.9" y="653.542">Backend Layer (Flask)</text></g><!--cluster AI Processing Layer--><g class="cluster" data-entity="AI Processing Layer" data-source-line="21" data-uid="ent0014" id="cluster_AI Processing Layer"><path d="M504.4,784.8369 L661.1158,784.8369 A3.75,3.75 0 0 1 663.6158,787.3369 L670.6158,807.1338 L1223.4,807.1338 A2.5,2.5 0 0 1 1225.9,809.6338 L1225.9,1002.9369 A2.5,2.5 0 0 1 1223.4,1005.4369 L504.4,1005.4369 A2.5,2.5 0 0 1 501.9,1002.9369 L501.9,787.3369 A2.5,2.5 0 0 1 504.4,784.8369" fill="none" style="stroke:#000000;stroke-width:1.5;"/><line style="stroke:#000000;stroke-width:1.5;" x1="501.9" x2="670.6158" y1="807.1338" y2="807.1338"/><text fill="#000000" font-family="sans-serif" font-size="14" font-weight="bold" lengthAdjust="spacing" textLength="155.7158" x="505.9" y="799.832">AI Processing Layer</text></g><!--cluster Data Layer--><g class="cluster" data-entity="Data Layer" data-source-line="28" data-uid="ent0019" id="cluster_Data Layer"><path d="M797.4,1054.4369 L884.3756,1054.4369 A3.75,3.75 0 0 1 886.8756,1056.9369 L893.8756,1076.7337 L1547.4,1076.7337 A2.5,2.5 0 0 1 1549.9,1079.2337 L1549.9,1264.5269 A2.5,2.5 0 0 1 1547.4,1267.0269 L797.4,1267.0269 A2.5,2.5 0 0 1 794.9,1264.5269 L794.9,1056.9369 A2.5,2.5 0 0 1 797.4,1054.4369" fill="none" style="stroke:#000000;stroke-width:1.5;"/><line style="stroke:#000000;stroke-width:1.5;" x1="794.9" x2="893.8756" y1="1076.7337" y2="1076.7337"/><text fill="#000000" font-family="sans-serif" font-size="14" font-weight="bold" lengthAdjust="spacing" textLength="85.9756" x="798.9" y="1069.432">Data Layer</text></g><!--cluster External Services--><g class="cluster" data-entity="External Services" data-source-line="39" data-uid="ent0026" id="cluster_External Services"><path d="M1177.4,375.2469 L1315.7066,375.2469 A3.75,3.75 0 0 1 1318.2066,377.7469 L1325.2066,397.5438 L1372.4,397.5438 A2.5,2.5 0 0 1 1374.9,400.0438 L1374.9,583.1869 A2.5,2.5 0 0 1 1372.4,585.6869 L1177.4,585.6869 A2.5,2.5 0 0 1 1174.9,583.1869 L1174.9,377.7469 A2.5,2.5 0 0 1 1177.4,375.2469" fill="none" style="stroke:#000000;stroke-width:1.5;"/><line style="stroke:#000000;stroke-width:1.5;" x1="1174.9" x2="1325.2066" y1="397.5438" y2="397.5438"/><text fill="#000000" font-family="sans-serif" font-size="14" font-weight="bold" lengthAdjust="spacing" textLength="137.3066" x="1178.9" y="390.242">External Services</text></g><!--entity SWI--><g class="entity" data-entity="SWI" data-source-line="9" data-uid="ent0006" id="entity_SWI"><rect fill="#F1F1F1" height="46.2969" rx="2.5" ry="2.5" style="stroke:#181818;stroke-width:0.5;" width="198.0332" x="1267.88" y="260.0969"/><rect fill="#F1F1F1" height="10" style="stroke:#181818;stroke-width:0.5;" width="15" x="1445.9132" y="265.0969"/><rect fill="#F1F1F1" height="2" style="stroke:#181818;stroke-width:0.5;" width="4" x="1443.9132" y="267.0969"/><rect fill="#F1F1F1" height="2" style="stroke:#181818;stroke-width:0.5;" width="4" x="1443.9132" y="271.0969"/><text fill="#000000" font-family="sans-serif" font-size="14" lengthAdjust="spacing" textLength="158.0332" x="1282.88" y="293.092">Student Web Interface</text></g><!--entity PM--><g class="entity" data-entity="PM" data-source-line="10" data-uid="ent0007" id="entity_PM"><rect fill="#F1F1F1" height="46.2969" rx="2.5" ry="2.5" style="stroke:#181818;stroke-width:0.5;" width="228.5898" x="1500.61" y="260.0969"/><rect fill="#F1F1F1" height="10" style="stroke:#181818;stroke-width:0.5;" width="15" x="1709.1998" y="265.0969"/><rect fill="#F1F1F1" height="2" style="stroke:#181818;stroke-width:0.5;" width="4" x="1707.1998" y="267.0969"/><rect fill="#F1F1F1" height="2" style="stroke:#181818;stroke-width:0.5;" width="4" x="1707.1998" y="271.0969"/><text fill="#000000" font-family="sans-serif" font-size="14" lengthAdjust="spacing" textLength="188.5898" x="1515.61" y="293.092">Proctor Monitor Dashboard</text></g><!--entity AUTH--><g class="entity" data-entity="AUTH" data-source-line="14" data-uid="ent0009" id="entity_AUTH"><rect fill="#F1F1F1" height="46.2969" rx="2.5" ry="2.5" style="stroke:#181818;stroke-width:0.5;" width="229.9365" x="585.93" y="673.5469"/><rect fill="#F1F1F1" height="10" style="stroke:#181818;stroke-width:0.5;" width="15" x="795.8665" y="678.5469"/><rect fill="#F1F1F1" height="2" style="stroke:#181818;stroke-width:0.5;" width="4" x="793.8665" y="680.5469"/><rect fill="#F1F1F1" height="2" style="stroke:#181818;stroke-width:0.5;" width="4" x="793.8665" y="684.5469"/><text fill="#000000" font-family="sans-serif" font-size="14" lengthAdjust="spacing" textLength="189.9365" x="600.93" y="706.542">JWT Authentication Service</text></g><!--entity EMS--><g class="entity" data-entity="EMS" data-source-line="15" data-uid="ent0010" id="entity_EMS"><rect fill="#F1F1F1" height="46.2969" rx="2.5" ry="2.5" style="stroke:#181818;stroke-width:0.5;" width="232.2129" x="850.79" y="673.5469"/><rect fill="#F1F1F1" height="10" style="stroke:#181818;stroke-width:0.5;" width="15" x="1063.0029" y="678.5469"/><rect fill="#F1F1F1" height="2" style="stroke:#181818;stroke-width:0.5;" width="4" x="1061.0029" y="680.5469"/><rect fill="#F1F1F1" height="2" style="stroke:#181818;stroke-width:0.5;" width="4" x="1061.0029" y="684.5469"/><text fill="#000000" font-family="sans-serif" font-size="14" lengthAdjust="spacing" textLength="192.2129" x="865.79" y="706.542">Exam Management Service</text></g><!--entity MC--><g class="entity" data-entity="MC" data-source-line="16" data-uid="ent0011" id="entity_MC"><rect fill="#F1F1F1" height="46.2969" rx="2.5" ry="2.5" style="stroke:#181818;stroke-width:0.5;" width="188.4902" x="1117.65" y="673.5469"/><rect fill="#F1F1F1" height="10" style="stroke:#181818;stroke-width:0.5;" width="15" x="1286.1402" y="678.5469"/><rect fill="#F1F1F1" height="2" style="stroke:#181818;stroke-width:0.5;" width="4" x="1284.1402" y="680.5469"/><rect fill="#F1F1F1" height="2" style="stroke:#181818;stroke-width:0.5;" width="4" x="1284.1402" y="684.5469"/><text fill="#000000" font-family="sans-serif" font-size="14" lengthAdjust="spacing" textLength="148.4902" x="1132.65" y="706.542">Monitoring Controller</text></g><!--entity RG--><g class="entity" data-entity="RG" data-source-line="17" data-uid="ent0012" id="entity_RG"><rect fill="#F1F1F1" height="46.2969" rx="2.5" ry="2.5" style="stroke:#181818;stroke-width:0.5;" width="162.582" x="1341.61" y="673.5469"/><rect fill="#F1F1F1" height="10" style="stroke:#181818;stroke-width:0.5;" width="15" x="1484.192" y="678.5469"/><rect fill="#F1F1F1" height="2" style="stroke:#181818;stroke-width:0.5;" width="4" x="1482.192" y="680.5469"/><rect fill="#F1F1F1" height="2" style="stroke:#181818;stroke-width:0.5;" width="4" x="1482.192" y="684.5469"/><text fill="#000000" font-family="sans-serif" font-size="14" lengthAdjust="spacing" textLength="122.582" x="1356.61" y="706.542">Report Generator</text></g><!--entity SM--><g class="entity" data-entity="SM" data-source-line="18" data-uid="ent0013" id="entity_SM"><rect fill="#F1F1F1" height="46.2969" rx="2.5" ry="2.5" style="stroke:#181818;stroke-width:0.5;" width="159.2324" x="1539.28" y="673.5469"/><rect fill="#F1F1F1" height="10" style="stroke:#181818;stroke-width:0.5;" width="15" x="1678.5124" y="678.5469"/><rect fill="#F1F1F1" height="2" style="stroke:#181818;stroke-width:0.5;" width="4" x="1676.5124" y="680.5469"/><rect fill="#F1F1F1" height="2" style="stroke:#181818;stroke-width:0.5;" width="4" x="1676.5124" y="684.5469"/><text fill="#000000" font-family="sans-serif" font-size="14" lengthAdjust="spacing" textLength="119.2324" x="1554.28" y="706.542">Session Manager</text></g><!--entity FDE--><g class="entity" data-entity="FDE" data-source-line="22" data-uid="ent0015" id="entity_FDE"><rect fill="#F1F1F1" height="46.2969" rx="2.5" ry="2.5" style="stroke:#181818;stroke-width:0.5;" width="197.835" x="517.98" y="819.8369"/><rect fill="#F1F1F1" height="10" style="stroke:#181818;stroke-width:0.5;" width="15" x="695.815" y="824.8369"/><rect fill="#F1F1F1" height="2" style="stroke:#181818;stroke-width:0.5;" width="4" x="693.815" y="826.8369"/><rect fill="#F1F1F1" height="2" style="stroke:#181818;stroke-width:0.5;" width="4" x="693.815" y="830.8369"/><text fill="#000000" font-family="sans-serif" font-size="14" lengthAdjust="spacing" textLength="157.835" x="532.98" y="852.832">Face Detection Engine</text></g><!--entity FRE--><g class="entity" data-entity="FRE" data-source-line="23" data-uid="ent0016" id="entity_FRE"><rect fill="#F1F1F1" height="46.2969" rx="2.5" ry="2.5" style="stroke:#181818;stroke-width:0.5;" width="212.8945" x="750.45" y="819.8369"/><rect fill="#F1F1F1" height="10" style="stroke:#181818;stroke-width:0.5;" width="15" x="943.3445" y="824.8369"/><rect fill="#F1F1F1" height="2" style="stroke:#181818;stroke-width:0.5;" width="4" x="941.3445" y="826.8369"/><rect fill="#F1F1F1" height="2" style="stroke:#181818;stroke-width:0.5;" width="4" x="941.3445" y="830.8369"/><text fill="#000000" font-family="sans-serif" font-size="14" lengthAdjust="spacing" textLength="172.8945" x="765.45" y="852.832">Face Recognition Engine</text></g><!--entity APE--><g class="entity" data-entity="APE" data-source-line="24" data-uid="ent0017" id="entity_APE"><rect fill="#F1F1F1" height="46.2969" rx="2.5" ry="2.5" style="stroke:#181818;stroke-width:0.5;" width="211.9854" x="997.91" y="819.8369"/><rect fill="#F1F1F1" height="10" style="stroke:#181818;stroke-width:0.5;" width="15" x="1189.8954" y="824.8369"/><rect fill="#F1F1F1" height="2" style="stroke:#181818;stroke-width:0.5;" width="4" x="1187.8954" y="826.8369"/><rect fill="#F1F1F1" height="2" style="stroke:#181818;stroke-width:0.5;" width="4" x="1187.8954" y="830.8369"/><text fill="#000000" font-family="sans-serif" font-size="14" lengthAdjust="spacing" textLength="171.9854" x="1012.91" y="852.832">Audio Processing Engine</text></g><!--entity VDE--><g class="entity" data-entity="VDE" data-source-line="25" data-uid="ent0018" id="entity_VDE"><rect fill="#F1F1F1" height="46.2969" rx="2.5" ry="2.5" style="stroke:#181818;stroke-width:0.5;" width="226.2109" x="743.79" y="943.1369"/><rect fill="#F1F1F1" height="10" style="stroke:#181818;stroke-width:0.5;" width="15" x="950.0009" y="948.1369"/><rect fill="#F1F1F1" height="2" style="stroke:#181818;stroke-width:0.5;" width="4" x="948.0009" y="950.1369"/><rect fill="#F1F1F1" height="2" style="stroke:#181818;stroke-width:0.5;" width="4" x="948.0009" y="954.1369"/><text fill="#000000" font-family="sans-serif" font-size="14" lengthAdjust="spacing" textLength="186.2109" x="758.79" y="976.132">Violation Detection Engine</text></g><!--entity DB--><g class="entity" data-entity="DB" data-source-line="29" data-uid="ent0020" id="entity_DB"><path d="M1397.43,1103.9369 C1397.43,1093.9369 1465.9046,1093.9369 1465.9046,1093.9369 C1465.9046,1093.9369 1534.3792,1093.9369 1534.3792,1103.9369 L1534.3792,1129.2338 C1534.3792,1139.2338 1465.9046,1139.2338 1465.9046,1139.2338 C1465.9046,1139.2338 1397.43,1139.2338 1397.43,1129.2338 L1397.43,1103.9369" fill="#F1F1F1" style="stroke:#181818;stroke-width:0.5;"/><path d="M1397.43,1103.9369 C1397.43,1113.9369 1465.9046,1113.9369 1465.9046,1113.9369 C1465.9046,1113.9369 1534.3792,1113.9369 1534.3792,1103.9369" fill="none" style="stroke:#181818;stroke-width:0.5;"/><text fill="#000000" font-family="sans-serif" font-size="14" lengthAdjust="spacing" textLength="116.9492" x="1407.43" y="1130.932">SQLite Database</text></g><!--entity UR--><g class="entity" data-entity="UR" data-source-line="30" data-uid="ent0021" id="entity_UR"><rect fill="#F1F1F1" height="46.2969" rx="2.5" ry="2.5" style="stroke:#181818;stroke-width:0.5;" width="151.4326" x="811.18" y="1093.4369"/><rect fill="#F1F1F1" height="10" style="stroke:#181818;stroke-width:0.5;" width="15" x="942.6126" y="1098.4369"/><rect fill="#F1F1F1" height="2" style="stroke:#181818;stroke-width:0.5;" width="4" x="940.6126" y="1100.4369"/><rect fill="#F1F1F1" height="2" style="stroke:#181818;stroke-width:0.5;" width="4" x="940.6126" y="1104.4369"/><text fill="#000000" font-family="sans-serif" font-size="14" lengthAdjust="spacing" textLength="111.4326" x="826.18" y="1126.432">User Repository</text></g><!--entity ER--><g class="entity" data-entity="ER" data-source-line="31" data-uid="ent0022" id="entity_ER"><rect fill="#F1F1F1" height="46.2969" rx="2.5" ry="2.5" style="stroke:#181818;stroke-width:0.5;" width="158.8701" x="997.46" y="1093.4369"/><rect fill="#F1F1F1" height="10" style="stroke:#181818;stroke-width:0.5;" width="15" x="1136.3301" y="1098.4369"/><rect fill="#F1F1F1" height="2" style="stroke:#181818;stroke-width:0.5;" width="4" x="1134.3301" y="1100.4369"/><rect fill="#F1F1F1" height="2" style="stroke:#181818;stroke-width:0.5;" width="4" x="1134.3301" y="1104.4369"/><text fill="#000000" font-family="sans-serif" font-size="14" lengthAdjust="spacing" textLength="118.8701" x="1012.46" y="1126.432">Exam Repository</text></g><!--entity SR--><g class="entity" data-entity="SR" data-source-line="32" data-uid="ent0023" id="entity_SR"><rect fill="#F1F1F1" height="46.2969" rx="2.5" ry="2.5" style="stroke:#181818;stroke-width:0.5;" width="172.9385" x="810.43" y="1204.7269"/><rect fill="#F1F1F1" height="10" style="stroke:#181818;stroke-width:0.5;" width="15" x="963.3685" y="1209.7269"/><rect fill="#F1F1F1" height="2" style="stroke:#181818;stroke-width:0.5;" width="4" x="961.3685" y="1211.7269"/><rect fill="#F1F1F1" height="2" style="stroke:#181818;stroke-width:0.5;" width="4" x="961.3685" y="1215.7269"/><text fill="#000000" font-family="sans-serif" font-size="14" lengthAdjust="spacing" textLength="132.9385" x="825.43" y="1237.722">Session Repository</text></g><!--entity VR--><g class="entity" data-entity="VR" data-source-line="33" data-uid="ent0024" id="entity_VR"><rect fill="#F1F1F1" height="46.2969" rx="2.5" ry="2.5" style="stroke:#181818;stroke-width:0.5;" width="210.543" x="1018.63" y="1204.7269"/><rect fill="#F1F1F1" height="10" style="stroke:#181818;stroke-width:0.5;" width="15" x="1209.173" y="1209.7269"/><rect fill="#F1F1F1" height="2" style="stroke:#181818;stroke-width:0.5;" width="4" x="1207.173" y="1211.7269"/><rect fill="#F1F1F1" height="2" style="stroke:#181818;stroke-width:0.5;" width="4" x="1207.173" y="1215.7269"/><text fill="#000000" font-family="sans-serif" font-size="14" lengthAdjust="spacing" textLength="170.543" x="1033.63" y="1237.722">Violation Log Repository</text></g><!--entity FS--><g class="entity" data-entity="FS" data-source-line="35" data-uid="ent0025" id="entity_FS"><path d="M1194.24,1089.4369 L1235.24,1089.4369 A3.75,3.75 0 0 1 1237.74,1091.9369 L1244.74,1110.4369 L1359.5681,1110.4369 A2.5,2.5 0 0 1 1362.0681,1112.9369 L1362.0681,1141.2338 A2.5,2.5 0 0 1 1359.5681,1143.7338 L1194.24,1143.7338 A2.5,2.5 0 0 1 1191.74,1141.2338 L1191.74,1091.9369 A2.5,2.5 0 0 1 1194.24,1089.4369" fill="#F1F1F1" style="stroke:#181818;stroke-width:0.5;"/><line style="stroke:#181818;stroke-width:0.5;" x1="1191.74" x2="1244.74" y1="1110.4369" y2="1110.4369"/><text fill="#000000" font-family="sans-serif" font-size="14" lengthAdjust="spacing" textLength="140.3281" x="1201.74" y="1130.432">File Storage System</text></g><!--entity BA--><g class="entity" data-entity="BA" data-source-line="40" data-uid="ent0027" id="entity_BA"><rect fill="#F1F1F1" height="46.2969" rx="2.5" ry="2.5" style="stroke:#181818;stroke-width:0.5;" width="130.9316" x="1223.43" y="410.2469"/><rect fill="#F1F1F1" height="10" style="stroke:#181818;stroke-width:0.5;" width="15" x="1334.3616" y="415.2469"/><rect fill="#F1F1F1" height="2" style="stroke:#181818;stroke-width:0.5;" width="4" x="1332.3616" y="417.2469"/><rect fill="#F1F1F1" height="2" style="stroke:#181818;stroke-width:0.5;" width="4" x="1332.3616" y="421.2469"/><text fill="#000000" font-family="sans-serif" font-size="14" lengthAdjust="spacing" textLength="90.9316" x="1238.43" y="443.242">Browser APIs</text></g><!--entity MEDIA--><g class="entity" data-entity="MEDIA" data-source-line="41" data-uid="ent0028" id="entity_MEDIA"><rect fill="#F1F1F1" height="46.2969" rx="2.5" ry="2.5" style="stroke:#181818;stroke-width:0.5;" width="168.3037" x="1190.75" y="523.3969"/><rect fill="#F1F1F1" height="10" style="stroke:#181818;stroke-width:0.5;" width="15" x="1339.0537" y="528.3969"/><rect fill="#F1F1F1" height="2" style="stroke:#181818;stroke-width:0.5;" width="4" x="1337.0537" y="530.3969"/><rect fill="#F1F1F1" height="2" style="stroke:#181818;stroke-width:0.5;" width="4" x="1337.0537" y="534.3969"/><text fill="#000000" font-family="sans-serif" font-size="14" lengthAdjust="spacing" textLength="128.3037" x="1205.75" y="556.392">Camera/Media API</text></g><!--entity Student--><g class="entity" data-entity="Student" data-source-line="3" data-uid="ent0002" id="entity_Student"><ellipse cx="1366.8957" cy="51.2969" fill="#F1F1F1" rx="8" ry="8" style="stroke:#181818;stroke-width:0.5;"/><path d="M1366.8957,59.2969 L1366.8957,86.2969 M1353.8957,67.2969 L1379.8957,67.2969 M1366.8957,86.2969 L1353.8957,101.2969 M1366.8957,86.2969 L1379.8957,101.2969" fill="none" style="stroke:#181818;stroke-width:0.5;"/><text fill="#000000" font-family="sans-serif" font-size="14" lengthAdjust="spacing" textLength="55.1113" x="1339.34" y="115.792">Student</text></g><!--entity Proctor--><g class="entity" data-entity="Proctor" data-source-line="4" data-uid="ent0003" id="entity_Proctor"><ellipse cx="1614.8957" cy="51.2969" fill="#F1F1F1" rx="8" ry="8" style="stroke:#181818;stroke-width:0.5;"/><path d="M1614.8957,59.2969 L1614.8957,86.2969 M1601.8957,67.2969 L1627.8957,67.2969 M1614.8957,86.2969 L1601.8957,101.2969 M1614.8957,86.2969 L1627.8957,101.2969" fill="none" style="stroke:#181818;stroke-width:0.5;"/><text fill="#000000" font-family="sans-serif" font-size="14" lengthAdjust="spacing" textLength="50.2715" x="1589.76" y="115.792">Proctor</text></g><!--entity API--><g class="entity" data-entity="API" data-source-line="45" data-uid="ent0029" id="entity_API"><ellipse cx="1843.9" cy="546.5469" fill="#F1F1F1" rx="8" ry="8" style="stroke:#181818;stroke-width:0.5;"/><text fill="#000000" font-family="sans-serif" font-size="14" lengthAdjust="spacing" textLength="103.4004" x="1792.1998" y="576.542">HTTP/REST API</text></g><!--entity FSIO--><g class="entity" data-entity="FSIO" data-source-line="46" data-uid="ent0030" id="entity_FSIO"><ellipse cx="1825.9" cy="80.9469" fill="#F1F1F1" rx="8" ry="8" style="stroke:#181818;stroke-width:0.5;"/><text fill="#000000" font-family="sans-serif" font-size="14" lengthAdjust="spacing" textLength="105.417" x="1773.1915" y="110.942">File System I/O</text></g><!--entity DBCONN--><g class="entity" data-entity="DBCONN" data-source-line="47" data-uid="ent0031" id="entity_DBCONN"><ellipse cx="2003.9" cy="80.9469" fill="#F1F1F1" rx="8" ry="8" style="stroke:#181818;stroke-width:0.5;"/><text fill="#000000" font-family="sans-serif" font-size="14" lengthAdjust="spacing" textLength="150.4658" x="1928.6671" y="110.942">Database Connection</text></g><!--entity AUDIO--><g class="entity" data-entity="AUDIO" data-source-line="48" data-uid="ent0032" id="entity_AUDIO"><ellipse cx="1825.9" cy="283.2469" fill="#F1F1F1" rx="8" ry="8" style="stroke:#181818;stroke-width:0.5;"/><text fill="#000000" font-family="sans-serif" font-size="14" lengthAdjust="spacing" textLength="66.3906" x="1792.7047" y="313.242">Audio API</text></g><g class="entity" data-entity="GMN59" data-source-line="92" data-uid="ent0060" id="entity_GMN59"><path d="M1784.54,822.8569 L1784.54,863.1225 L1991.2534,863.1225 L1991.2534,832.8569 L1981.2534,822.8569 L1784.54,822.8569" fill="#FEFFDD" style="stroke:#181818;stroke-width:0.5;"/><path d="M1981.2534,822.8569 L1981.2534,832.8569 L1991.2534,832.8569 L1981.2534,822.8569" fill="#FEFFDD" style="stroke:#181818;stroke-width:1;"/><text fill="#000000" font-family="sans-serif" font-size="13" lengthAdjust="spacing" textLength="185.7134" x="1790.54" y="839.9238">Uses YuNet / Haar Cascade /</text><text fill="#000000" font-family="sans-serif" font-size="13" lengthAdjust="spacing" textLength="176.1792" x="1790.54" y="855.0566">OpenCV for face detection.</text></g><g class="entity" data-entity="GMN62" data-source-line="97" data-uid="ent0063" id="entity_GMN62"><path d="M2026.01,822.8569 L2026.01,863.1225 L2235.7956,863.1225 L2235.7956,832.8569 L2225.7956,822.8569 L2026.01,822.8569" fill="#FEFFDD" style="stroke:#181818;stroke-width:0.5;"/><path d="M2225.7956,822.8569 L2225.7956,832.8569 L2235.7956,832.8569 L2225.7956,822.8569" fill="#FEFFDD" style="stroke:#181818;stroke-width:1;"/><text fill="#000000" font-family="sans-serif" font-size="13" lengthAdjust="spacing" textLength="188.7856" x="2032.01" y="839.9238">Uses face_recognition library</text><text fill="#000000" font-family="sans-serif" font-size="13" lengthAdjust="spacing" textLength="185.1167" x="2032.01" y="855.0566">for facial encoding + match.</text></g><g class="entity" data-entity="GMN65" data-source-line="102" data-uid="ent0066" id="entity_GMN65"><path d="M2270.67,822.8569 L2270.67,863.1225 L2461.127,863.1225 L2461.127,832.8569 L2451.127,822.8569 L2270.67,822.8569" fill="#FEFFDD" style="stroke:#181818;stroke-width:0.5;"/><path d="M2451.127,822.8569 L2451.127,832.8569 L2461.127,832.8569 L2451.127,822.8569" fill="#FEFFDD" style="stroke:#181818;stroke-width:1;"/><text fill="#000000" font-family="sans-serif" font-size="13" lengthAdjust="spacing" textLength="169.3491" x="2276.67" y="839.9238">Detects suspicious sound,</text><text fill="#000000" font-family="sans-serif" font-size="13" lengthAdjust="spacing" textLength="169.457" x="2276.67" y="855.0566">noise, background voices.</text></g><g class="entity" data-entity="GMN68" data-source-line="107" data-uid="ent0069" id="entity_GMN68"><path d="M2029.38,1207.7469 L2029.38,1248.0125 L2192.4215,1248.0125 L2192.4215,1217.7469 L2182.4215,1207.7469 L2029.38,1207.7469" fill="#FEFFDD" style="stroke:#181818;stroke-width:0.5;"/><path d="M2182.4215,1207.7469 L2182.4215,1217.7469 L2192.4215,1217.7469 L2182.4215,1207.7469" fill="#FEFFDD" style="stroke:#181818;stroke-width:1;"/><text fill="#000000" font-family="sans-serif" font-size="13" lengthAdjust="spacing" textLength="142.0415" x="2035.38" y="1224.8138">Stores: Users, Exams,</text><text fill="#000000" font-family="sans-serif" font-size="13" lengthAdjust="spacing" textLength="132.4819" x="2035.38" y="1239.9466">Sessions, Violations.</text></g><g class="entity" data-entity="GMN71" data-source-line="112" data-uid="ent0072" id="entity_GMN71"><path d="M1785.1,1207.7469 L1785.1,1248.0125 L1994.7016,1248.0125 L1994.7016,1217.7469 L1984.7016,1207.7469 L1785.1,1207.7469" fill="#FEFFDD" style="stroke:#181818;stroke-width:0.5;"/><path d="M1984.7016,1207.7469 L1984.7016,1217.7469 L1994.7016,1217.7469 L1984.7016,1207.7469" fill="#FEFFDD" style="stroke:#181818;stroke-width:1;"/><text fill="#000000" font-family="sans-serif" font-size="13" lengthAdjust="spacing" textLength="188.6016" x="1791.1" y="1224.8138">Stores: uploads/, encodings/,</text><text fill="#000000" font-family="sans-serif" font-size="13" lengthAdjust="spacing" textLength="85.979" x="1791.1" y="1239.9466">reports/ files.</text></g><!--link Student to SWI--><g class="link" data-entity-1="Student" data-entity-2="SWI" data-source-line="51" data-uid="lnk33" id="link_Student_SWI"><path d="M1366.9,119.1569 C1366.9,160.4469 1366.9,219.7469 1366.9,253.8469" fill="none" id="Student-to-SWI" style="stroke:#181818;stroke-width:1;"/><polygon fill="#181818" points="1366.9,259.8469,1370.9,250.8469,1366.9,254.8469,1362.9,250.8469,1366.9,259.8469" style="stroke:#181818;stroke-width:1;"/><text fill="#000000" font-family="sans-serif" font-size="13" lengthAdjust="spacing" textLength="93.8247" x="1367.9" y="162.1638">Uses Web App</text></g><!--link SWI to API--><g class="link" data-entity-1="SWI" data-entity-2="API" data-source-line="52" data-uid="lnk34" id="link_SWI_API"><path d="M1420.49,306.8269 C1439.99,314.7069 1462.29,323.3369 1482.9,330.3969 C1500.84,336.5369 1506.88,333.8769 1523.9,342.2469 C1601.04,380.1569 1607.3,410.5369 1679.9,456.5469 C1737.09,492.7769 1804.816,526.5391 1829.736,538.6791" fill="none" id="SWI-to-API" style="stroke:#181818;stroke-width:1;"/><polygon fill="#181818" points="1835.13,541.3069,1828.7908,533.7693,1830.635,539.1171,1825.2872,540.9613,1835.13,541.3069" style="stroke:#181818;stroke-width:1;"/></g><!--link API to AUTH--><g class="link" data-entity-1="API" data-entity-2="AUTH" data-source-line="53" data-uid="lnk35" id="link_API_AUTH"><path d="M1834.94,547.4369 C1786.48,547.1269 1551.21,548.7469 1370.9,605.5469 C1355.54,610.3769 1354.5,618.5269 1338.9,622.5469 C1284.45,636.5669 887.56,617.3369 832.9,630.5469 C797.87,639.0069 766.5478,654.8415 740.8378,670.1215" fill="none" id="API-to-AUTH" style="stroke:#181818;stroke-width:1;"/><polygon fill="#181818" points="735.68,673.1869,745.4604,672.0273,739.9782,670.6324,741.3731,665.1502,735.68,673.1869" style="stroke:#181818;stroke-width:1;"/><text fill="#000000" font-family="sans-serif" font-size="13" lengthAdjust="spacing" textLength="35.2993" x="1371.9" y="618.6138">Login</text></g><!--link API to EMS--><g class="link" data-entity-1="API" data-entity-2="EMS" data-source-line="54" data-uid="lnk36" id="link_API_EMS"><path d="M1835.01,547.7269 C1791.5,548.8669 1597.11,556.6069 1447.9,605.5469 C1432.6,610.5569 1431.48,618.4469 1415.9,622.5469 C1347.96,640.3869 1168.12,613.8169 1099.9,630.5469 C1064.81,639.1469 1033.3557,654.8917 1007.4357,670.0917" fill="none" id="API-to-EMS" style="stroke:#181818;stroke-width:1;"/><polygon fill="#181818" points="1002.26,673.1269,1012.047,672.0246,1006.5731,670.5976,1008.0001,665.1237,1002.26,673.1269" style="stroke:#181818;stroke-width:1;"/><text fill="#000000" font-family="sans-serif" font-size="13" lengthAdjust="spacing" textLength="76.6289" x="1448.9" y="618.6138">Fetch Exam</text></g><!--link API to SM--><g class="link" data-entity-1="API" data-entity-2="SM" data-source-line="55" data-uid="lnk37" id="link_API_SM"><path d="M1842.32,555.2669 C1838.87,570.2569 1829.28,603.5269 1808.9,622.5469 C1778.54,650.8769 1741.7774,666.9278 1704.6574,677.8178" fill="none" id="API-to-SM" style="stroke:#181818;stroke-width:1;"/><polygon fill="#181818" points="1698.9,679.5069,1708.6621,680.8115,1703.6978,678.0993,1706.41,673.1351,1698.9,679.5069" style="stroke:#181818;stroke-width:1;"/><text fill="#000000" font-family="sans-serif" font-size="13" lengthAdjust="spacing" textLength="104.9014" x="1821.9" y="618.6138">Submit Answers</text></g><!--link Proctor to PM--><g class="link" data-entity-1="Proctor" data-entity-2="PM" data-source-line="58" data-uid="lnk38" id="link_Proctor_PM"><path d="M1614.9,119.1569 C1614.9,160.4469 1614.9,219.7469 1614.9,253.8469" fill="none" id="Proctor-to-PM" style="stroke:#181818;stroke-width:1;"/><polygon fill="#181818" points="1614.9,259.8469,1618.9,250.8469,1614.9,254.8469,1610.9,250.8469,1614.9,259.8469" style="stroke:#181818;stroke-width:1;"/><text fill="#000000" font-family="sans-serif" font-size="13" lengthAdjust="spacing" textLength="56.1895" x="1615.9" y="162.1638">Monitors</text></g><!--link PM to API--><g class="link" data-entity-1="PM" data-entity-2="API" data-source-line="59" data-uid="lnk39" id="link_PM_API"><path d="M1634.42,306.5269 C1682.88,361.8169 1802.9656,498.8343 1833.2156,533.3543" fill="none" id="PM-to-API" style="stroke:#181818;stroke-width:1;"/><polygon fill="#181818" points="1837.17,537.8669,1834.2468,528.4618,1833.8747,534.1064,1828.2301,533.7343,1837.17,537.8669" style="stroke:#181818;stroke-width:1;"/></g><!--link API to MC--><g class="link" data-entity-1="API" data-entity-2="MC" data-source-line="60" data-uid="lnk40" id="link_API_MC"><path d="M1835,548.4769 C1799.9,552.3369 1667.9,568.6569 1565.9,605.5469 C1550.76,611.0169 1549.45,618.3569 1533.9,622.5469 C1488.81,634.6969 1368.75,617.5269 1323.9,630.5469 C1293.66,639.3169 1267.9042,654.5344 1246.3342,669.6444" fill="none" id="API-to-MC" style="stroke:#181818;stroke-width:1;"/><polygon fill="#181818" points="1241.42,673.0869,1251.0863,671.1993,1245.5152,670.2182,1246.4964,664.647,1241.42,673.0869" style="stroke:#181818;stroke-width:1;"/><text fill="#000000" font-family="sans-serif" font-size="13" lengthAdjust="spacing" textLength="72.9854" x="1566.9" y="618.6138">View Alerts</text></g><!--link API to RG--><g class="link" data-entity-1="API" data-entity-2="RG" data-source-line="61" data-uid="lnk41" id="link_API_RG"><path d="M1835.19,550.1169 C1810.43,557.5569 1737.68,580.1469 1679.9,605.5469 C1665.16,612.0269 1663.4,618.1569 1647.9,622.5469 C1593.91,637.8269 1575.12,612.7469 1521.9,630.5469 C1494.58,639.6769 1472.2297,654.5769 1453.3297,669.5769" fill="none" id="API-to-RG" style="stroke:#181818;stroke-width:1;"/><polygon fill="#181818" points="1448.63,673.3069,1458.1662,670.8451,1452.5464,670.1986,1453.193,664.5788,1448.63,673.3069" style="stroke:#181818;stroke-width:1;"/><text fill="#000000" font-family="sans-serif" font-size="13" lengthAdjust="spacing" textLength="119.2026" x="1680.9" y="618.6138">Download Reports</text></g><!--link SWI to BA--><g class="link" data-entity-1="SWI" data-entity-2="BA" data-source-line="64" data-uid="lnk42" id="link_SWI_BA"><path d="M1355.05,306.7469 C1340.31,334.7569 1318.0754,376.9779 1303.3954,404.8579" fill="none" id="SWI-to-BA" style="stroke:#181818;stroke-width:1;"/><polygon fill="#181818" points="1300.6,410.1669,1308.3325,404.067,1302.9295,405.7427,1301.2538,400.3397,1300.6,410.1669" style="stroke:#181818;stroke-width:1;"/><text fill="#000000" font-family="sans-serif" font-size="13" lengthAdjust="spacing" textLength="180.2163" x="1334.9" y="355.3138">Access Camera/Microphone</text></g><!--link BA to MEDIA--><g class="link" data-entity-1="BA" data-entity-2="MEDIA" data-source-line="65" data-uid="lnk43" id="link_BA_MEDIA"><path d="M1286.07,456.8869 C1283.64,476.1669 1280.9103,497.854 1278.4803,517.134" fill="none" id="BA-to-MEDIA" style="stroke:#181818;stroke-width:1;"/><polygon fill="#181818" points="1277.73,523.0869,1282.824,514.6577,1278.3552,518.1261,1274.8868,513.6573,1277.73,523.0869" style="stroke:#181818;stroke-width:1;"/></g><!--link MEDIA to MC--><g class="link" data-entity-1="MEDIA" data-entity-2="MC" data-source-line="66" data-uid="lnk44" id="link_MEDIA_MC"><path d="M1235.16,570.1669 C1222.8,579.4069 1210.65,591.3069 1203.9,605.5469 C1193.8,626.8369 1196.6216,648.3606 1202.0716,667.3106" fill="none" id="MEDIA-to-MC" style="stroke:#181818;stroke-width:1;"/><polygon fill="#181818" points="1203.73,673.0769,1205.0866,663.3219,1202.348,668.2717,1197.3983,665.5331,1203.73,673.0769" style="stroke:#181818;stroke-width:1;"/><text fill="#000000" font-family="sans-serif" font-size="13" lengthAdjust="spacing" textLength="129.4922" x="1204.9" y="618.6138">Stream Video/Audio</text></g><!--link AUTH to DB--><g class="link" data-entity-1="AUTH" data-entity-2="DB" data-source-line="69" data-uid="lnk45" id="link_AUTH_DB"><path d="M585.59,708.9969 C510.64,717.9769 420.94,732.2769 387.9,751.8369 C312.14,796.6969 233.07,834.6169 272.9,913.1369 C336.05,1037.6269 421.84,1026.3169 560.9,1038.4369 C583.57,1040.4069 1358.48,1038.7669 1379.9,1046.4369 C1406.24,1055.8569 1426.3279,1072.7145 1442.3179,1089.1645" fill="none" id="AUTH-to-DB" style="stroke:#181818;stroke-width:1;"/><polygon fill="#181818" points="1446.5,1093.4669,1443.0952,1084.2253,1443.015,1089.8816,1437.3587,1089.8014,1446.5,1093.4669" style="stroke:#181818;stroke-width:1;"/><text fill="#000000" font-family="sans-serif" font-size="13" lengthAdjust="spacing" textLength="116.2192" x="273.9" y="909.2038">Verify Credentials</text></g><!--link EMS to DB--><g class="link" data-entity-1="EMS" data-entity-2="DB" data-source-line="70" data-uid="lnk46" id="link_EMS_DB"><path d="M913.8,720.2569 C889.59,729.4169 860.28,738.9769 832.9,743.8369 C788.26,751.7669 467.74,736.9769 424.9,751.8369 C407.52,757.8669 400.09,760.3669 391.9,776.8369 C374.24,812.3769 382.95,827.4669 391.9,866.1369 C410.33,945.7369 428.22,978.1169 501.9,1013.4369 C545.92,1034.5269 1334.17,1029.3569 1379.9,1046.4369 C1406.1,1056.2169 1426.1882,1073.0538 1442.2182,1089.3938" fill="none" id="EMS-to-DB" style="stroke:#181818;stroke-width:1;"/><polygon fill="#181818" points="1446.42,1093.6769,1442.9727,1084.4511,1442.9185,1090.1076,1437.2619,1090.0535,1446.42,1093.6769" style="stroke:#181818;stroke-width:1;"/><text fill="#000000" font-family="sans-serif" font-size="13" lengthAdjust="spacing" textLength="85.0776" x="404.9" y="909.2038">CRUD Exams</text></g><!--link SM to DB--><g class="link" data-entity-1="SM" data-entity-2="DB" data-source-line="71" data-uid="lnk47" id="link_SM_DB"><path d="M1613.75,720.0669 C1604.38,759.5969 1583.18,844.1469 1557.9,913.1369 C1533.19,980.5569 1498.5312,1051.5244 1479.9412,1088.2244" fill="none" id="SM-to-DB" style="stroke:#181818;stroke-width:1;"/><polygon fill="#181818" points="1477.23,1093.5769,1484.8652,1087.3556,1479.4894,1089.1165,1477.7285,1083.7406,1477.23,1093.5769" style="stroke:#181818;stroke-width:1;"/><text fill="#000000" font-family="sans-serif" font-size="13" lengthAdjust="spacing" textLength="123.5508" x="1563.9" y="909.2038">Store Session Data</text></g><!--link RG to DB--><g class="link" data-entity-1="RG" data-entity-2="DB" data-source-line="72" data-uid="lnk48" id="link_RG_DB"><path d="M1431.14,720.2069 C1443.98,756.5869 1468.17,830.8369 1476.9,896.1369 C1486.5,967.9769 1476.712,1048.1281 1470.552,1087.7381" fill="none" id="RG-to-DB" style="stroke:#181818;stroke-width:1;"/><polygon fill="#181818" points="1469.63,1093.6669,1474.9655,1085.3885,1470.3983,1088.7263,1467.0605,1084.1591,1469.63,1093.6669" style="stroke:#181818;stroke-width:1;"/><text fill="#000000" font-family="sans-serif" font-size="13" lengthAdjust="spacing" textLength="70.313" x="1478.9" y="909.2038">Fetch Logs</text></g><!--link VDE to DB--><g class="link" data-entity-1="VDE" data-entity-2="DB" data-source-line="73" data-uid="lnk49" id="link_VDE_DB"><path d="M970.26,967.5769 C1079.49,971.6769 1247.26,988.1969 1379.9,1046.4369 C1404.99,1057.4469 1424.5781,1073.5544 1440.7881,1089.3144" fill="none" id="VDE-to-DB" style="stroke:#181818;stroke-width:1;"/><polygon fill="#181818" points="1445.09,1093.4969,1441.4254,1084.3552,1441.5051,1090.0115,1435.8488,1090.0911,1445.09,1093.4969" style="stroke:#181818;stroke-width:1;"/><text fill="#000000" font-family="sans-serif" font-size="13" lengthAdjust="spacing" textLength="102.4893" x="1353.9" y="1034.5038">Store Violations</text></g><!--link AUTH to FS--><g class="link" data-entity-1="AUTH" data-entity-2="FS" data-source-line="76" data-uid="lnk50" id="link_AUTH_FS"><path d="M585.63,703.5869 C467.82,710.9169 293.63,725.7769 231.9,751.8369 C133.85,793.2369 6,818.6069 54.9,913.1369 C99.18,998.7469 140.18,1008.8269 231.9,1038.4369 C281.7,1054.5069 1123.9,1030.9769 1173.9,1046.4369 C1201.47,1054.9569 1223.7407,1088.3276 1243.1407,1104.0676" fill="none" id="AUTH-to-FS" style="stroke:#181818;stroke-width:1;"/><polygon fill="#181818" points="1247.8,1107.8479,1243.3312,1099.0712,1243.9172,1104.6976,1238.2908,1105.2837,1247.8,1107.8479" style="stroke:#181818;stroke-width:1;"/><text fill="#000000" font-family="sans-serif" font-size="13" lengthAdjust="spacing" textLength="141.2544" x="55.9" y="909.2038">Load/Store Encodings</text></g><!--link MC to FS--><g class="link" data-entity-1="MC" data-entity-2="FS" data-source-line="77" data-uid="lnk51" id="link_MC_FS"><path d="M1246.5,720.2869 C1256.62,728.8369 1266.43,739.5269 1271.9,751.8369 C1274.97,758.7469 1271.96,761.2869 1271.9,768.8369 C1271.4,832.9769 1268.79,849.0069 1269.9,913.1369 C1270.99,976.2569 1273.7265,1065.3927 1275.4265,1104.0627" fill="none" id="MC-to-FS" style="stroke:#181818;stroke-width:1;"/><polygon fill="#181818" points="1275.69,1110.0569,1279.2909,1100.8899,1275.4704,1105.0617,1271.2986,1101.2412,1275.69,1110.0569" style="stroke:#181818;stroke-width:1;"/><text fill="#000000" font-family="sans-serif" font-size="13" lengthAdjust="spacing" textLength="197.6533" x="1270.9" y="909.2038">Store Images/Audio Evidences</text></g><!--link MC to FDE--><g class="link" data-entity-1="MC" data-entity-2="FDE" data-source-line="80" data-uid="lnk52" id="link_MC_FDE"><path d="M1167.72,720.2969 C1147.83,729.3469 1123.73,738.8069 1100.9,743.8369 C1057.25,753.4569 944.4,747.6369 899.9,751.8369 C825.18,758.8969 803.9,752.5069 732.9,776.8369 C702.97,787.0969 676.8949,801.7889 654.4349,816.2489" fill="none" id="MC-to-FDE" style="stroke:#181818;stroke-width:1;"/><polygon fill="#181818" points="649.39,819.4969,659.1226,817.9882,653.5941,816.7902,654.792,811.2617,649.39,819.4969" style="stroke:#181818;stroke-width:1;"/><text fill="#000000" font-family="sans-serif" font-size="13" lengthAdjust="spacing" textLength="84.8428" x="900.9" y="764.9038">Detect Faces</text></g><!--link MC to FRE--><g class="link" data-entity-1="MC" data-entity-2="FRE" data-source-line="81" data-uid="lnk53" id="link_MC_FRE"><path d="M1165.03,720.3169 C1145.59,728.8669 1122.55,737.9469 1100.9,743.8369 C1075.79,750.6669 1068.05,745.1469 1042.9,751.8369 C987.59,766.5669 934.1591,794.8735 897.8491,816.4335" fill="none" id="MC-to-FRE" style="stroke:#181818;stroke-width:1;"/><polygon fill="#181818" points="892.69,819.4969,902.4708,818.3413,896.9892,816.9441,898.3864,811.4625,892.69,819.4969" style="stroke:#181818;stroke-width:1;"/><text fill="#000000" font-family="sans-serif" font-size="13" lengthAdjust="spacing" textLength="108.5513" x="1043.9" y="764.9038">Recognize Faces</text></g><!--link MC to APE--><g class="link" data-entity-1="MC" data-entity-2="APE" data-source-line="82" data-uid="lnk54" id="link_MC_APE"><path d="M1195.02,720.2369 C1174.74,747.3469 1144.4852,787.7633 1124.2552,814.7933" fill="none" id="MC-to-APE" style="stroke:#181818;stroke-width:1;"/><polygon fill="#181818" points="1120.66,819.5969,1129.2552,814.7882,1123.656,815.5939,1122.8503,809.9947,1120.66,819.5969" style="stroke:#181818;stroke-width:1;"/><text fill="#000000" font-family="sans-serif" font-size="13" lengthAdjust="spacing" textLength="92.3076" x="1170.9" y="764.9038">Analyze Audio</text></g><!--link FDE to VDE--><g class="link" data-entity-1="FDE" data-entity-2="VDE" data-source-line="84" data-uid="lnk55" id="link_FDE_VDE"><path d="M661.48,866.5169 C704.45,888.2369 763.7647,918.2212 806.7947,939.9612" fill="none" id="FDE-to-VDE" style="stroke:#181818;stroke-width:1;"/><polygon fill="#181818" points="812.15,942.6669,805.9208,935.0382,807.6872,940.4122,802.3133,942.1786,812.15,942.6669" style="stroke:#181818;stroke-width:1;"/><text fill="#000000" font-family="sans-serif" font-size="13" lengthAdjust="spacing" textLength="65.7617" x="751.9" y="909.2038">Face Data</text></g><!--link FRE to VDE--><g class="link" data-entity-1="FRE" data-entity-2="VDE" data-source-line="85" data-uid="lnk56" id="link_FRE_VDE"><path d="M856.9,866.5169 C856.9,888.3069 856.9,915.1269 856.9,936.8769" fill="none" id="FRE-to-VDE" style="stroke:#181818;stroke-width:1;"/><polygon fill="#181818" points="856.9,942.8769,860.9,933.8769,856.9,937.8769,852.9,933.8769,856.9,942.8769" style="stroke:#181818;stroke-width:1;"/><text fill="#000000" font-family="sans-serif" font-size="13" lengthAdjust="spacing" textLength="112.3091" x="857.9" y="909.2038">Recognition Data</text></g><!--link APE to VDE--><g class="link" data-entity-1="APE" data-entity-2="VDE" data-source-line="86" data-uid="lnk57" id="link_APE_VDE"><path d="M1065.58,866.5069 C1041.12,880.5569 1008.53,898.6569 978.9,913.1369 C957.69,923.5069 939.4313,931.6021 918.5413,940.3821" fill="none" id="APE-to-VDE" style="stroke:#181818;stroke-width:1;"/><polygon fill="#181818" points="913.01,942.7069,922.8568,942.9072,917.6194,940.7695,919.7571,935.5322,913.01,942.7069" style="stroke:#181818;stroke-width:1;"/><text fill="#000000" font-family="sans-serif" font-size="13" lengthAdjust="spacing" textLength="87.7881" x="1010.9" y="909.2038">Audio Signals</text></g><!--link VDE to MC--><g class="link" data-entity-1="VDE" data-entity-2="MC" data-source-line="88" data-uid="lnk58" id="link_VDE_MC"><path d="M743.34,947.0069 C620.77,926.1269 440.21,891.5769 419.9,866.1369 C395.14,835.1269 392.91,805.9369 419.9,776.8369 C471.42,721.2969 1026.78,759.5169 1100.9,743.8369 C1123.97,738.9569 1142.8454,731.8963 1162.8354,722.7363" fill="none" id="VDE-to-MC" style="stroke:#181818;stroke-width:1;"/><polygon fill="#181818" points="1168.29,720.2369,1158.4418,720.3497,1163.7445,722.3198,1161.7744,727.6225,1168.29,720.2369" style="stroke:#181818;stroke-width:1;"/><text fill="#000000" font-family="sans-serif" font-size="13" lengthAdjust="spacing" textLength="79.0918" x="420.9" y="847.5538">Alert Events</text></g><!--link FDE to GMN59--><g class="link" data-entity-1="FDE" data-entity-2="GMN59" data-source-line="92" data-uid="lnk61" id="link_FDE_GMN59"><path d="M644.36,819.5569 C669.91,799.3969 710.02,771.8269 750.4,760.3369 C843.27,733.9169 1523.92,745.9769 1619.4,760.3369 C1697.53,772.0969 1784.3,802.0669 1837.49,822.4969" fill="none" id="FDE-GMN59" style="stroke:#181818;stroke-width:1;stroke-dasharray:7,7;"/></g><!--link FRE to GMN62--><g class="link" data-entity-1="FRE" data-entity-2="GMN62" data-source-line="97" data-uid="lnk64" id="link_FRE_GMN62"><path d="M886.25,819.5369 C913.49,799.3669 956.11,771.7869 998.4,760.3369 C1051.65,745.9269 1938.19,745.7569 1991.4,760.3369 C2035.38,772.3869 2079.56,802.2869 2106.08,822.6169" fill="none" id="FRE-GMN62" style="stroke:#181818;stroke-width:1;stroke-dasharray:7,7;"/></g><!--link APE to GMN65--><g class="link" data-entity-1="APE" data-entity-2="GMN65" data-source-line="102" data-uid="lnk67" id="link_APE_GMN65"><path d="M1210.21,826.0369 C1343.81,805.6669 1580.37,772.6869 1784.4,760.3369 C1884.44,754.2869 2139.14,732.4269 2235.4,760.3369 C2277.13,772.4369 2318.3,802.3269 2342.91,822.6369" fill="none" id="APE-GMN65" style="stroke:#181818;stroke-width:1;stroke-dasharray:7,7;"/></g><!--link DB to GMN68--><g class="link" data-entity-1="DB" data-entity-2="GMN68" data-source-line="107" data-uid="lnk70" id="link_DB_GMN68"><path d="M1534.66,1127.1669 C1638.41,1141.9369 1841.02,1172.0069 2011.9,1204.7269 C2017.52,1205.8069 2023.31,1206.9669 2029.14,1208.1669" fill="none" id="DB-GMN68" style="stroke:#181818;stroke-width:1;stroke-dasharray:7,7;"/></g><!--link FS to GMN71--><g class="link" data-entity-1="FS" data-entity-2="GMN71" data-source-line="112" data-uid="lnk73" id="link_FS_GMN71"><path d="M1362.48,1139.9069 C1368.36,1141.2569 1374.21,1142.5469 1379.9,1143.7269 C1519.11,1172.6869 1681.44,1197.6669 1784.9,1212.4869" fill="none" id="FS-GMN71" style="stroke:#181818;stroke-width:1;stroke-dasharray:7,7;"/></g><!--SRC=[VLLDZ-8u4BtxLvIup8oM7kvpM2aGqisgQTW4QErfPH83LWSRsQOPTZN_VQfi9p1CQAHk4jU7NxsgUZZfQW4ZlJze9PI3LFAjuNjuW6JoCEHML31JjLG2nj_nU6vqwRIHQWl5sJgnPupJ0VGATwmmGG-uXVZSc6AGDyLdnWwyVEDR0Rtkl3tudp70J-kN6QsSK1KyyxCmP8VuALlq3Gfu5MkOeBlPy584JA-Jhe1uCKoralITShjRQswgW7RgOtxSG1dYGui4FcSrjszVxY3wwtK1oT7jy4MMt4cje13cNKPOoNBnr1NcMPboXVVjwU0wPZmjka9Y2SJX2Aaokgv587qwwlBFnK4R1uz22SER_kIFdRGAQmbv01GyYsvkaebl9WKWa8zwbM5h81LEb9wLiThYcFdKMJg-6v2BKc-nqDkGl3CaELPINmEw2adcdI4hgUlGfqviguZjjkwKE_vxkHMUhd6BaCA_dwN3UkE1pvKEkm0iBGuLDSTIEy_USvdV7P8Rpt7-KGDld8lyOmQUzVOsP9MpDcQZwmgnzZA96bAW2p7Hx2yrfRYYuaSdRUFlkAIArys0spl3CZJwHBmayudrkOT9bzk8xt6O1rDHIKw-OVp7wII9j-Fzdxz0xscnc0_oSR5edV3RMq8jlWQO36QnZidC6vlkqOAfC1knaQFPoujt2HFNPbsc6Ce-DP88MQrFh7bvUFYJT0c-0VRSUj5A3WT6HsGYIFWNdb4dq0yR8bLxY4A0PvbmvSxBSsiefdXU7DTxwI1HzYIC9H2Ds7aGpGlvpya_weTb-7Px_NI43YifJf2Wg3ZR6l97DAJwf6hDAmYIukzgvLgI37FFbMrB6oOObfIqbT3qJ9P67tROI8PMVwdlc_z_0L4u8t3gLx8IUk39fjiQHVw3TifpHG7fa50B8pTd61b1d4jUMqQyjVPHlamzUuXk2fTpccUSXBWur7c6nLxiWNPiY6Me2RTnxGxPN-7HUDaBmgpmJUNL88IDLQahr2dBiDZM8TWcUzmO6sg6yJiIe90_Ie-Q-whDsuRQsiGXf6zHmO24yv8n9qkKqV_4hqRKH6eCBkGPJP7UB9QtyZc3R1CTbEboVYtCtaovBkO0kv1RHHreAVCzzJE59M5_V3qlsY4aXV_1oEtEWTxutmI_9VySNuI30JnnRd1sRCah0GCsEmWrMg4a6Q3VVAWQyVxAY7bAncvJvZ4b1Vnhhl3NScsuEREO3OS6HEmCzd3FiVFtqzBlIY3UWZtQWoobFkAZFgggZxxIYZwiSIAsXexWNPFk_PPlhPtJUqg88-qdm7gTCBOVnhNFud3YmMNSFiYJ5MsUuu7srGxwRLtup4nOtm5iQ4elcNu2]--></g></svg>