<svg xmlns="http://www.w3.org/2000/svg" xmlns:xlink="http://www.w3.org/1999/xlink" contentStyleType="text/css" data-diagram-type="CLASS" height="1198px" preserveAspectRatio="none" style="width:3148px;height:1198px;background:#FFFFFF;" version="1.1" viewBox="0 0 3148 1198" width="3148px" zoomAndPan="magnify"><defs/><g><g class="entity" data-entity="Student_Instance" data-source-line="5" data-uid="ent0002" id="entity_Student_Instance"><rect fill="#F1F1F1" height="93.4844" rx="2.5" ry="2.5" style="stroke:#181818;stroke-width:0.5;" width="141.3906" x="2220.68" y="7"/><text fill="#000000" font-family="sans-serif" font-size="14" lengthAdjust="spacing" textLength="121.6592" x="2230.5457" y="21.9951">Student_Instance</text><line style="stroke:#181818;stroke-width:0.5;" x1="2221.68" x2="2361.0706" y1="27.2969" y2="27.2969"/><text fill="#000000" font-family="sans-serif" font-size="14" lengthAdjust="spacing" textLength="110.5713" x="2226.68" y="44.292">id = "stu_1001"</text><text fill="#000000" font-family="sans-serif" font-size="14" lengthAdjust="spacing" textLength="106.8799" x="2226.68" y="60.5889">name = "Alice"</text><text fill="#000000" font-family="sans-serif" font-size="14" lengthAdjust="spacing" textLength="113.8525" x="2226.68" y="76.8857">role = "student"</text><text fill="#000000" font-family="sans-serif" font-size="14" lengthAdjust="spacing" textLength="129.3906" x="2226.68" y="93.1826">status = "verified"</text></g><g class="entity" data-entity="Proctor_Instance" data-source-line="12" data-uid="ent0003" id="entity_Proctor_Instance"><rect fill="#F1F1F1" height="77.1875" rx="2.5" ry="2.5" style="stroke:#181818;stroke-width:0.5;" width="172.9248" x="348.92" y="323.52"/><text fill="#000000" font-family="sans-serif" font-size="14" lengthAdjust="spacing" textLength="116.8193" x="376.9727" y="338.5151">Proctor_Instance</text><line style="stroke:#181818;stroke-width:0.5;" x1="349.92" x2="520.8448" y1="343.8169" y2="343.8169"/><text fill="#000000" font-family="sans-serif" font-size="14" lengthAdjust="spacing" textLength="85.7432" x="354.92" y="360.812">id = "pr_01"</text><text fill="#000000" font-family="sans-serif" font-size="14" lengthAdjust="spacing" textLength="160.9248" x="354.92" y="377.1089">name = "Proctor_John"</text><text fill="#000000" font-family="sans-serif" font-size="14" lengthAdjust="spacing" textLength="91.5537" x="354.92" y="393.4057">role = "staff"</text></g><g class="entity" data-entity="Admin_Instance" data-source-line="18" data-uid="ent0004" id="entity_Admin_Instance"><rect fill="#F1F1F1" height="77.1875" rx="2.5" ry="2.5" style="stroke:#181818;stroke-width:0.5;" width="167.0186" x="2091.87" y="854.42"/><text fill="#000000" font-family="sans-serif" font-size="14" lengthAdjust="spacing" textLength="111.4121" x="2119.6732" y="869.4151">Admin_Instance</text><line style="stroke:#181818;stroke-width:0.5;" x1="2092.87" x2="2257.8886" y1="874.7169" y2="874.7169"/><text fill="#000000" font-family="sans-serif" font-size="14" lengthAdjust="spacing" textLength="114.9668" x="2097.87" y="891.712">id = "admin_01"</text><text fill="#000000" font-family="sans-serif" font-size="14" lengthAdjust="spacing" textLength="142.543" x="2097.87" y="908.0089">name = "SysAdmin"</text><text fill="#000000" font-family="sans-serif" font-size="14" lengthAdjust="spacing" textLength="155.0186" x="2097.87" y="924.3057">role = "administrator"</text></g><g class="entity" data-entity="AuthService" data-source-line="24" data-uid="ent0005" id="entity_AuthService"><rect fill="#F1F1F1" height="60.8906" rx="2.5" ry="2.5" style="stroke:#181818;stroke-width:0.5;" width="285.6016" x="1895.58" y="177.48"/><text fill="#000000" font-family="sans-serif" font-size="14" lengthAdjust="spacing" textLength="84.5537" x="1996.1039" y="192.4751">AuthService</text><line style="stroke:#181818;stroke-width:0.5;" x1="1896.58" x2="2180.1816" y1="197.7769" y2="197.7769"/><text fill="#000000" font-family="sans-serif" font-size="14" lengthAdjust="spacing" textLength="91.3076" x="1901.58" y="214.772">type = "JWT"</text><text fill="#000000" font-family="sans-serif" font-size="14" lengthAdjust="spacing" textLength="273.6016" x="1901.58" y="231.0689">methods = "register(), login(), verify()"</text></g><g class="entity" data-entity="FaceRecognition" data-source-line="29" data-uid="ent0006" id="entity_FaceRecognition"><rect fill="#F1F1F1" height="77.1875" rx="2.5" ry="2.5" style="stroke:#181818;stroke-width:0.5;" width="332.4004" x="2159.18" y="438.86"/><text fill="#000000" font-family="sans-serif" font-size="14" lengthAdjust="spacing" textLength="116.0127" x="2267.3738" y="453.8551">FaceRecognition</text><line style="stroke:#181818;stroke-width:0.5;" x1="2160.18" x2="2490.5804" y1="459.1569" y2="459.1569"/><text fill="#000000" font-family="sans-serif" font-size="14" lengthAdjust="spacing" textLength="166.0928" x="2165.18" y="476.152">lib = "face_recognition"</text><text fill="#000000" font-family="sans-serif" font-size="14" lengthAdjust="spacing" textLength="263.4365" x="2165.18" y="492.4489">enc_path = "encodings/stu_1001.pkl"</text><text fill="#000000" font-family="sans-serif" font-size="14" lengthAdjust="spacing" textLength="320.4004" x="2165.18" y="508.7457">methods = "compute_encoding(), compare()"</text></g><g class="entity" data-entity="ExamSession" data-source-line="35" data-uid="ent0007" id="entity_ExamSession"><rect fill="#F1F1F1" height="93.4844" rx="2.5" ry="2.5" style="stroke:#181818;stroke-width:0.5;" width="247.0059" x="1914.88" y="315.37"/><text fill="#000000" font-family="sans-serif" font-size="14" lengthAdjust="spacing" textLength="92.7637" x="1992.0011" y="330.3651">ExamSession</text><line style="stroke:#181818;stroke-width:0.5;" x1="1915.88" x2="2160.8859" y1="335.6669" y2="335.6669"/><text fill="#000000" font-family="sans-serif" font-size="14" lengthAdjust="spacing" textLength="178.2334" x="1920.88" y="352.662">session_id = "sess_9001"</text><text fill="#000000" font-family="sans-serif" font-size="14" lengthAdjust="spacing" textLength="126.9844" x="1920.88" y="368.9589">status = "ACTIVE"</text><text fill="#000000" font-family="sans-serif" font-size="14" lengthAdjust="spacing" textLength="235.0059" x="1920.88" y="385.2557">start_time = "2024-11-01T10:00"</text><text fill="#000000" font-family="sans-serif" font-size="14" lengthAdjust="spacing" textLength="129.8965" x="1920.88" y="401.5526">auto_save = "10s"</text></g><g class="entity" data-entity="RealTimeMonitoring" data-source-line="42" data-uid="ent0008" id="entity_RealTimeMonitoring"><rect fill="#F1F1F1" height="77.1875" rx="2.5" ry="2.5" style="stroke:#181818;stroke-width:0.5;" width="277.3711" x="440.69" y="546.04"/><text fill="#000000" font-family="sans-serif" font-size="14" lengthAdjust="spacing" textLength="140.3691" x="509.191" y="561.0351">RealTimeMonitoring</text><line style="stroke:#181818;stroke-width:0.5;" x1="441.69" x2="717.0611" y1="566.3369" y2="566.3369"/><text fill="#000000" font-family="sans-serif" font-size="14" lengthAdjust="spacing" textLength="192.124" x="446.69" y="583.332">capture = "webcam + mic"</text><text fill="#000000" font-family="sans-serif" font-size="14" lengthAdjust="spacing" textLength="77.4854" x="446.69" y="599.6289">fps = "1-2"</text><text fill="#000000" font-family="sans-serif" font-size="14" lengthAdjust="spacing" textLength="265.3711" x="446.69" y="615.9257">features = "frames, audio, headpose"</text></g><g class="entity" data-entity="ViolationDetector" data-source-line="48" data-uid="ent0009" id="entity_ViolationDetector"><rect fill="#F1F1F1" height="77.1875" rx="2.5" ry="2.5" style="stroke:#181818;stroke-width:0.5;" width="451.5781" x="431.59" y="700.23"/><text fill="#000000" font-family="sans-serif" font-size="14" lengthAdjust="spacing" textLength="122.3223" x="596.2179" y="715.2251">ViolationDetector</text><line style="stroke:#181818;stroke-width:0.5;" x1="432.59" x2="882.1681" y1="720.5269" y2="720.5269"/><text fill="#000000" font-family="sans-serif" font-size="14" lengthAdjust="spacing" textLength="216.6035" x="437.59" y="737.522">model = "YuNet / Caffe / Haar"</text><text fill="#000000" font-family="sans-serif" font-size="14" lengthAdjust="spacing" textLength="205.6523" x="437.59" y="753.8189">confidence_threshold = "0.8"</text><text fill="#000000" font-family="sans-serif" font-size="14" lengthAdjust="spacing" textLength="439.5781" x="437.59" y="770.1157">violations = "NO_FACE, MULTIPLE_FACES, HEAD_POSE, VOICE"</text></g><g class="entity" data-entity="ReportGenerator" data-source-line="54" data-uid="ent0010" id="entity_ReportGenerator"><rect fill="#F1F1F1" height="60.8906" rx="2.5" ry="2.5" style="stroke:#181818;stroke-width:0.5;" width="161.5977" x="807.58" y="862.57"/><text fill="#000000" font-family="sans-serif" font-size="14" lengthAdjust="spacing" textLength="118.1318" x="829.3129" y="877.5651">ReportGenerator</text><line style="stroke:#181818;stroke-width:0.5;" x1="808.58" x2="968.1777" y1="882.8669" y2="882.8669"/><text fill="#000000" font-family="sans-serif" font-size="14" lengthAdjust="spacing" textLength="149.5977" x="813.58" y="899.862">format = "PDF / CSV"</text><text fill="#000000" font-family="sans-serif" font-size="14" lengthAdjust="spacing" textLength="76.3164" x="813.58" y="916.1589">retry = "3"</text></g><g class="entity" data-entity="DataManager" data-source-line="59" data-uid="ent0011" id="entity_DataManager"><rect fill="#F1F1F1" height="60.8906" rx="2.5" ry="2.5" style="stroke:#181818;stroke-width:0.5;" width="372.958" x="1360.9" y="1008.61"/><text fill="#000000" font-family="sans-serif" font-size="14" lengthAdjust="spacing" textLength="94.7939" x="1499.982" y="1023.6051">DataManager</text><line style="stroke:#181818;stroke-width:0.5;" x1="1361.9" x2="1732.858" y1="1028.9069" y2="1028.9069"/><text fill="#000000" font-family="sans-serif" font-size="14" lengthAdjust="spacing" textLength="96.9814" x="1366.9" y="1045.902">db = "SQLite"</text><text fill="#000000" font-family="sans-serif" font-size="14" lengthAdjust="spacing" textLength="360.958" x="1366.9" y="1062.1989">backup_policy = "backup every 10s (if configured)"</text></g><g class="entity" data-entity="QuestionBank" data-source-line="64" data-uid="ent0012" id="entity_QuestionBank"><rect fill="#F1F1F1" height="60.8906" rx="2.5" ry="2.5" style="stroke:#181818;stroke-width:0.5;" width="221.46" x="2773.65" y="1008.61"/><text fill="#000000" font-family="sans-serif" font-size="14" lengthAdjust="spacing" textLength="97.7813" x="2835.4894" y="1023.6051">QuestionBank</text><line style="stroke:#181818;stroke-width:0.5;" x1="2774.65" x2="2994.11" y1="1028.9069" y2="1028.9069"/><text fill="#000000" font-family="sans-serif" font-size="14" lengthAdjust="spacing" textLength="209.46" x="2779.65" y="1045.902">source = "EXAM_QUESTIONS"</text><text fill="#000000" font-family="sans-serif" font-size="14" lengthAdjust="spacing" textLength="172.6074" x="2779.65" y="1062.1989">size = "20-30 per exam"</text></g><g class="entity" data-entity="Users_Table" data-source-line="70" data-uid="ent0013" id="entity_Users_Table"><rect fill="#F1F1F1" height="44.5938" rx="2.5" ry="2.5" style="stroke:#181818;stroke-width:0.5;" width="483.8096" x="2108.48" y="1146.5"/><text fill="#000000" font-family="sans-serif" font-size="14" lengthAdjust="spacing" textLength="84.7246" x="2308.0225" y="1161.4951">Users_Table</text><line style="stroke:#181818;stroke-width:0.5;" x1="2109.48" x2="2591.2896" y1="1166.7969" y2="1166.7969"/><text fill="#000000" font-family="sans-serif" font-size="14" lengthAdjust="spacing" textLength="471.8096" x="2114.48" y="1183.792">cols = "user_id, full_name, email, role, photo_path, encoding_path"</text></g><g class="entity" data-entity="Exams_Table" data-source-line="74" data-uid="ent0014" id="entity_Exams_Table"><rect fill="#F1F1F1" height="44.5938" rx="2.5" ry="2.5" style="stroke:#181818;stroke-width:0.5;" width="482.5928" x="1078.08" y="1146.5"/><text fill="#000000" font-family="sans-serif" font-size="14" lengthAdjust="spacing" textLength="92.1621" x="1273.2953" y="1161.4951">Exams_Table</text><line style="stroke:#181818;stroke-width:0.5;" x1="1079.08" x2="1559.6728" y1="1166.7969" y2="1166.7969"/><text fill="#000000" font-family="sans-serif" font-size="14" lengthAdjust="spacing" textLength="470.5928" x="1084.08" y="1183.792">cols = "exam_id, title, domain, duration, total_questions, is_active"</text></g><g class="entity" data-entity="Exam_Questions_Table" data-source-line="78" data-uid="ent0015" id="entity_Exam_Questions_Table"><rect fill="#F1F1F1" height="44.5938" rx="2.5" ry="2.5" style="stroke:#181818;stroke-width:0.5;" width="513.375" x="2627.69" y="1146.5"/><text fill="#000000" font-family="sans-serif" font-size="14" lengthAdjust="spacing" textLength="161.7793" x="2803.4879" y="1161.4951">Exam_Questions_Table</text><line style="stroke:#181818;stroke-width:0.5;" x1="2628.69" x2="3140.065" y1="1166.7969" y2="1166.7969"/><text fill="#000000" font-family="sans-serif" font-size="14" lengthAdjust="spacing" textLength="501.375" x="2633.69" y="1183.792">cols = "question_id, exam_id, question, options, correct_answer, order"</text></g><g class="entity" data-entity="Sessions_Table" data-source-line="82" data-uid="ent0016" id="entity_Sessions_Table"><rect fill="#F1F1F1" height="44.5938" rx="2.5" ry="2.5" style="stroke:#181818;stroke-width:0.5;" width="477.5205" x="1595.62" y="1146.5"/><text fill="#000000" font-family="sans-serif" font-size="14" lengthAdjust="spacing" textLength="106.2305" x="1781.265" y="1161.4951">Sessions_Table</text><line style="stroke:#181818;stroke-width:0.5;" x1="1596.62" x2="2072.1405" y1="1166.7969" y2="1166.7969"/><text fill="#000000" font-family="sans-serif" font-size="14" lengthAdjust="spacing" textLength="465.5205" x="1601.62" y="1183.792">cols = "session_id, user_id, exam_id, start_time, end_time, status"</text></g><g class="entity" data-entity="Violation_Logs_Table" data-source-line="86" data-uid="ent0017" id="entity_Violation_Logs_Table"><rect fill="#F1F1F1" height="44.5938" rx="2.5" ry="2.5" style="stroke:#181818;stroke-width:0.5;" width="478.5186" x="70.12" y="1146.5"/><text fill="#000000" font-family="sans-serif" font-size="14" lengthAdjust="spacing" textLength="146.3848" x="236.1869" y="1161.4951">Violation_Logs_Table</text><line style="stroke:#181818;stroke-width:0.5;" x1="71.12" x2="547.6386" y1="1166.7969" y2="1166.7969"/><text fill="#000000" font-family="sans-serif" font-size="14" lengthAdjust="spacing" textLength="466.5186" x="76.12" y="1183.792">cols = "violation_id, session_id, type, details, timestamp, severity"</text></g><g class="entity" data-entity="Reports_Table" data-source-line="90" data-uid="ent0018" id="entity_Reports_Table"><rect fill="#F1F1F1" height="44.5938" rx="2.5" ry="2.5" style="stroke:#181818;stroke-width:0.5;" width="458.5098" x="584.13" y="1146.5"/><text fill="#000000" font-family="sans-serif" font-size="14" lengthAdjust="spacing" textLength="99.8525" x="763.4586" y="1161.4951">Reports_Table</text><line style="stroke:#181818;stroke-width:0.5;" x1="585.13" x2="1041.6398" y1="1166.7969" y2="1166.7969"/><text fill="#000000" font-family="sans-serif" font-size="14" lengthAdjust="spacing" textLength="446.5098" x="590.13" y="1183.792">cols = "report_id, session_id, marks, percentage, submitted_at"</text></g><g class="entity" data-entity="GMN41" data-source-line="124" data-uid="ent0042" id="entity_GMN41"><path d="M2216.09,180.23 L2216.09,203.93 L2181.39,207.93 L2216.09,211.93 L2216.09,235.6284 A0,0 0 0 0 2216.09,235.6284 L2474.6637,235.6284 A0,0 0 0 0 2474.6637,235.6284 L2474.6637,190.23 L2464.6637,180.23 L2216.09,180.23 A0,0 0 0 0 2216.09,180.23" fill="#FEFFDD" style="stroke:#181818;stroke-width:0.5;"/><path d="M2464.6637,180.23 L2464.6637,190.23 L2474.6637,190.23 L2464.6637,180.23" fill="#FEFFDD" style="stroke:#181818;stroke-width:0.5;"/><text fill="#000000" font-family="sans-serif" font-size="13" lengthAdjust="spacing" textLength="168.9365" x="2222.09" y="197.2969">- Lock after 3 failed logins</text><text fill="#000000" font-family="sans-serif" font-size="13" lengthAdjust="spacing" textLength="237.5737" x="2222.09" y="212.4297">- JWT token, expires (default 7 days)</text><text fill="#000000" font-family="sans-serif" font-size="13" lengthAdjust="spacing" textLength="205.1245" x="2222.09" y="227.5625">- Password hashing (Werkzeug)</text></g><g class="entity" data-entity="GMN44" data-source-line="130" data-uid="ent0045" id="entity_GMN44"><path d="M6,556.94 L6,612.3384 A0,0 0 0 0 6,612.3384 L256.7598,612.3384 A0,0 0 0 0 256.7598,612.3384 L256.7598,588.64 L440.2,584.64 L256.7598,580.64 L256.7598,566.94 L246.7598,556.94 L6,556.94 A0,0 0 0 0 6,556.94" fill="#FEFFDD" style="stroke:#181818;stroke-width:0.5;"/><path d="M246.7598,556.94 L246.7598,566.94 L256.7598,566.94 L246.7598,556.94" fill="#FEFFDD" style="stroke:#181818;stroke-width:0.5;"/><text fill="#000000" font-family="sans-serif" font-size="13" lengthAdjust="spacing" textLength="194.689" x="12" y="574.0069">- Auto-save session every 10s</text><text fill="#000000" font-family="sans-serif" font-size="13" lengthAdjust="spacing" textLength="159.3579" x="12" y="589.1397">- Pause if network &gt; 30s</text><text fill="#000000" font-family="sans-serif" font-size="13" lengthAdjust="spacing" textLength="229.7598" x="12" y="604.2725">- Frame rate: 1-2 fps (configurable)</text></g><g class="entity" data-entity="GMN47" data-source-line="136" data-uid="ent0048" id="entity_GMN47"><path d="M362.56,865.31 L362.56,920.7084 A0,0 0 0 0 362.56,920.7084 L672.1943,920.7084 A0,0 0 0 0 672.1943,920.7084 L672.1943,875.31 L662.1943,865.31 L546.24,865.31 L622.41,777.84 L538.24,865.31 L362.56,865.31 A0,0 0 0 0 362.56,865.31" fill="#FEFFDD" style="stroke:#181818;stroke-width:0.5;"/><path d="M662.1943,865.31 L662.1943,875.31 L672.1943,875.31 L662.1943,865.31" fill="#FEFFDD" style="stroke:#181818;stroke-width:0.5;"/><text fill="#000000" font-family="sans-serif" font-size="13" lengthAdjust="spacing" textLength="288.6343" x="368.56" y="882.3769">- Fallback detectors: YuNet -&gt; Caffe -&gt; Haar</text><text fill="#000000" font-family="sans-serif" font-size="13" lengthAdjust="spacing" textLength="191.6675" x="368.56" y="897.5097">- Head pose threshold = 0.25</text><text fill="#000000" font-family="sans-serif" font-size="13" lengthAdjust="spacing" textLength="158.1709" x="368.56" y="912.6425">- Voice threshold = 0.08</text></g><!--link Student_Instance to AuthService--><g class="link" data-entity-1="Student_Instance" data-entity-2="AuthService" data-source-line="95" data-uid="lnk19" id="link_Student_Instance_AuthService"><path codeLine="95" d="M2220.23,97.54 C2177.99,122.94 2130.6415,151.4272 2092.9215,174.1172" fill="none" id="Student_Instance-to-AuthService" style="stroke:#181818;stroke-width:1;"/><polygon fill="#181818" points="2087.78,177.21,2097.5541,175.9985,2092.0646,174.6327,2093.4303,169.1432,2087.78,177.21" style="stroke:#181818;stroke-width:1;"/><text fill="#000000" font-family="sans-serif" font-size="13" lengthAdjust="spacing" textLength="211.8149" x="2165.38" y="143.5469">register()/login() + upload photo</text></g><!--link AuthService to FaceRecognition--><g class="link" data-entity-1="AuthService" data-entity-2="FaceRecognition" data-source-line="96" data-uid="lnk20" id="link_AuthService_FaceRecognition"><path codeLine="96" d="M2181.54,232.5 C2203.75,241.03 2225.04,252.62 2242.38,268.37 C2291.9,313.35 2311.3148,385.9082 2319.4048,432.5582" fill="none" id="AuthService-to-FaceRecognition" style="stroke:#181818;stroke-width:1;"/><polygon fill="#181818" points="2320.43,438.47,2322.8334,428.9189,2319.5757,433.5435,2314.951,430.2858,2320.43,438.47" style="stroke:#181818;stroke-width:1;"/><text fill="#000000" font-family="sans-serif" font-size="13" lengthAdjust="spacing" textLength="193.394" x="2257.38" y="281.4369">compute_encoding() / verify()</text></g><!--link FaceRecognition to Users_Table--><g class="link" data-entity-1="FaceRecognition" data-entity-2="Users_Table" data-source-line="97" data-uid="lnk21" id="link_FaceRecognition_Users_Table"><path codeLine="97" d="M2333.64,516.3 C2340.92,553.02 2350.38,610.42 2350.38,660.73 C2350.38,660.73 2350.38,660.73 2350.38,1040.05 C2350.38,1077.31 2350.38,1114.68 2350.38,1140.09" fill="none" id="FaceRecognition-to-Users_Table" style="stroke:#181818;stroke-width:1;"/><polygon fill="#181818" points="2350.38,1146.09,2354.38,1137.09,2350.38,1141.09,2346.38,1137.09,2350.38,1146.09" style="stroke:#181818;stroke-width:1;"/><text fill="#000000" font-family="sans-serif" font-size="13" lengthAdjust="spacing" textLength="133.0469" x="2351.38" y="820.4869">store encoding_path</text></g><!--link AuthService to ExamSession--><g class="link" data-entity-1="AuthService" data-entity-2="ExamSession" data-source-line="98" data-uid="lnk22" id="link_AuthService_ExamSession"><path codeLine="98" d="M2038.38,238.63 C2038.38,260.34 2038.38,284.2 2038.38,309" fill="none" id="AuthService-to-ExamSession" style="stroke:#181818;stroke-width:1;"/><polygon fill="#181818" points="2038.38,315,2042.38,306,2038.38,310,2034.38,306,2038.38,315" style="stroke:#181818;stroke-width:1;"/><text fill="#000000" font-family="sans-serif" font-size="13" lengthAdjust="spacing" textLength="194.7334" x="2039.38" y="281.4369">create session (on login/start)</text></g><!--link Student_Instance to ExamSession--><g class="link" data-entity-1="Student_Instance" data-entity-2="ExamSession" data-source-line="99" data-uid="lnk23" id="link_Student_Instance_ExamSession"><path codeLine="99" d="M2362.53,77.57 C2408.52,96.45 2464.77,128.27 2492.38,177.48 C2505.62,201.08 2500.53,212.57 2492.38,238.37 C2484.69,262.71 2480.89,271.63 2459.38,285.37 C2411.11,316.2 2274.1221,336.6967 2168.1221,348.6667" fill="none" id="Student_Instance-to-ExamSession" style="stroke:#181818;stroke-width:1;"/><polygon fill="#181818" points="2162.16,349.34,2171.552,352.3048,2167.1284,348.7789,2170.6543,344.3554,2162.16,349.34" style="stroke:#181818;stroke-width:1;"/><text fill="#000000" font-family="sans-serif" font-size="13" lengthAdjust="spacing" textLength="93.1011" x="2501.38" y="212.4969">participates in</text></g><!--link ExamSession to RealTimeMonitoring--><g class="link" data-entity-1="ExamSession" data-entity-2="RealTimeMonitoring" data-source-line="101" data-uid="lnk24" id="link_ExamSession_RealTimeMonitoring"><path codeLine="101" d="M1914.62,381.82 C1644.21,422.69 1008.1626,518.8232 724.3526,561.7232" fill="none" id="ExamSession-to-RealTimeMonitoring" style="stroke:#181818;stroke-width:1;"/><polygon fill="#181818" points="718.42,562.62,727.9167,565.2299,723.3638,561.8727,726.7211,557.3198,718.42,562.62" style="stroke:#181818;stroke-width:1;"/><text fill="#000000" font-family="sans-serif" font-size="13" lengthAdjust="spacing" textLength="142.8857" x="1526.38" y="482.0169">attach webcam + mic</text></g><!--link RealTimeMonitoring to ViolationDetector--><g class="link" data-entity-1="RealTimeMonitoring" data-entity-2="ViolationDetector" data-source-line="102" data-uid="lnk25" id="link_RealTimeMonitoring_ViolationDetector"><path codeLine="102" d="M598.86,623.65 C610.77,646.89 623.2227,671.1808 635.1427,694.4308" fill="none" id="RealTimeMonitoring-to-ViolationDetector" style="stroke:#181818;stroke-width:1;"/><polygon fill="#181818" points="637.88,699.77,637.3335,689.9363,635.5989,695.3207,630.2145,693.5861,637.88,699.77" style="stroke:#181818;stroke-width:1;"/><text fill="#000000" font-family="sans-serif" font-size="13" lengthAdjust="spacing" textLength="149.7222" x="622.38" y="666.2969">stream frames &amp; audio</text></g><!--link ViolationDetector to Violation_Logs_Table--><g class="link" data-entity-1="ViolationDetector" data-entity-2="Violation_Logs_Table" data-source-line="103" data-uid="lnk26" id="link_ViolationDetector_Violation_Logs_Table"><path codeLine="103" d="M677.23,777.58 C695.58,818.12 716.28,883.22 689.38,931.61 C624.37,1048.55 480.4888,1113.1133 389.5888,1144.1133" fill="none" id="ViolationDetector-to-Violation_Logs_Table" style="stroke:#181818;stroke-width:1;"/><polygon fill="#181818" points="383.91,1146.05,393.7194,1146.9309,388.6424,1144.4361,391.1371,1139.3591,383.91,1146.05" style="stroke:#181818;stroke-width:1;"/><text fill="#000000" font-family="sans-serif" font-size="13" lengthAdjust="spacing" textLength="138.728" x="671.38" y="974.6769">write violation record</text></g><!--link ViolationDetector to ReportGenerator--><g class="link" data-entity-1="ViolationDetector" data-entity-2="ReportGenerator" data-source-line="104" data-uid="lnk27" id="link_ViolationDetector_ReportGenerator"><path codeLine="104" d="M715.08,777.84 C754.63,803.9 801.3599,834.6787 837.9799,858.8087" fill="none" id="ViolationDetector-to-ReportGenerator" style="stroke:#181818;stroke-width:1;"/><polygon fill="#181818" points="842.99,862.11,837.6757,853.8179,838.8149,859.3589,833.2739,860.4981,842.99,862.11" style="stroke:#181818;stroke-width:1;"/><text fill="#000000" font-family="sans-serif" font-size="13" lengthAdjust="spacing" textLength="90.5366" x="781.38" y="820.4869">flag for report</text></g><!--link Proctor_Instance to RealTimeMonitoring--><g class="link" data-entity-1="Proctor_Instance" data-entity-2="RealTimeMonitoring" data-source-line="106" data-uid="lnk28" id="link_Proctor_Instance_RealTimeMonitoring"><path codeLine="106" d="M460.13,401.02 C486.59,441.54 524.9986,500.3668 551.4286,540.8268" fill="none" id="Proctor_Instance-to-RealTimeMonitoring" style="stroke:#181818;stroke-width:1;"/><polygon fill="#181818" points="554.71,545.85,553.1368,536.1276,551.9755,541.664,546.4392,540.5027,554.71,545.85" style="stroke:#181818;stroke-width:1;"/><text fill="#000000" font-family="sans-serif" font-size="13" lengthAdjust="spacing" textLength="208.3174" x="534.38" y="482.0169">view live stream / receive alerts</text></g><!--link Proctor_Instance to Violation_Logs_Table--><g class="link" data-entity-1="Proctor_Instance" data-entity-2="Violation_Logs_Table" data-source-line="107" data-uid="lnk29" id="link_Proctor_Instance_Violation_Logs_Table"><path codeLine="107" d="M397.23,401.2 C360.15,442.44 309.38,511.98 309.38,583.64 C309.38,583.64 309.38,583.64 309.38,1040.05 C309.38,1077.31 309.38,1114.68 309.38,1140.09" fill="none" id="Proctor_Instance-to-Violation_Logs_Table" style="stroke:#181818;stroke-width:1;"/><polygon fill="#181818" points="309.38,1146.09,313.38,1137.09,309.38,1141.09,305.38,1137.09,309.38,1146.09" style="stroke:#181818;stroke-width:1;"/><text fill="#000000" font-family="sans-serif" font-size="13" lengthAdjust="spacing" textLength="114.48" x="310.38" y="820.4869">annotate / review</text></g><!--link Admin_Instance to DataManager--><g class="link" data-entity-1="Admin_Instance" data-entity-2="DataManager" data-source-line="108" data-uid="lnk30" id="link_Admin_Instance_DataManager"><path codeLine="108" d="M2091.66,913.21 C1985.72,937.51 1807.9482,978.2889 1683.5782,1006.8089" fill="none" id="Admin_Instance-to-DataManager" style="stroke:#181818;stroke-width:1;"/><polygon fill="#181818" points="1677.73,1008.15,1687.3964,1010.0372,1682.6035,1007.0324,1685.6082,1002.2396,1677.73,1008.15" style="stroke:#181818;stroke-width:1;"/><text fill="#000000" font-family="sans-serif" font-size="13" lengthAdjust="spacing" textLength="187.1226" x="1881.38" y="974.6769">configure / backup / manage</text></g><!--link ReportGenerator to Reports_Table--><g class="link" data-entity-1="ReportGenerator" data-entity-2="Reports_Table" data-source-line="109" data-uid="lnk31" id="link_ReportGenerator_Reports_Table"><path codeLine="109" d="M880.78,923.8 C876.6,940.02 871.29,960.44 866.38,978.61 C849.93,1039.53 831.2298,1105.4313 821.1998,1140.5013" fill="none" id="ReportGenerator-to-Reports_Table" style="stroke:#181818;stroke-width:1;"/><polygon fill="#181818" points="819.55,1146.27,825.8706,1138.7168,820.9249,1141.4627,818.179,1136.517,819.55,1146.27" style="stroke:#181818;stroke-width:1;"/><text fill="#000000" font-family="sans-serif" font-size="13" lengthAdjust="spacing" textLength="145.8311" x="859.38" y="1043.6169">save generated report</text></g><!--link ReportGenerator to DataManager--><g class="link" data-entity-1="ReportGenerator" data-entity-2="DataManager" data-source-line="110" data-uid="lnk32" id="link_ReportGenerator_DataManager"><path codeLine="110" d="M969.52,911.75 C1079.52,935.79 1271.6384,977.7787 1404.8084,1006.8887" fill="none" id="ReportGenerator-to-DataManager" style="stroke:#181818;stroke-width:1;"/><polygon fill="#181818" points="1410.67,1008.17,1402.7318,1002.3403,1405.7853,1007.1022,1401.0234,1010.1558,1410.67,1008.17" style="stroke:#181818;stroke-width:1;"/><text fill="#000000" font-family="sans-serif" font-size="13" lengthAdjust="spacing" textLength="92.1235" x="1258.38" y="974.6769">archive report</text></g><!--link ExamSession to Exam_Questions_Table--><g class="link" data-entity-1="ExamSession" data-entity-2="Exam_Questions_Table" data-source-line="112" data-uid="lnk33" id="link_ExamSession_Exam_Questions_Table"><path codeLine="112" d="M2038.38,409.15 C2038.38,453.76 2038.38,523.34 2038.38,583.64 C2038.38,583.64 2038.38,583.64 2038.38,1040.05 C2038.38,1072.05 2415.705,1118.193 2666.295,1145.373" fill="none" id="ExamSession-to-Exam_Questions_Table" style="stroke:#181818;stroke-width:1;"/><polygon fill="#181818" points="2672.26,1146.02,2663.7438,1141.0728,2667.2892,1145.4808,2662.8812,1149.0262,2672.26,1146.02" style="stroke:#181818;stroke-width:1;"/><text fill="#000000" font-family="sans-serif" font-size="13" lengthAdjust="spacing" textLength="94.853" x="2039.38" y="820.4869">load questions</text></g><!--link QuestionBank to Exam_Questions_Table--><g class="link" data-entity-1="QuestionBank" data-entity-2="Exam_Questions_Table" data-source-line="113" data-uid="lnk34" id="link_QuestionBank_Exam_Questions_Table"><path codeLine="113" d="M2884.38,1069.68 C2884.38,1093.12 2884.38,1119.29 2884.38,1140.3" fill="none" id="QuestionBank-to-Exam_Questions_Table" style="stroke:#181818;stroke-width:1;"/><polygon fill="#181818" points="2884.38,1146.3,2888.38,1137.3,2884.38,1141.3,2880.38,1137.3,2884.38,1146.3" style="stroke:#181818;stroke-width:1;"/><text fill="#000000" font-family="sans-serif" font-size="13" lengthAdjust="spacing" textLength="127.188" x="2885.38" y="1112.5669">source of questions</text></g><!--link DataManager to Users_Table--><g class="link" data-entity-1="DataManager" data-entity-2="Users_Table" data-source-line="115" data-uid="lnk35" id="link_DataManager_Users_Table"><path codeLine="115" d="M1703.32,1069.96 C1746.26,1078.81 1792.75,1088.97 1835.38,1099.5 C1861.87,1106.04 1867.61,1111.17 1894.38,1116.5 C1963.24,1130.19 2032.7564,1139.8701 2102.1564,1147.5501" fill="none" id="DataManager-to-Users_Table" style="stroke:#181818;stroke-width:1;"/><polygon fill="#181818" points="2108.12,1148.21,2099.6146,1143.2443,2103.1503,1147.66,2098.7346,1151.1958,2108.12,1148.21" style="stroke:#181818;stroke-width:1;"/><text fill="#000000" font-family="sans-serif" font-size="13" lengthAdjust="spacing" textLength="37.6353" x="1895.38" y="1112.5669">CRUD</text></g><!--link DataManager to Exams_Table--><g class="link" data-entity-1="DataManager" data-entity-2="Exams_Table" data-source-line="116" data-uid="lnk36" id="link_DataManager_Exams_Table"><path codeLine="116" d="M1494.21,1069.84 C1452.5,1093.21 1400.6545,1122.2574 1363.2245,1143.2274" fill="none" id="DataManager-to-Exams_Table" style="stroke:#181818;stroke-width:1;"/><polygon fill="#181818" points="1357.99,1146.16,1367.7968,1145.2508,1362.3521,1143.7162,1363.8867,1138.2714,1357.99,1146.16" style="stroke:#181818;stroke-width:1;"/><text fill="#000000" font-family="sans-serif" font-size="13" lengthAdjust="spacing" textLength="37.6353" x="1441.38" y="1112.5669">CRUD</text></g><!--link DataManager to Exam_Questions_Table--><g class="link" data-entity-1="DataManager" data-entity-2="Exam_Questions_Table" data-source-line="117" data-uid="lnk37" id="link_DataManager_Exam_Questions_Table"><path codeLine="117" d="M1734.34,1057.37 C1799.51,1066.33 1872.53,1079.7 1937.38,1099.5 C1954.3,1104.66 1956.21,1112.22 1973.38,1116.5 C2110.67,1150.7 2468.16,1137.7 2609.38,1146.5 C2615.35,1146.87 2615.4129,1146.8574 2621.5129,1147.2574" fill="none" id="DataManager-to-Exam_Questions_Table" style="stroke:#181818;stroke-width:1;"/><polygon fill="#181818" points="2627.5,1147.65,2618.781,1143.0697,2622.5107,1147.3228,2618.2576,1151.0525,2627.5,1147.65" style="stroke:#181818;stroke-width:1;"/><text fill="#000000" font-family="sans-serif" font-size="13" lengthAdjust="spacing" textLength="37.6353" x="1974.38" y="1112.5669">CRUD</text></g><!--link DataManager to Sessions_Table--><g class="link" data-entity-1="DataManager" data-entity-2="Sessions_Table" data-source-line="118" data-uid="lnk38" id="link_DataManager_Sessions_Table"><path codeLine="118" d="M1614.31,1069.84 C1666.81,1093.21 1733.1783,1122.7505 1780.2983,1143.7205" fill="none" id="DataManager-to-Sessions_Table" style="stroke:#181818;stroke-width:1;"/><polygon fill="#181818" points="1785.78,1146.16,1779.1838,1138.8463,1781.2119,1144.1271,1775.9311,1146.1552,1785.78,1146.16" style="stroke:#181818;stroke-width:1;"/><text fill="#000000" font-family="sans-serif" font-size="13" lengthAdjust="spacing" textLength="108.0308" x="1718.38" y="1112.5669">archive / backup</text></g><!--link DataManager to Violation_Logs_Table--><g class="link" data-entity-1="DataManager" data-entity-2="Violation_Logs_Table" data-source-line="119" data-uid="lnk39" id="link_DataManager_Violation_Logs_Table"><path codeLine="119" d="M1360.7,1059.31 C1135.09,1082.59 762.4083,1121.044 526.3983,1145.404" fill="none" id="DataManager-to-Violation_Logs_Table" style="stroke:#181818;stroke-width:1;"/><polygon fill="#181818" points="520.43,1146.02,529.7931,1149.0748,525.4036,1145.5066,528.9718,1141.1171,520.43,1146.02" style="stroke:#181818;stroke-width:1;"/><text fill="#000000" font-family="sans-serif" font-size="13" lengthAdjust="spacing" textLength="48.001" x="967.38" y="1112.5669">archive</text></g><!--link DataManager to Reports_Table--><g class="link" data-entity-1="DataManager" data-entity-2="Reports_Table" data-source-line="120" data-uid="lnk40" id="link_DataManager_Reports_Table"><path codeLine="120" d="M1375.75,1069.92 C1241.77,1093.24 1064.6511,1124.0611 944.2911,1145.0111" fill="none" id="DataManager-to-Reports_Table" style="stroke:#181818;stroke-width:1;"/><polygon fill="#181818" points="938.38,1146.04,947.9326,1148.4374,943.3059,1145.1826,946.5608,1140.5559,938.38,1146.04" style="stroke:#181818;stroke-width:1;"/><text fill="#000000" font-family="sans-serif" font-size="13" lengthAdjust="spacing" textLength="48.001" x="1204.38" y="1112.5669">archive</text></g><!--SRC=[VLVRRkCs47ttLmpyq7LGExQJ5jq6w09fuZHPvBQnassV15eQsQmbKYMfkDwYG3-YNzWlwGmbsPAjR8104ZbpPZWyS_4xU9Z_Zg63IoaMHgGGQmCFAf4AOV8dVJyQ7Jfjf5h0T6CTfj2R2uiHQ0KRdHkOFasFEk_WJYgPYcGOwZGJJiuJXCT4AFTyTmkwC16L9lxxvr_81661L4x3qhdCdWs7w_NwE6ELF4sE2MPOVGpflqCc1ji_UCgLaod2ZR9Eg10jz0eZzgWcrYaDJrqUeN919Gr_TG1a13z1rxey68z6uowjA468j7QUo11vmUW4Io7MvoK2SBdbnLSqCfOOTJj_Tof3PR3Q36KcQ5gfP3_gfMeQ4t5S1psFKgdQ88NVQABI7NdvEgANazOPGVOQoBbRJj6yoXBMRJAlyF7pZFLJT4iT-SCQN100cjvH7nAza8fVV0GslQCwv9K8yGb3lL3IIQ88moPopXWnRGLcjyScK8K1qMN9-_Ik8-AP7LQNSfojaZr7c5wvmw0IPZyyvGms7M7oJj7QoWbRl0VbjTDNy6DvxxixFR-OtRnCoZNZ0iynMZyPdNmt68y7e_5iF3eRZLX2v4u7LhnwWV78req_eKXcf7kdwQX5yh0FeSXSRhp26kSXfSAtaCgGqUBCEp0UdFWl52pebs9A6RHziXT9tOSbYYZJ5klcNgHE18Vq4XqogRorL4UOCC9l-Jqw6C854GlfUIs4OIkXLh4aOjErk2LPM-h41sTq_9wtNojKxyRzGt1rVZ7fmztpxUpcyNRYFwTzk9wSNmQF3rFQUdcukPWquv1futv1XPvxtYqgCAbmFWCkhzYhwOidApgpuTNJEi2bSE9EAB70GZdoJ9f-kfNEP-XSXAiy2p9DAUkrYmL0ukO6w5QW9-FYe0iAQDIWoASSBP_lPw5M1KUedeN-UYQ_djy5dvudqzdDm_tK4q9-AQamE1r1HluWCSp3DIeJUym54kYHS8NR5YZEcr0ay9L2zMpHs63cDJrXTEA3dzCwCRSFSPua0UTw7p0LCkdx9Ez3jjJ4HiwaFbIfuJ_tKw8DdG_YqPrq31PfWbRqp8s_VzhGJYJ17sMyY8pI1Y9qyXNtyOCgg6s6AW1lR6krMks3pahuK1ig52uGogxHq8Q9i56voinkCx9Bz3viuxOrjijh3bHKlXKLe3MbWbkzQ3EppOu2jcQKgoW53ntTZ-MWKlewaMOinINJRGvJfCs2yJi7yAamAu8b1eRKaoWpQ3kVfz8vZ0BX3XdvX6KQBsN6D9HgPO6IVGscxABKXYb1moBNXo2irQ4iT1eiFUYZWy67HXCvgtUAOTaegCZbMQ95LB2qswbhCC9-ppXhA_FarwxVx6imIZrtphYDQggqUxcmRxdU9DYgeRgBLRHff515injwrf3TrW3iWL0hSZAKP92IdXjnfox02YtTWVI4So9SGhCnj8Womc71zoSczsc0y_q2lYaQHhTpADj0gFERGDR4JzoLVk1-RQAtKFRhEm74YLZu8RAWBnt_O2XwEmQl4jSqBb1FBGypP0UG5qI2b2RTThItJYEKeihbqECmE56WEKsnTht9UEwLtOAqodOofApZVRwGvebtKQXpZwU2HI53at8LYJRTFTl2X4i-xJPu-znfhR6awFDhMw2xdKPl-vfYsVDqNDVkrDrgIQwBf-VBxe5GlRzyLQZDZtRflJfVYr1rDuSwRvAXq3nKEBY_hMIpaDvhJkbUX5Ok50yLF59JxUIQALF6eDyh_7i8CitBZTf9HAHhbOkburZN2X5L_07Swd058gQw2QSGK-CWslZIO_qs3UJKWrUek9DbqXHkn29F7Fm0aTZO8o_tIALxJVaAIq7LddAgzndDwWlcYwCETJjW9pg5Amd6tfF3HFH8vA0UU1vNrN0xKfMMgBS2pLOA7LbSmGSuBRUkk001K_yCQ9xresslIYeEyO4lS-sSJjcRWp9J88eauTlcfkfNxHaKGotTNZ7LqWkFjLxy6hdNQ9x1QcFjwFZaUx_zehdyDxT6xxS-_Gy0]--></g></svg>