<svg xmlns="http://www.w3.org/2000/svg" xmlns:xlink="http://www.w3.org/1999/xlink" contentStyleType="text/css" data-diagram-type="SEQUENCE" height="1382px" preserveAspectRatio="none" style="width:1812px;height:1382px;background:#FFFFFF;" version="1.1" viewBox="0 0 1812 1382" width="1812px" zoomAndPan="magnify"><defs/><g><rect fill="none" height="191.9297" style="stroke:#000000;stroke-width:1.5;" width="1659.7681" x="146.5327" y="813.6172"/><g><title>Student</title><rect fill="#000000" fill-opacity="0.00000" height="1217.5781" width="8" x="31.5557" y="82.2969"/><line style="stroke:#181818;stroke-width:0.5;stroke-dasharray:5,5;" x1="35" x2="35" y1="82.2969" y2="1299.875"/></g><g><title>Browser . Frontend</title><rect fill="#000000" fill-opacity="0.00000" height="1217.5781" width="8" x="226.4155" y="82.2969"/><line style="stroke:#181818;stroke-width:0.5;stroke-dasharray:5,5;" x1="229.5327" x2="229.5327" y1="82.2969" y2="1299.875"/></g><g><title>Flask App</title><rect fill="#000000" fill-opacity="0.00000" height="1217.5781" width="8" x="351.1602" y="82.2969"/><line style="stroke:#181818;stroke-width:0.5;stroke-dasharray:5,5;" x1="354.2983" x2="354.2983" y1="82.2969" y2="1299.875"/></g><g><title>AuthController</title><rect fill="#000000" fill-opacity="0.00000" height="1217.5781" width="8" x="460.0146" y="82.2969"/><line style="stroke:#181818;stroke-width:0.5;stroke-dasharray:5,5;" x1="463.022" x2="463.022" y1="82.2969" y2="1299.875"/></g><g><title>ExamController</title><rect fill="#000000" fill-opacity="0.00000" height="1217.5781" width="8" x="589.2676" y="82.2969"/><line style="stroke:#181818;stroke-width:0.5;stroke-dasharray:5,5;" x1="593.0073" x2="593.0073" y1="82.2969" y2="1299.875"/></g><g><title>SessionController</title><rect fill="#000000" fill-opacity="0.00000" height="1217.5781" width="8" x="728.8223" y="82.2969"/><line style="stroke:#181818;stroke-width:0.5;stroke-dasharray:5,5;" x1="732.5278" x2="732.5278" y1="82.2969" y2="1299.875"/></g><g><title>ProctoringEngine</title><rect fill="#000000" fill-opacity="0.00000" height="1217.5781" width="8" x="874.0679" y="82.2969"/><line style="stroke:#181818;stroke-width:0.5;stroke-dasharray:5,5;" x1="877.1167" x2="877.1167" y1="82.2969" y2="1299.875"/></g><g><title>ReportController</title><rect fill="#000000" fill-opacity="0.00000" height="1217.5781" width="8" x="1016.1245" y="82.2969"/><line style="stroke:#181818;stroke-width:0.5;stroke-dasharray:5,5;" x1="1020.019" x2="1020.019" y1="82.2969" y2="1299.875"/></g><g><title>SQLite DB</title><rect fill="#000000" fill-opacity="0.00000" height="1217.5781" width="8" x="1167.7061" y="82.2969"/><line style="stroke:#181818;stroke-width:0.5;stroke-dasharray:5,5;" x1="1171.4395" x2="1171.4395" y1="82.2969" y2="1299.875"/></g><g><title>FaceRecognitionService</title><rect fill="#000000" fill-opacity="0.00000" height="1217.5781" width="8" x="1306.8496" y="82.2969"/><line style="stroke:#181818;stroke-width:0.5;stroke-dasharray:5,5;" x1="1309.9727" x2="1309.9727" y1="82.2969" y2="1299.875"/></g><g><title>FaceDetector</title><rect fill="#000000" fill-opacity="0.00000" height="1217.5781" width="8" x="1461.6997" y="82.2969"/><line style="stroke:#181818;stroke-width:0.5;stroke-dasharray:5,5;" x1="1464.7266" x2="1464.7266" y1="82.2969" y2="1299.875"/></g><g><title>HeadPoseEstimator</title><rect fill="#000000" fill-opacity="0.00000" height="1217.5781" width="8" x="1601.2065" y="82.2969"/><line style="stroke:#181818;stroke-width:0.5;stroke-dasharray:5,5;" x1="1604.6729" x2="1604.6729" y1="82.2969" y2="1299.875"/></g><g><title>VoiceMonitor</title><rect fill="#000000" fill-opacity="0.00000" height="1217.5781" width="8" x="1739.5205" y="82.2969"/><line style="stroke:#181818;stroke-width:0.5;stroke-dasharray:5,5;" x1="1742.7402" x2="1742.7402" y1="82.2969" y2="1299.875"/></g><g class="participant participant-head" data-participant="S"><text fill="#000000" font-family="sans-serif" font-size="14" lengthAdjust="spacing" textLength="55.1113" x="5" y="78.9951">Student</text><ellipse cx="35.5557" cy="21.5" fill="#E2E2F0" rx="16" ry="16" style="stroke:#181818;stroke-width:0.5;"/><path d="M35.5557,41.5 C39.5557,41.5 42.5557,41.5 46.5557,37.5 C54.5557,37.5 62.5557,45.5 62.5557,53.5 L62.5557,57.5 C62.5557,61.5 58.5557,65.5 54.5557,65.5 L16.5557,65.5 C12.5557,65.5 8.5557,61.5 8.5557,57.5 L8.5557,53.5 C8.5557,45.5 16.5557,37.5 24.5557,37.5 C28.5557,41.5 31.5557,41.5 35.5557,41.5" fill="#E2E2F0" style="stroke:#181818;stroke-width:0.5;"/></g><g class="participant participant-tail" data-participant="S"><text fill="#000000" font-family="sans-serif" font-size="14" lengthAdjust="spacing" textLength="55.1113" x="5" y="1311.8701">Student</text><ellipse cx="35.5557" cy="1331.6719" fill="#E2E2F0" rx="16" ry="16" style="stroke:#181818;stroke-width:0.5;"/><path d="M35.5557,1351.6719 C39.5557,1351.6719 42.5557,1351.6719 46.5557,1347.6719 C54.5557,1347.6719 62.5557,1355.6719 62.5557,1363.6719 L62.5557,1367.6719 C62.5557,1371.6719 58.5557,1375.6719 54.5557,1375.6719 L16.5557,1375.6719 C12.5557,1375.6719 8.5557,1371.6719 8.5557,1367.6719 L8.5557,1363.6719 C8.5557,1355.6719 16.5557,1347.6719 24.5557,1347.6719 C28.5557,1351.6719 31.5557,1351.6719 35.5557,1351.6719" fill="#E2E2F0" style="stroke:#181818;stroke-width:0.5;"/></g><g class="participant participant-head" data-participant="FE"><rect fill="#EEF3FF" height="30.2969" rx="2.5" ry="2.5" style="stroke:#243142;stroke-width:0.5;" width="147.7656" x="156.5327" y="51"/><text fill="#000000" font-family="sans-serif" font-size="14" lengthAdjust="spacing" textLength="133.7656" x="163.5327" y="70.9951">Browser / Frontend</text></g><g class="participant participant-tail" data-participant="FE"><rect fill="#EEF3FF" height="30.2969" rx="2.5" ry="2.5" style="stroke:#243142;stroke-width:0.5;" width="147.7656" x="156.5327" y="1298.875"/><text fill="#000000" font-family="sans-serif" font-size="14" lengthAdjust="spacing" textLength="133.7656" x="163.5327" y="1318.8701">Browser / Frontend</text></g><g class="participant participant-head" data-participant="BE"><rect fill="#EEF3FF" height="30.2969" rx="2.5" ry="2.5" style="stroke:#243142;stroke-width:0.5;" width="81.7236" x="314.2983" y="51"/><text fill="#000000" font-family="sans-serif" font-size="14" lengthAdjust="spacing" textLength="67.7236" x="321.2983" y="70.9951">Flask App</text></g><g class="participant participant-tail" data-participant="BE"><rect fill="#EEF3FF" height="30.2969" rx="2.5" ry="2.5" style="stroke:#243142;stroke-width:0.5;" width="81.7236" x="314.2983" y="1298.875"/><text fill="#000000" font-family="sans-serif" font-size="14" lengthAdjust="spacing" textLength="67.7236" x="321.2983" y="1318.8701">Flask App</text></g><g class="participant participant-head" data-participant="AUTH"><rect fill="#EEF3FF" height="30.2969" rx="2.5" ry="2.5" style="stroke:#243142;stroke-width:0.5;" width="115.9854" x="406.022" y="51"/><text fill="#000000" font-family="sans-serif" font-size="14" lengthAdjust="spacing" textLength="101.9854" x="413.022" y="70.9951">AuthController</text></g><g class="participant participant-tail" data-participant="AUTH"><rect fill="#EEF3FF" height="30.2969" rx="2.5" ry="2.5" style="stroke:#243142;stroke-width:0.5;" width="115.9854" x="406.022" y="1298.875"/><text fill="#000000" font-family="sans-serif" font-size="14" lengthAdjust="spacing" textLength="101.9854" x="413.022" y="1318.8701">AuthController</text></g><g class="participant participant-head" data-participant="EXAM"><rect fill="#EEF3FF" height="30.2969" rx="2.5" ry="2.5" style="stroke:#243142;stroke-width:0.5;" width="122.5205" x="532.0073" y="51"/><text fill="#000000" font-family="sans-serif" font-size="14" lengthAdjust="spacing" textLength="108.5205" x="539.0073" y="70.9951">ExamController</text></g><g class="participant participant-tail" data-participant="EXAM"><rect fill="#EEF3FF" height="30.2969" rx="2.5" ry="2.5" style="stroke:#243142;stroke-width:0.5;" width="122.5205" x="532.0073" y="1298.875"/><text fill="#000000" font-family="sans-serif" font-size="14" lengthAdjust="spacing" textLength="108.5205" x="539.0073" y="1318.8701">ExamController</text></g><g class="participant participant-head" data-participant="SESSION"><rect fill="#EEF3FF" height="30.2969" rx="2.5" ry="2.5" style="stroke:#243142;stroke-width:0.5;" width="136.5889" x="664.5278" y="51"/><text fill="#000000" font-family="sans-serif" font-size="14" lengthAdjust="spacing" textLength="122.5889" x="671.5278" y="70.9951">SessionController</text></g><g class="participant participant-tail" data-participant="SESSION"><rect fill="#EEF3FF" height="30.2969" rx="2.5" ry="2.5" style="stroke:#243142;stroke-width:0.5;" width="136.5889" x="664.5278" y="1298.875"/><text fill="#000000" font-family="sans-serif" font-size="14" lengthAdjust="spacing" textLength="122.5889" x="671.5278" y="1318.8701">SessionController</text></g><g class="participant participant-head" data-participant="PROCTOR"><rect fill="#EEF3FF" height="30.2969" rx="2.5" ry="2.5" style="stroke:#243142;stroke-width:0.5;" width="133.9023" x="811.1167" y="51"/><text fill="#000000" font-family="sans-serif" font-size="14" lengthAdjust="spacing" textLength="119.9023" x="818.1167" y="70.9951">ProctoringEngine</text></g><g class="participant participant-tail" data-participant="PROCTOR"><rect fill="#EEF3FF" height="30.2969" rx="2.5" ry="2.5" style="stroke:#243142;stroke-width:0.5;" width="133.9023" x="811.1167" y="1298.875"/><text fill="#000000" font-family="sans-serif" font-size="14" lengthAdjust="spacing" textLength="119.9023" x="818.1167" y="1318.8701">ProctoringEngine</text></g><g class="participant participant-head" data-participant="REPORT"><rect fill="#EEF3FF" height="30.2969" rx="2.5" ry="2.5" style="stroke:#243142;stroke-width:0.5;" width="130.2109" x="955.019" y="51"/><text fill="#000000" font-family="sans-serif" font-size="14" lengthAdjust="spacing" textLength="116.2109" x="962.019" y="70.9951">ReportController</text></g><g class="participant participant-tail" data-participant="REPORT"><rect fill="#EEF3FF" height="30.2969" rx="2.5" ry="2.5" style="stroke:#243142;stroke-width:0.5;" width="130.2109" x="955.019" y="1298.875"/><text fill="#000000" font-family="sans-serif" font-size="14" lengthAdjust="spacing" textLength="116.2109" x="962.019" y="1318.8701">ReportController</text></g><g class="participant participant-head" data-participant="DB"><text fill="#000000" font-family="sans-serif" font-size="14" lengthAdjust="spacing" textLength="70.5332" x="1133.4395" y="78.9951">SQLite DB</text><path d="M1153.7061,30 C1153.7061,20 1171.7061,20 1171.7061,20 C1171.7061,20 1189.7061,20 1189.7061,30 L1189.7061,56 C1189.7061,66 1171.7061,66 1171.7061,66 C1171.7061,66 1153.7061,66 1153.7061,56 L1153.7061,30" fill="#E2E2F0" style="stroke:#181818;stroke-width:0.5;"/><path d="M1153.7061,30 C1153.7061,40 1171.7061,40 1171.7061,40 C1171.7061,40 1189.7061,40 1189.7061,30" fill="none" style="stroke:#181818;stroke-width:0.5;"/></g><g class="participant participant-tail" data-participant="DB"><text fill="#000000" font-family="sans-serif" font-size="14" lengthAdjust="spacing" textLength="70.5332" x="1133.4395" y="1311.8701">SQLite DB</text><path d="M1153.7061,1325.1719 C1153.7061,1315.1719 1171.7061,1315.1719 1171.7061,1315.1719 C1171.7061,1315.1719 1189.7061,1315.1719 1189.7061,1325.1719 L1189.7061,1351.1719 C1189.7061,1361.1719 1171.7061,1361.1719 1171.7061,1361.1719 C1171.7061,1361.1719 1153.7061,1361.1719 1153.7061,1351.1719 L1153.7061,1325.1719" fill="#E2E2F0" style="stroke:#181818;stroke-width:0.5;"/><path d="M1153.7061,1325.1719 C1153.7061,1335.1719 1171.7061,1335.1719 1171.7061,1335.1719 C1171.7061,1335.1719 1189.7061,1335.1719 1189.7061,1325.1719" fill="none" style="stroke:#181818;stroke-width:0.5;"/></g><g class="participant participant-head" data-participant="FaceRecognitionService"><rect fill="#EEF3FF" height="30.2969" rx="2.5" ry="2.5" style="stroke:#243142;stroke-width:0.5;" width="181.7539" x="1219.9727" y="51"/><text fill="#000000" font-family="sans-serif" font-size="14" lengthAdjust="spacing" textLength="167.7539" x="1226.9727" y="70.9951">FaceRecognitionService</text></g><g class="participant participant-tail" data-participant="FaceRecognitionService"><rect fill="#EEF3FF" height="30.2969" rx="2.5" ry="2.5" style="stroke:#243142;stroke-width:0.5;" width="181.7539" x="1219.9727" y="1298.875"/><text fill="#000000" font-family="sans-serif" font-size="14" lengthAdjust="spacing" textLength="167.7539" x="1226.9727" y="1318.8701">FaceRecognitionService</text></g><g class="participant participant-head" data-participant="FaceDetector"><rect fill="#EEF3FF" height="30.2969" rx="2.5" ry="2.5" style="stroke:#243142;stroke-width:0.5;" width="107.9463" x="1411.7266" y="51"/><text fill="#000000" font-family="sans-serif" font-size="14" lengthAdjust="spacing" textLength="93.9463" x="1418.7266" y="70.9951">FaceDetector</text></g><g class="participant participant-tail" data-participant="FaceDetector"><rect fill="#EEF3FF" height="30.2969" rx="2.5" ry="2.5" style="stroke:#243142;stroke-width:0.5;" width="107.9463" x="1411.7266" y="1298.875"/><text fill="#000000" font-family="sans-serif" font-size="14" lengthAdjust="spacing" textLength="93.9463" x="1418.7266" y="1318.8701">FaceDetector</text></g><g class="participant participant-head" data-participant="HeadPoseEstimator"><rect fill="#EEF3FF" height="30.2969" rx="2.5" ry="2.5" style="stroke:#243142;stroke-width:0.5;" width="151.0674" x="1529.6729" y="51"/><text fill="#000000" font-family="sans-serif" font-size="14" lengthAdjust="spacing" textLength="137.0674" x="1536.6729" y="70.9951">HeadPoseEstimator</text></g><g class="participant participant-tail" data-participant="HeadPoseEstimator"><rect fill="#EEF3FF" height="30.2969" rx="2.5" ry="2.5" style="stroke:#243142;stroke-width:0.5;" width="151.0674" x="1529.6729" y="1298.875"/><text fill="#000000" font-family="sans-serif" font-size="14" lengthAdjust="spacing" textLength="137.0674" x="1536.6729" y="1318.8701">HeadPoseEstimator</text></g><g class="participant participant-head" data-participant="VoiceMonitor"><rect fill="#EEF3FF" height="30.2969" rx="2.5" ry="2.5" style="stroke:#243142;stroke-width:0.5;" width="105.5605" x="1690.7402" y="51"/><text fill="#000000" font-family="sans-serif" font-size="14" lengthAdjust="spacing" textLength="91.5605" x="1697.7402" y="70.9951">VoiceMonitor</text></g><g class="participant participant-tail" data-participant="VoiceMonitor"><rect fill="#EEF3FF" height="30.2969" rx="2.5" ry="2.5" style="stroke:#243142;stroke-width:0.5;" width="105.5605" x="1690.7402" y="1298.875"/><text fill="#000000" font-family="sans-serif" font-size="14" lengthAdjust="spacing" textLength="91.5605" x="1697.7402" y="1318.8701">VoiceMonitor</text></g><g class="message" data-participant-1="S" data-participant-2="FE"><polygon fill="#2F6BFF" points="218.4155,109.4297,228.4155,113.4297,218.4155,117.4297,222.4155,113.4297" style="stroke:#2F6BFF;stroke-width:1;"/><line style="stroke:#2F6BFF;stroke-width:1;" x1="35.5557" x2="224.4155" y1="113.4297" y2="113.4297"/><text fill="#000000" font-family="sans-serif" font-size="13" lengthAdjust="spacing" textLength="110.3413" x="42.5557" y="108.3638">Open Login Page</text></g><g class="message" data-participant-1="FE" data-participant-2="AUTH"><polygon fill="#2F6BFF" points="452.0146,138.5625,462.0146,142.5625,452.0146,146.5625,456.0146,142.5625" style="stroke:#2F6BFF;stroke-width:1;"/><line style="stroke:#2F6BFF;stroke-width:1;" x1="230.4155" x2="458.0146" y1="142.5625" y2="142.5625"/><text fill="#000000" font-family="sans-serif" font-size="13" lengthAdjust="spacing" textLength="186.8115" x="237.4155" y="137.4966">POST /api/login (email, pass)</text></g><g class="message" data-participant-1="AUTH" data-participant-2="DB"><polygon fill="#2F6BFF" points="1159.7061,182.8281,1169.7061,186.8281,1159.7061,190.8281,1163.7061,186.8281" style="stroke:#2F6BFF;stroke-width:1;"/><line style="stroke:#2F6BFF;stroke-width:1;" x1="464.0146" x2="1165.7061" y1="186.8281" y2="186.8281"/><text fill="#000000" font-family="sans-serif" font-size="13" lengthAdjust="spacing" textLength="85.8838" x="471.0146" y="166.6294">Validate user</text><text fill="#000000" font-family="sans-serif" font-size="13" lengthAdjust="spacing" textLength="82.8369" x="471.0146" y="181.7622">Retrieve row</text></g><g class="message" data-participant-1="DB" data-participant-2="AUTH"><polygon fill="#2F6BFF" points="475.0146,211.9609,465.0146,215.9609,475.0146,219.9609,471.0146,215.9609" style="stroke:#2F6BFF;stroke-width:1;"/><line style="stroke:#2F6BFF;stroke-width:1;stroke-dasharray:2,2;" x1="469.0146" x2="1170.7061" y1="215.9609" y2="215.9609"/><text fill="#000000" font-family="sans-serif" font-size="13" lengthAdjust="spacing" textLength="75.8037" x="481.0146" y="210.895">User record</text></g><g class="message" data-participant-1="AUTH" data-participant-2="FE"><polygon fill="#2F6BFF" points="241.4155,241.0938,231.4155,245.0938,241.4155,249.0938,237.4155,245.0938" style="stroke:#2F6BFF;stroke-width:1;"/><line style="stroke:#2F6BFF;stroke-width:1;" x1="235.4155" x2="463.0146" y1="245.0938" y2="245.0938"/><text fill="#000000" font-family="sans-serif" font-size="13" lengthAdjust="spacing" textLength="65.5776" x="247.4155" y="240.0278">JWT token</text></g><g class="message" data-participant-1="S" data-participant-2="FE"><polygon fill="#2F6BFF" points="218.4155,270.2266,228.4155,274.2266,218.4155,278.2266,222.4155,274.2266" style="stroke:#2F6BFF;stroke-width:1;"/><line style="stroke:#2F6BFF;stroke-width:1;" x1="35.5557" x2="224.4155" y1="274.2266" y2="274.2266"/><text fill="#000000" font-family="sans-serif" font-size="13" lengthAdjust="spacing" textLength="113.6484" x="42.5557" y="269.1606">Go to Verify Page</text></g><g class="message" data-participant-1="FE" data-participant-2="AUTH"><polygon fill="#2F6BFF" points="452.0146,299.3594,462.0146,303.3594,452.0146,307.3594,456.0146,303.3594" style="stroke:#2F6BFF;stroke-width:1;"/><line style="stroke:#2F6BFF;stroke-width:1;" x1="230.4155" x2="458.0146" y1="303.3594" y2="303.3594"/><text fill="#000000" font-family="sans-serif" font-size="13" lengthAdjust="spacing" textLength="190.4932" x="237.4155" y="298.2935">POST /api/verify (face image)</text></g><g class="message" data-participant-1="AUTH" data-participant-2="FaceRecognitionService"><polygon fill="#2F6BFF" points="1298.8496,328.4922,1308.8496,332.4922,1298.8496,336.4922,1302.8496,332.4922" style="stroke:#2F6BFF;stroke-width:1;"/><line style="stroke:#2F6BFF;stroke-width:1;" x1="464.0146" x2="1304.8496" y1="332.4922" y2="332.4922"/><text fill="#000000" font-family="sans-serif" font-size="13" lengthAdjust="spacing" textLength="129.854" x="471.0146" y="327.4263">Compare encodings</text></g><g class="message" data-participant-1="AUTH" data-participant-2="FE"><polygon fill="#2F6BFF" points="241.4155,357.625,231.4155,361.625,241.4155,365.625,237.4155,361.625" style="stroke:#2F6BFF;stroke-width:1;"/><line style="stroke:#2F6BFF;stroke-width:1;stroke-dasharray:2,2;" x1="235.4155" x2="463.0146" y1="361.625" y2="361.625"/><text fill="#000000" font-family="sans-serif" font-size="13" lengthAdjust="spacing" textLength="118.936" x="247.4155" y="356.5591">Verification Result</text></g><g class="message" data-participant-1="S" data-participant-2="FE"><polygon fill="#2F6BFF" points="218.4155,386.7578,228.4155,390.7578,218.4155,394.7578,222.4155,390.7578" style="stroke:#2F6BFF;stroke-width:1;"/><line style="stroke:#2F6BFF;stroke-width:1;" x1="35.5557" x2="224.4155" y1="390.7578" y2="390.7578"/><text fill="#000000" font-family="sans-serif" font-size="13" lengthAdjust="spacing" textLength="113.4326" x="42.5557" y="385.6919">Open Home Page</text></g><g class="message" data-participant-1="FE" data-participant-2="EXAM"><polygon fill="#2F6BFF" points="581.2676,415.8906,591.2676,419.8906,581.2676,423.8906,585.2676,419.8906" style="stroke:#2F6BFF;stroke-width:1;"/><line style="stroke:#2F6BFF;stroke-width:1;" x1="230.4155" x2="587.2676" y1="419.8906" y2="419.8906"/><text fill="#000000" font-family="sans-serif" font-size="13" lengthAdjust="spacing" textLength="90.689" x="237.4155" y="414.8247">GET /api/tests</text></g><g class="message" data-participant-1="EXAM" data-participant-2="DB"><polygon fill="#2F6BFF" points="1159.7061,445.0234,1169.7061,449.0234,1159.7061,453.0234,1163.7061,449.0234" style="stroke:#2F6BFF;stroke-width:1;"/><line style="stroke:#2F6BFF;stroke-width:1;" x1="593.2676" x2="1165.7061" y1="449.0234" y2="449.0234"/><text fill="#000000" font-family="sans-serif" font-size="13" lengthAdjust="spacing" textLength="99.6392" x="600.2676" y="443.9575">Fetch exam list</text></g><g class="message" data-participant-1="DB" data-participant-2="EXAM"><polygon fill="#2F6BFF" points="604.2676,474.1563,594.2676,478.1563,604.2676,482.1563,600.2676,478.1563" style="stroke:#2F6BFF;stroke-width:1;"/><line style="stroke:#2F6BFF;stroke-width:1;stroke-dasharray:2,2;" x1="598.2676" x2="1170.7061" y1="478.1563" y2="478.1563"/><text fill="#000000" font-family="sans-serif" font-size="13" lengthAdjust="spacing" textLength="71.373" x="610.2676" y="473.0903">Exam rows</text></g><g class="message" data-participant-1="EXAM" data-participant-2="FE"><polygon fill="#2F6BFF" points="241.4155,503.2891,231.4155,507.2891,241.4155,511.2891,237.4155,507.2891" style="stroke:#2F6BFF;stroke-width:1;"/><line style="stroke:#2F6BFF;stroke-width:1;stroke-dasharray:2,2;" x1="235.4155" x2="592.2676" y1="507.2891" y2="507.2891"/><text fill="#000000" font-family="sans-serif" font-size="13" lengthAdjust="spacing" textLength="107.6309" x="247.4155" y="502.2231">Return exam list</text></g><g class="message" data-participant-1="S" data-participant-2="FE"><polygon fill="#2F6BFF" points="218.4155,532.4219,228.4155,536.4219,218.4155,540.4219,222.4155,536.4219" style="stroke:#2F6BFF;stroke-width:1;"/><line style="stroke:#2F6BFF;stroke-width:1;" x1="35.5557" x2="224.4155" y1="536.4219" y2="536.4219"/><text fill="#000000" font-family="sans-serif" font-size="13" lengthAdjust="spacing" textLength="80.5581" x="42.5557" y="531.356">Select exam</text></g><g class="message" data-participant-1="FE" data-participant-2="SESSION"><polygon fill="#2F6BFF" points="720.8223,561.5547,730.8223,565.5547,720.8223,569.5547,724.8223,565.5547" style="stroke:#2F6BFF;stroke-width:1;"/><line style="stroke:#2F6BFF;stroke-width:1;" x1="230.4155" x2="726.8223" y1="565.5547" y2="565.5547"/><text fill="#000000" font-family="sans-serif" font-size="13" lengthAdjust="spacing" textLength="125.5566" x="237.4155" y="560.4888">POST /session/start</text></g><g class="message" data-participant-1="SESSION" data-participant-2="DB"><polygon fill="#2F6BFF" points="1159.7061,590.6875,1169.7061,594.6875,1159.7061,598.6875,1163.7061,594.6875" style="stroke:#2F6BFF;stroke-width:1;"/><line style="stroke:#2F6BFF;stroke-width:1;" x1="732.8223" x2="1165.7061" y1="594.6875" y2="594.6875"/><text fill="#000000" font-family="sans-serif" font-size="13" lengthAdjust="spacing" textLength="117.603" x="739.8223" y="589.6216">Insert session row</text></g><g class="message" data-participant-1="DB" data-participant-2="SESSION"><polygon fill="#2F6BFF" points="743.8223,619.8203,733.8223,623.8203,743.8223,627.8203,739.8223,623.8203" style="stroke:#2F6BFF;stroke-width:1;"/><line style="stroke:#2F6BFF;stroke-width:1;stroke-dasharray:2,2;" x1="737.8223" x2="1170.7061" y1="623.8203" y2="623.8203"/><text fill="#000000" font-family="sans-serif" font-size="13" lengthAdjust="spacing" textLength="67.5771" x="749.8223" y="618.7544">Session ID</text></g><g class="message" data-participant-1="SESSION" data-participant-2="FE"><polygon fill="#2F6BFF" points="241.4155,648.9531,231.4155,652.9531,241.4155,656.9531,237.4155,652.9531" style="stroke:#2F6BFF;stroke-width:1;"/><line style="stroke:#2F6BFF;stroke-width:1;stroke-dasharray:2,2;" x1="235.4155" x2="731.8223" y1="652.9531" y2="652.9531"/><text fill="#000000" font-family="sans-serif" font-size="13" lengthAdjust="spacing" textLength="101.7402" x="247.4155" y="647.8872">Session Started</text></g><g class="message" data-participant-1="FE" data-participant-2="EXAM"><polygon fill="#2F6BFF" points="581.2676,678.0859,591.2676,682.0859,581.2676,686.0859,585.2676,682.0859" style="stroke:#2F6BFF;stroke-width:1;"/><line style="stroke:#2F6BFF;stroke-width:1;" x1="230.4155" x2="587.2676" y1="682.0859" y2="682.0859"/><text fill="#000000" font-family="sans-serif" font-size="13" lengthAdjust="spacing" textLength="171.1646" x="237.4155" y="677.02">GET /exam/{id}/questions</text></g><g class="message" data-participant-1="EXAM" data-participant-2="DB"><polygon fill="#2F6BFF" points="1159.7061,707.2188,1169.7061,711.2188,1159.7061,715.2188,1163.7061,711.2188" style="stroke:#2F6BFF;stroke-width:1;"/><line style="stroke:#2F6BFF;stroke-width:1;" x1="593.2676" x2="1165.7061" y1="711.2188" y2="711.2188"/><text fill="#000000" font-family="sans-serif" font-size="13" lengthAdjust="spacing" textLength="98.4839" x="600.2676" y="706.1528">Load questions</text></g><g class="message" data-participant-1="DB" data-participant-2="EXAM"><polygon fill="#2F6BFF" points="604.2676,736.3516,594.2676,740.3516,604.2676,744.3516,600.2676,740.3516" style="stroke:#2F6BFF;stroke-width:1;"/><line style="stroke:#2F6BFF;stroke-width:1;stroke-dasharray:2,2;" x1="598.2676" x2="1170.7061" y1="740.3516" y2="740.3516"/><text fill="#000000" font-family="sans-serif" font-size="13" lengthAdjust="spacing" textLength="82.145" x="610.2676" y="735.2856">Question set</text></g><g class="message" data-participant-1="EXAM" data-participant-2="FE"><polygon fill="#2F6BFF" points="241.4155,765.4844,231.4155,769.4844,241.4155,773.4844,237.4155,769.4844" style="stroke:#2F6BFF;stroke-width:1;"/><line style="stroke:#2F6BFF;stroke-width:1;stroke-dasharray:2,2;" x1="235.4155" x2="592.2676" y1="769.4844" y2="769.4844"/><text fill="#000000" font-family="sans-serif" font-size="13" lengthAdjust="spacing" textLength="129.2129" x="247.4155" y="764.4185">Send question JSON</text></g><g class="message" data-participant-1="FE" data-participant-2="PROCTOR"><polygon fill="#2F6BFF" points="866.0679,794.6172,876.0679,798.6172,866.0679,802.6172,870.0679,798.6172" style="stroke:#2F6BFF;stroke-width:1;"/><line style="stroke:#2F6BFF;stroke-width:1;" x1="230.4155" x2="872.0679" y1="798.6172" y2="798.6172"/><text fill="#000000" font-family="sans-serif" font-size="13" lengthAdjust="spacing" textLength="140.1563" x="237.4155" y="793.5513">Start camera + audio</text></g><path d="M146.5327,813.6172 L223.1567,813.6172 L223.1567,820.75 L213.1567,830.75 L146.5327,830.75 L146.5327,813.6172" fill="#EEEEEE" style="stroke:#000000;stroke-width:1.5;"/><rect fill="none" height="191.9297" style="stroke:#000000;stroke-width:1.5;" width="1659.7681" x="146.5327" y="813.6172"/><text fill="#000000" font-family="sans-serif" font-size="13" font-weight="bold" lengthAdjust="spacing" textLength="31.624" x="161.5327" y="826.6841">loop</text><text fill="#000000" font-family="sans-serif" font-size="11" font-weight="bold" lengthAdjust="spacing" textLength="89.5952" x="238.1567" y="825.8276">[Every 300ms]</text><g class="message" data-participant-1="FE" data-participant-2="PROCTOR"><polygon fill="#2F6BFF" points="866.0679,847.8828,876.0679,851.8828,866.0679,855.8828,870.0679,851.8828" style="stroke:#2F6BFF;stroke-width:1;"/><line style="stroke:#2F6BFF;stroke-width:1;" x1="230.4155" x2="872.0679" y1="851.8828" y2="851.8828"/><text fill="#000000" font-family="sans-serif" font-size="13" lengthAdjust="spacing" textLength="244.5562" x="237.4155" y="846.8169">POST /analyze_frame (base64 image)</text></g><g class="message" data-participant-1="PROCTOR" data-participant-2="FaceDetector"><polygon fill="#2F6BFF" points="1453.6997,877.0156,1463.6997,881.0156,1453.6997,885.0156,1457.6997,881.0156" style="stroke:#2F6BFF;stroke-width:1;"/><line style="stroke:#2F6BFF;stroke-width:1;" x1="878.0679" x2="1459.6997" y1="881.0156" y2="881.0156"/><text fill="#000000" font-family="sans-serif" font-size="13" lengthAdjust="spacing" textLength="89.0957" x="885.0679" y="875.9497">detectFaces()</text></g><g class="message" data-participant-1="PROCTOR" data-participant-2="HeadPoseEstimator"><polygon fill="#2F6BFF" points="1593.2065,906.1484,1603.2065,910.1484,1593.2065,914.1484,1597.2065,910.1484" style="stroke:#2F6BFF;stroke-width:1;"/><line style="stroke:#2F6BFF;stroke-width:1;" x1="878.0679" x2="1599.2065" y1="910.1484" y2="910.1484"/><text fill="#000000" font-family="sans-serif" font-size="13" lengthAdjust="spacing" textLength="67.3486" x="885.0679" y="905.0825">estimate()</text></g><g class="message" data-participant-1="PROCTOR" data-participant-2="VoiceMonitor"><polygon fill="#2F6BFF" points="1731.5205,935.2813,1741.5205,939.2813,1731.5205,943.2813,1735.5205,939.2813" style="stroke:#2F6BFF;stroke-width:1;"/><line style="stroke:#2F6BFF;stroke-width:1;" x1="878.0679" x2="1737.5205" y1="939.2813" y2="939.2813"/><text fill="#000000" font-family="sans-serif" font-size="13" lengthAdjust="spacing" textLength="87.3374" x="885.0679" y="934.2153">detectVoice()</text></g><g class="message" data-participant-1="PROCTOR" data-participant-2="DB"><polygon fill="#2F6BFF" points="1159.7061,964.4141,1169.7061,968.4141,1159.7061,972.4141,1163.7061,968.4141" style="stroke:#2F6BFF;stroke-width:1;"/><line style="stroke:#2F6BFF;stroke-width:1;" x1="878.0679" x2="1165.7061" y1="968.4141" y2="968.4141"/><text fill="#000000" font-family="sans-serif" font-size="13" lengthAdjust="spacing" textLength="133.8149" x="885.0679" y="963.3481">Log violation (if any)</text></g><g class="message" data-participant-1="PROCTOR" data-participant-2="FE"><polygon fill="#2F6BFF" points="241.4155,993.5469,231.4155,997.5469,241.4155,1001.5469,237.4155,997.5469" style="stroke:#2F6BFF;stroke-width:1;"/><line style="stroke:#2F6BFF;stroke-width:1;stroke-dasharray:2,2;" x1="235.4155" x2="877.0679" y1="997.5469" y2="997.5469"/><text fill="#000000" font-family="sans-serif" font-size="13" lengthAdjust="spacing" textLength="192.3276" x="247.4155" y="992.481">Detection result (faces, pose)</text></g><g class="message" data-participant-1="S" data-participant-2="FE"><polygon fill="#2F6BFF" points="218.4155,1029.6797,228.4155,1033.6797,218.4155,1037.6797,222.4155,1033.6797" style="stroke:#2F6BFF;stroke-width:1;"/><line style="stroke:#2F6BFF;stroke-width:1;" x1="35.5557" x2="224.4155" y1="1033.6797" y2="1033.6797"/><text fill="#000000" font-family="sans-serif" font-size="13" lengthAdjust="spacing" textLength="125.125" x="42.5557" y="1028.6138">Click "Submit Test"</text></g><g class="message" data-participant-1="FE" data-participant-2="SESSION"><polygon fill="#2F6BFF" points="720.8223,1058.8125,730.8223,1062.8125,720.8223,1066.8125,724.8223,1062.8125" style="stroke:#2F6BFF;stroke-width:1;"/><line style="stroke:#2F6BFF;stroke-width:1;" x1="230.4155" x2="726.8223" y1="1062.8125" y2="1062.8125"/><text fill="#000000" font-family="sans-serif" font-size="13" lengthAdjust="spacing" textLength="187.77" x="237.4155" y="1057.7466">POST /session/end (answers)</text></g><g class="message" data-participant-1="SESSION" data-participant-2="DB"><polygon fill="#2F6BFF" points="1159.7061,1103.0781,1169.7061,1107.0781,1159.7061,1111.0781,1163.7061,1107.0781" style="stroke:#2F6BFF;stroke-width:1;"/><line style="stroke:#2F6BFF;stroke-width:1;" x1="732.8223" x2="1165.7061" y1="1107.0781" y2="1107.0781"/><text fill="#000000" font-family="sans-serif" font-size="13" lengthAdjust="spacing" textLength="99.3345" x="739.8223" y="1086.8794">Update session</text><text fill="#000000" font-family="sans-serif" font-size="13" lengthAdjust="spacing" textLength="100.0645" x="739.8223" y="1102.0122">Calculate score</text></g><g class="message" data-participant-1="DB" data-participant-2="SESSION"><polygon fill="#2F6BFF" points="743.8223,1132.2109,733.8223,1136.2109,743.8223,1140.2109,739.8223,1136.2109" style="stroke:#2F6BFF;stroke-width:1;"/><line style="stroke:#2F6BFF;stroke-width:1;stroke-dasharray:2,2;" x1="737.8223" x2="1170.7061" y1="1136.2109" y2="1136.2109"/><text fill="#000000" font-family="sans-serif" font-size="13" lengthAdjust="spacing" textLength="52.3301" x="749.8223" y="1131.145">Success</text></g><g class="message" data-participant-1="SESSION" data-participant-2="REPORT"><polygon fill="#2F6BFF" points="1008.1245,1161.3438,1018.1245,1165.3438,1008.1245,1169.3438,1012.1245,1165.3438" style="stroke:#2F6BFF;stroke-width:1;"/><line style="stroke:#2F6BFF;stroke-width:1;" x1="732.8223" x2="1014.1245" y1="1165.3438" y2="1165.3438"/><text fill="#000000" font-family="sans-serif" font-size="13" lengthAdjust="spacing" textLength="104.8379" x="739.8223" y="1160.2778">Generate report</text></g><g class="message" data-participant-1="REPORT" data-participant-2="DB"><polygon fill="#2F6BFF" points="1159.7061,1190.4766,1169.7061,1194.4766,1159.7061,1198.4766,1163.7061,1194.4766" style="stroke:#2F6BFF;stroke-width:1;"/><line style="stroke:#2F6BFF;stroke-width:1;" x1="1020.1245" x2="1165.7061" y1="1194.4766" y2="1194.4766"/><text fill="#000000" font-family="sans-serif" font-size="13" lengthAdjust="spacing" textLength="127.5815" x="1027.1245" y="1189.4106">Insert report record</text></g><g class="message" data-participant-1="DB" data-participant-2="REPORT"><polygon fill="#2F6BFF" points="1031.1245,1219.6094,1021.1245,1223.6094,1031.1245,1227.6094,1027.1245,1223.6094" style="stroke:#2F6BFF;stroke-width:1;"/><line style="stroke:#2F6BFF;stroke-width:1;stroke-dasharray:2,2;" x1="1025.1245" x2="1170.7061" y1="1223.6094" y2="1223.6094"/><text fill="#000000" font-family="sans-serif" font-size="13" lengthAdjust="spacing" textLength="52.3301" x="1037.1245" y="1218.5435">Success</text></g><g class="message" data-participant-1="REPORT" data-participant-2="FE"><polygon fill="#2F6BFF" points="241.4155,1248.7422,231.4155,1252.7422,241.4155,1256.7422,237.4155,1252.7422" style="stroke:#2F6BFF;stroke-width:1;"/><line style="stroke:#2F6BFF;stroke-width:1;stroke-dasharray:2,2;" x1="235.4155" x2="1019.1245" y1="1252.7422" y2="1252.7422"/><text fill="#000000" font-family="sans-serif" font-size="13" lengthAdjust="spacing" textLength="79.8535" x="247.4155" y="1247.6763">Report JSON</text></g><g class="message" data-participant-1="FE" data-participant-2="S"><polygon fill="#2F6BFF" points="46.5557,1277.875,36.5557,1281.875,46.5557,1285.875,42.5557,1281.875" style="stroke:#2F6BFF;stroke-width:1;"/><line style="stroke:#2F6BFF;stroke-width:1;" x1="40.5557" x2="229.4155" y1="1281.875" y2="1281.875"/><text fill="#000000" font-family="sans-serif" font-size="13" lengthAdjust="spacing" textLength="170.8599" x="52.5557" y="1276.8091">Display Score &amp; Violations</text></g><!--SRC=[bLLDR-Cs4BthLmnIeFMYNNYx2VRWGm5_o8aNYUs8ihSBB50mqjXBM29Laahg5ltl7LAIRIbeukXW6EIRuJo-UKEp4xBWckVmm9FTLgjIfcELAGq_RFmNc0F2u9yboWI7Mgkd6lHny-cX1Q9VAn9HS6b7IgUe6-3LvQzN7_y7s3qQSNFPoieJgpIp-mo1Fw5HEGQ1NmDconIb1Mw01ISvuM94LHhKq8UfLjAYJ2ySQXgsOTECcnqCYyBlZZgxmz9-7rEqLbc6saE6g_Yc3Gh_uda75Fu-l6k361eZbEpWMCZOR35lGvTQEMv2RaEv5H8zSXajnl4YQYCZB9IsdPnHk5n4SP1oon-uGJhw_bPOXCd8Rqz6GV0Jl7_n8y3judesVnt8uFrlTAS3M1GeuLPHlR3aMmoceTjnbpM0vOB5qEU5w6SUqCESY-mNwW5ZtWKEux2JqG3MF1DKE499qdsJ4Lejy161j0mc8ogcIRboqcfCgCSE2LmPdx_4ODKEvLaars4qctw5sIISnxFuwnleNYiw1jQenMR_4k772j7Ry0H1v0Gy4fxIMaGKjb9OQWs6-b4aE82noabb13ARIgaBJ1rH7-qF5GbtCH2XAJDx7jbP-CKt9dkhh3Tak5EIBWbTGLXpj6Yi2TnY8-CKRV8Ta7m1cJ2saQwAStPnWZOXzKcaTQdbIT2X1eOP9jRld4MKnSCezeST_FLgL4MiXZS2cigpVMF9T46zsN2SIMf12pNcj4CFMMhFKtyTWm-SgYtcKcDwfYM74xXVXIocJEnSJYTYkHli_oFIV_iqoOthdxPijugdSDnggNPVBnDXsnQEqMWzHC5dHjTzlahrM9lDhy_bKqSCggk3XEUeEVmCl4o52ZAb2WZ9TNku_F0XDm7GrmcitIbvjlyR_zZG0uFGSwFoqrLZKHTLunkdJj2Y6yi3IFq_jsPwpw0toDEbCXZITUJSux7wYy_1QqM6lrFa_sDUl_OSMkcpXKUXiihwFR41BlSTP2rALQrlJ3yXgWbaQEPIRUy2akmyaLQZkrdbfJSCZN4caXszE-L3BYp4nF_YPOEv3kfnQPvGquFGCTggy2z2ZVqcnpnBoimlqVZ7vwuh4s9gpk9t7Sx3Q1Y7pQFvEiTZRLK8MGibTI2Le_rh75JhdJ5HxJKlLbroaw6fk8ayJ4GVKpcglZzILfWYutjWZZpy2Ekc8Sn_]--></g></svg>