<svg xmlns="http://www.w3.org/2000/svg" xmlns:xlink="http://www.w3.org/1999/xlink" contentStyleType="text/css" data-diagram-type="STATE" height="1783px" preserveAspectRatio="none" style="width:1392px;height:1783px;background:#FFFFFF;" version="1.1" viewBox="0 0 1392 1783" width="1392px" zoomAndPan="magnify"><defs/><g><ellipse cx="1217.61" cy="16" fill="#222222" rx="10" ry="10" style="stroke:#222222;stroke-width:1;"/><g id="NotRegistered"><rect fill="#F1F1F1" height="50" rx="12.5" ry="12.5" style="stroke:#181818;stroke-width:0.5;" width="120.2969" x="1157.47" y="87"/><line style="stroke:#181818;stroke-width:0.5;" x1="1157.47" x2="1277.7669" y1="113.2969" y2="113.2969"/><text fill="#000000" font-family="sans-serif" font-size="14" lengthAdjust="spacing" textLength="100.2969" x="1167.47" y="104.9951">NotRegistered</text></g><g id="Registered"><rect fill="#F1F1F1" height="50" rx="12.5" ry="12.5" style="stroke:#181818;stroke-width:0.5;" width="95.7695" x="1169.73" y="214"/><line style="stroke:#181818;stroke-width:0.5;" x1="1169.73" x2="1265.4995" y1="240.2969" y2="240.2969"/><text fill="#000000" font-family="sans-serif" font-size="14" lengthAdjust="spacing" textLength="75.7695" x="1179.73" y="231.9951">Registered</text></g><g id="LoggedOut"><rect fill="#F1F1F1" height="50" rx="12.5" ry="12.5" style="stroke:#181818;stroke-width:0.5;" width="97.0205" x="1106.1" y="341"/><line style="stroke:#181818;stroke-width:0.5;" x1="1106.1" x2="1203.1205" y1="367.2969" y2="367.2969"/><text fill="#000000" font-family="sans-serif" font-size="14" lengthAdjust="spacing" textLength="77.0205" x="1116.1" y="358.9951">LoggedOut</text></g><g id="LoggedIn"><rect fill="#F1F1F1" height="50" rx="12.5" ry="12.5" style="stroke:#181818;stroke-width:0.5;" width="84.6406" x="1238.29" y="341"/><line style="stroke:#181818;stroke-width:0.5;" x1="1238.29" x2="1322.9306" y1="367.2969" y2="367.2969"/><text fill="#000000" font-family="sans-serif" font-size="14" lengthAdjust="spacing" textLength="64.6406" x="1248.29" y="358.9951">LoggedIn</text></g><g id="Authenticating"><rect fill="#F1F1F1" height="50" rx="12.5" ry="12.5" style="stroke:#181818;stroke-width:0.5;" width="123.0928" x="1011.07" y="468"/><line style="stroke:#181818;stroke-width:0.5;" x1="1011.07" x2="1134.1628" y1="494.2969" y2="494.2969"/><text fill="#000000" font-family="sans-serif" font-size="14" lengthAdjust="spacing" textLength="103.0928" x="1021.07" y="485.9951">Authenticating</text></g><g id="Locked"><rect fill="#F1F1F1" height="50" rx="12.5" ry="12.5" style="stroke:#181818;stroke-width:0.5;" width="69.6699" x="1195.78" y="595"/><line style="stroke:#181818;stroke-width:0.5;" x1="1195.78" x2="1265.4499" y1="621.2969" y2="621.2969"/><text fill="#000000" font-family="sans-serif" font-size="14" lengthAdjust="spacing" textLength="49.6699" x="1205.78" y="612.9951">Locked</text></g><g id="Verified"><rect fill="#F1F1F1" height="50" rx="12.5" ry="12.5" style="stroke:#181818;stroke-width:0.5;" width="74.1543" x="873.54" y="595"/><line style="stroke:#181818;stroke-width:0.5;" x1="873.54" x2="947.6943" y1="621.2969" y2="621.2969"/><text fill="#000000" font-family="sans-serif" font-size="14" lengthAdjust="spacing" textLength="54.1543" x="883.54" y="612.9951">Verified</text></g><g id="ExamSelected"><rect fill="#F1F1F1" height="50" rx="12.5" ry="12.5" style="stroke:#181818;stroke-width:0.5;" width="120.0371" x="850.6" y="722"/><line style="stroke:#181818;stroke-width:0.5;" x1="850.6" x2="970.6371" y1="748.2969" y2="748.2969"/><text fill="#000000" font-family="sans-serif" font-size="14" lengthAdjust="spacing" textLength="100.0371" x="860.6" y="739.9951">ExamSelected</text></g><g id="SessionInit"><rect fill="#F1F1F1" height="50" rx="12.5" ry="12.5" style="stroke:#181818;stroke-width:0.5;" width="95.7969" x="862.72" y="849"/><line style="stroke:#181818;stroke-width:0.5;" x1="862.72" x2="958.5169" y1="875.2969" y2="875.2969"/><text fill="#000000" font-family="sans-serif" font-size="14" lengthAdjust="spacing" textLength="75.7969" x="872.72" y="866.9951">SessionInit</text></g><g id="Monitoring"><rect fill="#F1F1F1" height="50" rx="12.5" ry="12.5" style="stroke:#181818;stroke-width:0.5;" width="94.8672" x="431.18" y="976"/><line style="stroke:#181818;stroke-width:0.5;" x1="431.18" x2="526.0472" y1="1002.2969" y2="1002.2969"/><text fill="#000000" font-family="sans-serif" font-size="14" lengthAdjust="spacing" textLength="74.8672" x="441.18" y="993.9951">Monitoring</text></g><g id="Terminated"><rect fill="#F1F1F1" height="50" rx="12.5" ry="12.5" style="stroke:#181818;stroke-width:0.5;" width="100.8896" x="1101.17" y="1056"/><line style="stroke:#181818;stroke-width:0.5;" x1="1101.17" x2="1202.0596" y1="1082.2969" y2="1082.2969"/><text fill="#000000" font-family="sans-serif" font-size="14" lengthAdjust="spacing" textLength="80.8896" x="1111.17" y="1073.9951">Terminated</text></g><g id="Paused"><rect fill="#F1F1F1" height="50" rx="12.5" ry="12.5" style="stroke:#181818;stroke-width:0.5;" width="70.6885" x="191.27" y="1136"/><line style="stroke:#181818;stroke-width:0.5;" x1="191.27" x2="261.9585" y1="1162.2969" y2="1162.2969"/><text fill="#000000" font-family="sans-serif" font-size="14" lengthAdjust="spacing" textLength="50.6885" x="201.27" y="1153.9951">Paused</text></g><g id="ViolationDetected"><rect fill="#F1F1F1" height="50" rx="12.5" ry="12.5" style="stroke:#181818;stroke-width:0.5;" width="145.501" x="338.86" y="1136"/><line style="stroke:#181818;stroke-width:0.5;" x1="338.86" x2="484.361" y1="1162.2969" y2="1162.2969"/><text fill="#000000" font-family="sans-serif" font-size="14" lengthAdjust="spacing" textLength="125.501" x="348.86" y="1153.9951">ViolationDetected</text></g><g id="Reviewing"><rect fill="#F1F1F1" height="50" rx="12.5" ry="12.5" style="stroke:#181818;stroke-width:0.5;" width="92.2285" x="365.5" y="1263"/><line style="stroke:#181818;stroke-width:0.5;" x1="365.5" x2="457.7285" y1="1289.2969" y2="1289.2969"/><text fill="#000000" font-family="sans-serif" font-size="14" lengthAdjust="spacing" textLength="72.2285" x="375.5" y="1280.9951">Reviewing</text></g><g id="SessionEnding"><rect fill="#F1F1F1" height="50" rx="12.5" ry="12.5" style="stroke:#181818;stroke-width:0.5;" width="121.6709" x="683.78" y="1390"/><line style="stroke:#181818;stroke-width:0.5;" x1="683.78" x2="805.4509" y1="1416.2969" y2="1416.2969"/><text fill="#000000" font-family="sans-serif" font-size="14" lengthAdjust="spacing" textLength="101.6709" x="693.78" y="1407.9951">SessionEnding</text></g><g id="ReportGenerated"><rect fill="#F1F1F1" height="50" rx="12.5" ry="12.5" style="stroke:#181818;stroke-width:0.5;" width="141.3105" x="852.96" y="1517"/><line style="stroke:#181818;stroke-width:0.5;" x1="852.96" x2="994.2705" y1="1543.2969" y2="1543.2969"/><text fill="#000000" font-family="sans-serif" font-size="14" lengthAdjust="spacing" textLength="121.3105" x="862.96" y="1534.9951">ReportGenerated</text></g><g id="Archived"><rect fill="#F1F1F1" height="50" rx="12.5" ry="12.5" style="stroke:#181818;stroke-width:0.5;" width="81.5781" x="1039.82" y="1644"/><line style="stroke:#181818;stroke-width:0.5;" x1="1039.82" x2="1121.3981" y1="1670.2969" y2="1670.2969"/><text fill="#000000" font-family="sans-serif" font-size="14" lengthAdjust="spacing" textLength="61.5781" x="1049.82" y="1661.9951">Archived</text></g><ellipse cx="1164.61" cy="1766" fill="none" rx="11" ry="11" style="stroke:#222222;stroke-width:1;"/><ellipse cx="1164.61" cy="1766" fill="#222222" rx="6" ry="6" style="stroke:#222222;stroke-width:1;"/><!--link *start* to NotRegistered--><g class="link" data-entity-1=".start." data-entity-2="NotRegistered" data-source-line="4" data-uid="lnk4" id="link_.start._NotRegistered"><path d="M1217.61,26.36 C1217.61,40.29 1217.61,60.95 1217.61,80.65" fill="none" id="*start*-to-NotRegistered" style="stroke:#181818;stroke-width:1;"/><polygon fill="#181818" points="1217.61,86.65,1221.61,77.65,1217.61,81.65,1213.61,77.65,1217.61,86.65" style="stroke:#181818;stroke-width:1;"/></g><!--link NotRegistered to Registered--><g class="link" data-entity-1="NotRegistered" data-entity-2="Registered" data-source-line="6" data-uid="lnk6" id="link_NotRegistered_Registered"><path d="M1217.61,137.4 C1217.61,159.42 1217.61,185.66 1217.61,207.66" fill="none" id="NotRegistered-to-Registered" style="stroke:#181818;stroke-width:1;"/><polygon fill="#181818" points="1217.61,213.66,1221.61,204.66,1217.61,208.66,1213.61,204.66,1217.61,213.66" style="stroke:#181818;stroke-width:1;"/><text fill="#000000" font-family="sans-serif" font-size="13" lengthAdjust="spacing" textLength="50.4194" x="1218.61" y="180.0669">register</text></g><!--link Registered to LoggedOut--><g class="link" data-entity-1="Registered" data-entity-2="LoggedOut" data-source-line="8" data-uid="lnk8" id="link_Registered_LoggedOut"><path d="M1205.32,264.4 C1194.22,286.42 1180.6708,313.3022 1169.5808,335.3022" fill="none" id="Registered-to-LoggedOut" style="stroke:#181818;stroke-width:1;"/><polygon fill="#181818" points="1166.88,340.66,1174.503,334.4239,1169.1307,336.1952,1167.3594,330.8228,1166.88,340.66" style="stroke:#181818;stroke-width:1;"/><text fill="#000000" font-family="sans-serif" font-size="13" lengthAdjust="spacing" textLength="41.1074" x="1191.61" y="307.0669">logout</text></g><!--link Registered to LoggedIn--><g class="link" data-entity-1="Registered" data-entity-2="LoggedIn" data-source-line="9" data-uid="lnk10" id="link_Registered_LoggedIn"><path d="M1229.91,264.4 C1241.01,286.42 1254.5592,313.3022 1265.6492,335.3022" fill="none" id="Registered-to-LoggedIn" style="stroke:#181818;stroke-width:1;"/><polygon fill="#181818" points="1268.35,340.66,1267.8706,330.8228,1266.0993,336.1952,1260.727,334.4239,1268.35,340.66" style="stroke:#181818;stroke-width:1;"/><text fill="#000000" font-family="sans-serif" font-size="13" lengthAdjust="spacing" textLength="89.0195" x="1253.61" y="307.0669">login_success</text></g><!--link LoggedOut to Authenticating--><g class="link" data-entity-1="LoggedOut" data-entity-2="Authenticating" data-source-line="11" data-uid="lnk12" id="link_LoggedOut_Authenticating"><path d="M1142.6,391.26 C1135.34,405.27 1125.59,423.02 1115.61,438 C1108.91,448.08 1104.5857,453.955 1097.2257,463.005" fill="none" id="LoggedOut-to-Authenticating" style="stroke:#181818;stroke-width:1;"/><polygon fill="#181818" points="1093.44,467.66,1102.2218,463.2014,1096.5947,463.7809,1096.0152,458.1538,1093.44,467.66" style="stroke:#181818;stroke-width:1;"/><text fill="#000000" font-family="sans-serif" font-size="13" lengthAdjust="spacing" textLength="123.1763" x="1127.61" y="434.0669">submit_credentials</text></g><!--link Authenticating to LoggedOut--><g class="link" data-entity-1="Authenticating" data-entity-2="LoggedOut" data-source-line="13" data-uid="lnk15" id="link_Authenticating_LoggedOut"><path d="M1010.67,468.17 C988.12,455.82 971.11,439.46 984.61,421 C1012.13,383.39 1060.0736,371.862 1099.8436,368.322" fill="none" id="Authenticating-to-LoggedOut" style="stroke:#181818;stroke-width:1;"/><polygon fill="#181818" points="1105.82,367.79,1096.5008,364.6037,1100.8397,368.2333,1097.2101,372.5722,1105.82,367.79" style="stroke:#181818;stroke-width:1;"/><text fill="#000000" font-family="sans-serif" font-size="13" lengthAdjust="spacing" textLength="121.5259" x="985.61" y="434.0669">invalid_credentials</text></g><!--link Authenticating to Locked--><g class="link" data-entity-1="Authenticating" data-entity-2="Locked" data-source-line="12" data-uid="lnk14" id="link_Authenticating_Locked"><path d="M1099.8,518.26 C1115.78,532.26 1136.53,550.01 1155.61,565 C1168.36,575.01 1177.8329,582.0491 1190.5529,591.1091" fill="none" id="Authenticating-to-Locked" style="stroke:#181818;stroke-width:1;"/><polygon fill="#181818" points="1195.44,594.59,1190.43,586.1106,1191.3674,591.6893,1185.7888,592.6267,1195.44,594.59" style="stroke:#181818;stroke-width:1;"/><text fill="#000000" font-family="sans-serif" font-size="13" lengthAdjust="spacing" textLength="119.2788" x="1156.61" y="561.0669">failed_logins &gt;= 3</text></g><!--link Authenticating to Verified--><g class="link" data-entity-1="Authenticating" data-entity-2="Verified" data-source-line="14" data-uid="lnk17" id="link_Authenticating_Verified"><path d="M1010.79,500.42 C978.72,507.08 941.72,520.59 919.61,548 C909.16,560.96 906.9804,573.8033 907.4804,588.8233" fill="none" id="Authenticating-to-Verified" style="stroke:#181818;stroke-width:1;"/><polygon fill="#181818" points="907.68,594.82,911.3784,585.6919,907.5136,589.8228,903.3828,585.9581,907.68,594.82" style="stroke:#181818;stroke-width:1;"/><text fill="#000000" font-family="sans-serif" font-size="13" lengthAdjust="spacing" textLength="206.2163" x="920.61" y="561.0669">credentials_ok AND face_match</text></g><!--link Locked to LoggedOut--><g class="link" data-entity-1="Locked" data-entity-2="LoggedOut" data-source-line="16" data-uid="lnk18" id="link_Locked_LoggedOut"><path d="M1260.34,594.66 C1268.49,586.22 1276.28,576.06 1280.61,565 C1304.21,504.78 1297.71,473.27 1259.61,421 C1252.13,410.73 1232.7295,400.2066 1209.0695,389.5366" fill="none" id="Locked-to-LoggedOut" style="stroke:#181818;stroke-width:1;"/><polygon fill="#181818" points="1203.6,387.07,1210.1599,394.4163,1208.1579,389.1255,1213.4487,387.1236,1203.6,387.07" style="stroke:#181818;stroke-width:1;"/><text fill="#000000" font-family="sans-serif" font-size="13" lengthAdjust="spacing" textLength="89.9526" x="1294.61" y="497.5669">admin_unlock</text></g><!--link Verified to ExamSelected--><g class="link" data-entity-1="Verified" data-entity-2="ExamSelected" data-source-line="18" data-uid="lnk20" id="link_Verified_ExamSelected"><path d="M910.61,645.4 C910.61,667.42 910.61,693.66 910.61,715.66" fill="none" id="Verified-to-ExamSelected" style="stroke:#181818;stroke-width:1;"/><polygon fill="#181818" points="910.61,721.66,914.61,712.66,910.61,716.66,906.61,712.66,910.61,721.66" style="stroke:#181818;stroke-width:1;"/><text fill="#000000" font-family="sans-serif" font-size="13" lengthAdjust="spacing" textLength="88.8862" x="911.61" y="688.0669">choose_exam</text></g><!--link ExamSelected to SessionInit--><g class="link" data-entity-1="ExamSelected" data-entity-2="SessionInit" data-source-line="19" data-uid="lnk22" id="link_ExamSelected_SessionInit"><path d="M910.61,772.4 C910.61,794.42 910.61,820.66 910.61,842.66" fill="none" id="ExamSelected-to-SessionInit" style="stroke:#181818;stroke-width:1;"/><polygon fill="#181818" points="910.61,848.66,914.61,839.66,910.61,843.66,906.61,839.66,910.61,848.66" style="stroke:#181818;stroke-width:1;"/><text fill="#000000" font-family="sans-serif" font-size="13" lengthAdjust="spacing" textLength="73.0996" x="911.61" y="815.0669">start_exam</text></g><!--link SessionInit to Monitoring--><g class="link" data-entity-1="SessionInit" data-entity-2="Monitoring" data-source-line="21" data-uid="lnk24" id="link_SessionInit_Monitoring"><path d="M862.32,888.98 C778.98,913.09 614.9237,960.5626 532.0337,984.5426" fill="none" id="SessionInit-to-Monitoring" style="stroke:#181818;stroke-width:1;"/><polygon fill="#181818" points="526.27,986.21,536.0271,987.5513,531.073,984.8205,533.8039,979.8664,526.27,986.21" style="stroke:#181818;stroke-width:1;"/><text fill="#000000" font-family="sans-serif" font-size="13" lengthAdjust="spacing" textLength="77.9111" x="721.61" y="942.0669">init_success</text></g><!--link SessionInit to Terminated--><g class="link" data-entity-1="SessionInit" data-entity-2="Terminated" data-source-line="22" data-uid="lnk26" id="link_SessionInit_Terminated"><path d="M939.21,899.32 C985.59,938.78 1072.1295,1012.3927 1118.4895,1051.8227" fill="none" id="SessionInit-to-Terminated" style="stroke:#181818;stroke-width:1;"/><polygon fill="#181818" points="1123.06,1055.71,1118.7958,1046.8321,1119.2513,1052.4706,1113.6128,1052.9261,1123.06,1055.71" style="stroke:#181818;stroke-width:1;"/><text fill="#000000" font-family="sans-serif" font-size="13" lengthAdjust="spacing" textLength="63.0767" x="991.61" y="942.0669">init_failed</text></g><!--link Monitoring to Paused--><g class="link" data-entity-1="Monitoring" data-entity-2="Paused" data-source-line="24" data-uid="lnk28" id="link_Monitoring_Paused"><path d="M430.73,1006.65 C369.33,1013.64 267.73,1029 242.61,1056 C222.83,1077.27 220.9931,1106.2574 222.7831,1129.6974" fill="none" id="Monitoring-to-Paused" style="stroke:#181818;stroke-width:1;"/><polygon fill="#181818" points="223.24,1135.68,226.5431,1126.4016,222.8593,1130.6945,218.5663,1127.0107,223.24,1135.68" style="stroke:#181818;stroke-width:1;"/><text fill="#000000" font-family="sans-serif" font-size="13" lengthAdjust="spacing" textLength="82.729" x="243.61" y="1085.5669">network_lost</text></g><!--link Paused to Monitoring--><g class="link" data-entity-1="Paused" data-entity-2="Monitoring" data-source-line="25" data-uid="lnk29" id="link_Paused_Monitoring"><path d="M190.91,1145.94 C154.31,1131.36 102.34,1110.12 99.61,1106 C87.35,1087.47 85.05,1072.79 99.61,1056 C141.97,1007.18 332.74,1001.368 424.84,1001.398" fill="none" id="Paused-to-Monitoring" style="stroke:#181818;stroke-width:1;"/><polygon fill="#181818" points="430.84,1001.4,421.84,997.4,425.84,1001.4,421.84,1005.4,430.84,1001.4" style="stroke:#181818;stroke-width:1;"/><text fill="#000000" font-family="sans-serif" font-size="13" lengthAdjust="spacing" textLength="114.0547" x="100.61" y="1085.5669">network_restored</text></g><!--link Monitoring to ViolationDetected--><g class="link" data-entity-1="Monitoring" data-entity-2="ViolationDetected" data-source-line="27" data-uid="lnk31" id="link_Monitoring_ViolationDetected"><path d="M430.78,1007.42 C400.01,1013.67 362.23,1027.1 342.61,1056 C330.13,1074.39 332.88,1086.02 342.61,1106 C348.34,1117.76 353.2786,1124.0203 363.5886,1132.0603" fill="none" id="Monitoring-to-ViolationDetected" style="stroke:#181818;stroke-width:1;"/><polygon fill="#181818" points="368.32,1135.75,363.6827,1127.0612,364.3772,1132.6753,358.7631,1133.3698,368.32,1135.75" style="stroke:#181818;stroke-width:1;"/><text fill="#000000" font-family="sans-serif" font-size="13" lengthAdjust="spacing" textLength="224.9609" x="343.61" y="1085.5669">violation_confidence &gt;= threshold</text></g><!--link ViolationDetected to Monitoring--><g class="link" data-entity-1="ViolationDetected" data-entity-2="Monitoring" data-source-line="28" data-uid="lnk32" id="link_ViolationDetected_Monitoring"><path d="M484.65,1154.29 C517.11,1147.69 552.47,1134 572.61,1106 C585.59,1087.96 583.75,1075.23 572.61,1056 C562.43,1038.41 549.5339,1028.6155 531.7539,1020.2055" fill="none" id="ViolationDetected-to-Monitoring" style="stroke:#181818;stroke-width:1;"/><polygon fill="#181818" points="526.33,1017.64,532.7554,1025.1042,530.8499,1019.7779,536.1761,1017.8723,526.33,1017.64" style="stroke:#181818;stroke-width:1;"/><text fill="#000000" font-family="sans-serif" font-size="13" lengthAdjust="spacing" textLength="88.4165" x="583.61" y="1085.5669">false_positive</text></g><!--link ViolationDetected to Reviewing--><g class="link" data-entity-1="ViolationDetected" data-entity-2="Reviewing" data-source-line="29" data-uid="lnk34" id="link_ViolationDetected_Reviewing"><path d="M411.61,1186.4 C411.61,1208.42 411.61,1234.66 411.61,1256.66" fill="none" id="ViolationDetected-to-Reviewing" style="stroke:#181818;stroke-width:1;"/><polygon fill="#181818" points="411.61,1262.66,415.61,1253.66,411.61,1257.66,407.61,1253.66,411.61,1262.66" style="stroke:#181818;stroke-width:1;"/><text fill="#000000" font-family="sans-serif" font-size="13" lengthAdjust="spacing" textLength="102.375" x="412.61" y="1229.0669">flag_for_proctor</text></g><!--link Reviewing to Monitoring--><g class="link" data-entity-1="Reviewing" data-entity-2="Monitoring" data-source-line="31" data-uid="lnk35" id="link_Reviewing_Monitoring"><path d="M365.14,1282.06 C270.76,1270.95 61.96,1240.65 19.61,1186 C6,1168.44 12.42,1157.03 19.61,1136 C34.18,1093.44 42.65,1078.48 81.61,1056 C140.21,1022.19 332.9374,1008.8887 425.0374,1004.2987" fill="none" id="Reviewing-to-Monitoring" style="stroke:#181818;stroke-width:1;"/><polygon fill="#181818" points="431.03,1004,421.8421,1000.4529,426.0362,1004.2489,422.2403,1008.443,431.03,1004" style="stroke:#181818;stroke-width:1;"/><text fill="#000000" font-family="sans-serif" font-size="13" lengthAdjust="spacing" textLength="152.439" x="20.61" y="1165.5669">proctor_resolved_as_ok</text></g><!--link Reviewing to SessionEnding--><g class="link" data-entity-1="Reviewing" data-entity-2="SessionEnding" data-source-line="32" data-uid="lnk37" id="link_Reviewing_SessionEnding"><path d="M450.2,1313.5 C475.21,1328.55 508.93,1347.31 540.61,1360 C587.21,1378.66 636.5021,1391.5119 677.7021,1400.6419" fill="none" id="Reviewing-to-SessionEnding" style="stroke:#181818;stroke-width:1;"/><polygon fill="#181818" points="683.56,1401.94,675.6386,1396.0876,678.6784,1400.8582,673.9078,1403.8981,683.56,1401.94" style="stroke:#181818;stroke-width:1;"/><text fill="#000000" font-family="sans-serif" font-size="13" lengthAdjust="spacing" textLength="156.4189" x="541.61" y="1356.0669">proctor_confirms_action</text></g><!--link Monitoring to SessionEnding--><g class="link" data-entity-1="Monitoring" data-entity-2="SessionEnding" data-source-line="34" data-uid="lnk38" id="link_Monitoring_SessionEnding"><path d="M526.3,1006.88 C594.3,1014.6 714.85,1031.32 750.61,1056 C824.98,1107.32 874.27,1145.8 850.61,1233 C833.93,1294.5 794.21,1351.7688 768.41,1384.8488" fill="none" id="Monitoring-to-SessionEnding" style="stroke:#181818;stroke-width:1;"/><polygon fill="#181818" points="764.72,1389.58,773.4091,1384.9432,767.795,1385.6373,767.1008,1380.0232,764.72,1389.58" style="stroke:#181818;stroke-width:1;"/><text fill="#000000" font-family="sans-serif" font-size="13" lengthAdjust="spacing" textLength="297.0068" x="855.61" y="1229.0669">exam_completed OR user_submit OR timeout</text></g><!--link Monitoring to SessionEnding--><g class="link" data-entity-1="Monitoring" data-entity-2="SessionEnding" data-source-line="35" data-uid="lnk39" id="link_Monitoring_SessionEnding"><path d="M526.5,1008.8 C579.43,1017.31 659.98,1033.55 680.61,1056 C692.06,1068.45 728.2798,1304.8764 740.0898,1383.5964" fill="none" id="Monitoring-to-SessionEnding-1" style="stroke:#181818;stroke-width:1;"/><polygon fill="#181818" points="740.98,1389.53,743.6004,1380.0361,740.2382,1384.5853,735.689,1381.2231,740.98,1389.53" style="stroke:#181818;stroke-width:1;"/><text fill="#000000" font-family="sans-serif" font-size="13" lengthAdjust="spacing" textLength="123.5952" x="717.61" y="1229.0669">forced_termination</text></g><!--link SessionEnding to ReportGenerated--><g class="link" data-entity-1="SessionEnding" data-entity-2="ReportGenerated" data-source-line="37" data-uid="lnk41" id="link_SessionEnding_ReportGenerated"><path d="M779.55,1440.4 C811.09,1462.42 852.3304,1491.2252 883.8404,1513.2252" fill="none" id="SessionEnding-to-ReportGenerated" style="stroke:#181818;stroke-width:1;"/><polygon fill="#181818" points="888.76,1516.66,883.6705,1508.2281,884.6604,1513.7977,879.0908,1514.7875,888.76,1516.66" style="stroke:#181818;stroke-width:1;"/><text fill="#000000" font-family="sans-serif" font-size="13" lengthAdjust="spacing" textLength="105.3838" x="846.61" y="1483.0669">generate_report</text></g><!--link ReportGenerated to Archived--><g class="link" data-entity-1="ReportGenerated" data-entity-2="Archived" data-source-line="38" data-uid="lnk43" id="link_ReportGenerated_Archived"><path d="M954.26,1567.4 C981.92,1589.42 1017.7155,1617.9234 1045.3555,1639.9234" fill="none" id="ReportGenerated-to-Archived" style="stroke:#181818;stroke-width:1;"/><polygon fill="#181818" points="1050.05,1643.66,1045.4993,1634.9255,1046.1379,1640.5462,1040.5172,1641.1848,1050.05,1643.66" style="stroke:#181818;stroke-width:1;"/><text fill="#000000" font-family="sans-serif" font-size="13" lengthAdjust="spacing" textLength="143.1714" x="1012.61" y="1610.0669">archive_policy_trigger</text></g><!--link Archived to *end*--><g class="link" data-entity-1="Archived" data-entity-2=".end." data-source-line="39" data-uid="lnk45" id="link_Archived_.end."><path d="M1102.25,1694.46 C1120.52,1715.14 1141.6147,1738.9959 1153.6447,1752.5959" fill="none" id="Archived-to-*end*" style="stroke:#181818;stroke-width:1;"/><polygon fill="#181818" points="1157.62,1757.09,1154.6531,1747.6986,1154.3072,1753.3449,1148.661,1752.999,1157.62,1757.09" style="stroke:#181818;stroke-width:1;"/></g><!--link Terminated to *end*--><g class="link" data-entity-1="Terminated" data-entity-2=".end." data-source-line="41" data-uid="lnk46" id="link_Terminated_.end."><path d="M1168.97,1106.24 C1186.69,1133.42 1211.61,1179.47 1211.61,1223.5 C1211.61,1223.5 1211.61,1223.5 1211.61,1670 C1211.61,1705.7 1188.501,1737.2742 1175.431,1752.6842" fill="none" id="Terminated-to-*end*" style="stroke:#181818;stroke-width:1;"/><polygon fill="#181818" points="1171.55,1757.26,1180.422,1752.9836,1174.7841,1753.4468,1174.3209,1747.809,1171.55,1757.26" style="stroke:#181818;stroke-width:1;"/></g><!--SRC=[XPJDQXin483lUWhTqXP23hq56WWab40J1xlaKefGjEFTmLh9IBCR- -qxiredzgvBRjBec_yPNUWLMGBzQ5s30VGw9hq8NextEzlgvnGTnOIXrgjz9cZLXLvXk_LmvMAxjOIl7dJU1x8x_IL43O7I_WfsIDewmXZoLwN-VFkhBozlz5Ea9TJ8TX9KIfrS1-3eUgtJU55gGlsATGtLeYE6VAnZH-U9Xr0032Ptpa7EIdte2dVRKSCHe-D4ECLhdRlN5iauDYHowxEQCCMysmmXhYrwgCpW8-kR7_hxUVmZNWozzLXzvk454gvny754chZHjqztxDQ1QIsvHX8QOfdwiLNBQNV1yxDIx-O4ayQkm8EZOh-9COC1bggJ9s5NN3HkuaD0CPh99YgaEduHyZ7ogKoAPCb5FDHyIlw6nB7PudqWIncLEh8XuBFjyW05eBUODbpdJ6gKpdmUe0IPPMVClM3qLaRo3kYGV7-G6HV36hdG3gIFrB2P9lfApRLcdjVS6Z3Rc96mX_zeBA57U1iLlAqDhvhPblMI2J-ypgoFZEGLVS_JPcKE9XfZZUz3TQeqP9NQRCeopceorPFU6jbi3nBuOgcvsCcKjP0hOGkoS9_OuUGSXqfZgmVNfqofoJOc-Wa1qZWEzNZcREL9JObXQHF_LVs0stBasdjqUqC9UGEIUYS4vyz7gQEP6sN_0000]--></g></svg>