<svg xmlns="http://www.w3.org/2000/svg" xmlns:xlink="http://www.w3.org/1999/xlink" contentStyleType="text/css" data-diagram-type="DESCRIPTION" height="1083px" preserveAspectRatio="none" style="width:945px;height:1083px;background:#FFFFFF;" version="1.1" viewBox="0 0 945 1083" width="945px" zoomAndPan="magnify"><defs/><g><!--entity S--><g class="entity" data-entity="S" data-source-line="7" data-uid="ent0002" id="entity_S"><ellipse cx="54.3457" cy="543.3" fill="#F1F1F1" rx="16" ry="16" style="stroke:#243142;stroke-width:0.5;"/><path d="M54.3457,563.3 C58.3457,563.3 61.3457,563.3 65.3457,559.3 C73.3457,559.3 81.3457,567.3 81.3457,575.3 L81.3457,579.3 C81.3457,583.3 77.3457,587.3 73.3457,587.3 L35.3457,587.3 C31.3457,587.3 27.3457,583.3 27.3457,579.3 L27.3457,575.3 C27.3457,567.3 35.3457,559.3 43.3457,559.3 C47.3457,563.3 50.3457,563.3 54.3457,563.3" fill="#F1F1F1" style="stroke:#243142;stroke-width:0.5;"/><text fill="#000000" font-family="sans-serif" font-size="14" lengthAdjust="spacing" textLength="55.1113" x="26.79" y="600.7951">Student</text></g><!--entity P--><g class="entity" data-entity="P" data-source-line="8" data-uid="ent0003" id="entity_P"><ellipse cx="54.3506" cy="52.3" fill="#F1F1F1" rx="16" ry="16" style="stroke:#243142;stroke-width:0.5;"/><path d="M54.3506,72.3 C58.3506,72.3 61.3506,72.3 65.3506,68.3 C73.3506,68.3 81.3506,76.3 81.3506,84.3 L81.3506,88.3 C81.3506,92.3 77.3506,96.3 73.3506,96.3 L35.3506,96.3 C31.3506,96.3 27.3506,92.3 27.3506,88.3 L27.3506,84.3 C27.3506,76.3 35.3506,68.3 43.3506,68.3 C47.3506,72.3 50.3506,72.3 54.3506,72.3" fill="#F1F1F1" style="stroke:#243142;stroke-width:0.5;"/><text fill="#000000" font-family="sans-serif" font-size="14" lengthAdjust="spacing" textLength="96.7012" x="6" y="109.7951">Staff / Proctor</text></g><!--entity Sys--><g class="entity" data-entity="Sys" data-source-line="9" data-uid="ent0004" id="entity_Sys"><ellipse cx="291.39" cy="705.3" fill="#F1F1F1" rx="16" ry="16" style="stroke:#243142;stroke-width:0.5;"/><path d="M291.39,725.3 C295.39,725.3 298.39,725.3 302.39,721.3 C310.39,721.3 318.39,729.3 318.39,737.3 L318.39,741.3 C318.39,745.3 314.39,749.3 310.39,749.3 L272.39,749.3 C268.39,749.3 264.39,745.3 264.39,741.3 L264.39,737.3 C264.39,729.3 272.39,721.3 280.39,721.3 C284.39,725.3 287.39,725.3 291.39,725.3" fill="#F1F1F1" style="stroke:#243142;stroke-width:0.5;"/><text fill="#000000" font-family="sans-serif" font-size="14" lengthAdjust="spacing" textLength="52.2061" x="265.287" y="762.7951">System</text></g><!--entity UC1--><g class="entity" data-entity="UC1" data-source-line="14" data-uid="ent0005" id="entity_UC1"><ellipse cx="291.3918" cy="429.4544" fill="#EEF3FF" rx="80.8718" ry="18.5744" style="stroke:#2F6BFF;stroke-width:0.5;"/><text fill="#000000" font-family="sans-serif" font-size="14" lengthAdjust="spacing" textLength="132.7266" x="225.0285" y="434.1028">UC1: Register User</text></g><!--entity UC2--><g class="entity" data-entity="UC2" data-source-line="15" data-uid="ent0006" id="entity_UC2"><ellipse cx="291.3888" cy="497.4536" fill="#EEF3FF" rx="56.8188" ry="14.5236" style="stroke:#2F6BFF;stroke-width:0.5;"/><text fill="#000000" font-family="sans-serif" font-size="14" lengthAdjust="spacing" textLength="76.1113" x="253.3332" y="502.1021">UC2: Login</text></g><!--entity UC3--><g class="entity" data-entity="UC3" data-source-line="16" data-uid="ent0007" id="entity_UC3"><ellipse cx="291.3888" cy="565.4518" fill="#EEF3FF" rx="82.8088" ry="18.9618" style="stroke:#2F6BFF;stroke-width:0.5;"/><text fill="#000000" font-family="sans-serif" font-size="14" lengthAdjust="spacing" textLength="137.252" x="222.7629" y="570.1002">UC3: Verify Identity</text></g><!--entity UC4--><g class="entity" data-entity="UC4" data-source-line="17" data-uid="ent0008" id="entity_UC4"><ellipse cx="291.3924" cy="196.4485" fill="#EEF3FF" rx="75.5924" ry="17.5185" style="stroke:#2F6BFF;stroke-width:0.5;"/><text fill="#000000" font-family="sans-serif" font-size="14" lengthAdjust="spacing" textLength="120.1621" x="231.3114" y="201.0969">UC4: View Profile</text></g><!--entity UC5--><g class="entity" data-entity="UC5" data-source-line="22" data-uid="ent0009" id="entity_UC5"><ellipse cx="291.3925" cy="272.4485" fill="#EEF3FF" rx="106.9925" ry="23.7985" style="stroke:#2F6BFF;stroke-width:0.5;"/><text fill="#000000" font-family="sans-serif" font-size="14" lengthAdjust="spacing" textLength="191.3584" x="195.7133" y="277.0969">UC5: View Available Exams</text></g><!--entity UC6--><g class="entity" data-entity="UC6" data-source-line="23" data-uid="ent0010" id="entity_UC6"><ellipse cx="291.3896" cy="353.4499" fill="#EEF3FF" rx="99.0496" ry="22.2099" style="stroke:#2F6BFF;stroke-width:0.5;"/><text fill="#000000" font-family="sans-serif" font-size="14" lengthAdjust="spacing" textLength="173.9609" x="204.4091" y="358.0984">UC6: Start Exam Session</text></g><!--entity UC7--><g class="entity" data-entity="UC7" data-source-line="24" data-uid="ent0011" id="entity_UC7"><ellipse cx="291.3858" cy="636.4452" fill="#EEF3FF" rx="73.7758" ry="17.1552" style="stroke:#2F6BFF;stroke-width:0.5;"/><text fill="#000000" font-family="sans-serif" font-size="14" lengthAdjust="spacing" textLength="115.7461" x="233.5128" y="641.0936">UC7: Take Exam</text></g><!--entity UC8--><g class="entity" data-entity="UC8" data-source-line="25" data-uid="ent0012" id="entity_UC8"><ellipse cx="291.3943" cy="819.4549" fill="#EEF3FF" rx="80.3743" ry="18.4749" style="stroke:#2F6BFF;stroke-width:0.5;"/><text fill="#000000" font-family="sans-serif" font-size="14" lengthAdjust="spacing" textLength="131.5576" x="225.6155" y="824.1033">UC8: Submit Exam</text></g><!--entity UC9--><g class="entity" data-entity="UC9" data-source-line="26" data-uid="ent0013" id="entity_UC9"><ellipse cx="291.3891" cy="890.4538" fill="#EEF3FF" rx="76.8191" ry="17.7638" style="stroke:#2F6BFF;stroke-width:0.5;"/><text fill="#000000" font-family="sans-serif" font-size="14" lengthAdjust="spacing" textLength="123.1152" x="229.8315" y="895.1023">UC9: View Report</text></g><!--entity UC10--><g class="entity" data-entity="UC10" data-source-line="31" data-uid="ent0014" id="entity_UC10"><ellipse cx="291.3943" cy="1049.4469" fill="#EEF3FF" rx="128.6843" ry="28.1369" style="stroke:#2F6BFF;stroke-width:0.5;"/><text fill="#000000" font-family="sans-serif" font-size="14" lengthAdjust="spacing" textLength="237.7949" x="172.4968" y="1054.0953">UC10: Real-time Video Monitoring</text></g><!--entity UC11--><g class="entity" data-entity="UC11" data-source-line="32" data-uid="ent0015" id="entity_UC11"><ellipse cx="291.3913" cy="964.4523" fill="#EEF3FF" rx="95.5113" ry="21.5023" style="stroke:#2F6BFF;stroke-width:0.5;"/><text fill="#000000" font-family="sans-serif" font-size="14" lengthAdjust="spacing" textLength="166.1133" x="208.3346" y="969.1007">UC11: Audio Monitoring</text></g><!--entity UC12--><g class="entity" data-entity="UC12" data-source-line="33" data-uid="ent0016" id="entity_UC12"><ellipse cx="593.2967" cy="1034.4493" fill="#EEF3FF" rx="95.7967" ry="21.5593" style="stroke:#2F6BFF;stroke-width:0.5;"/><text fill="#000000" font-family="sans-serif" font-size="14" lengthAdjust="spacing" textLength="166.749" x="509.9222" y="1039.0978">UC12: Detect Violations</text></g><!--entity UC13--><g class="entity" data-entity="UC13" data-source-line="34" data-uid="ent0017" id="entity_UC13"><ellipse cx="852.8224" cy="1034.4505" fill="#EEF3FF" rx="86.3024" ry="19.6605" style="stroke:#2F6BFF;stroke-width:0.5;"/><text fill="#000000" font-family="sans-serif" font-size="14" lengthAdjust="spacing" textLength="145.3184" x="780.1632" y="1039.0989">UC13: Log Violations</text></g><!--entity UC17--><g class="entity" data-entity="UC17" data-source-line="35" data-uid="ent0018" id="entity_UC17"><ellipse cx="291.3851" cy="31.449" fill="#EEF3FF" rx="115.2451" ry="25.449" style="stroke:#2F6BFF;stroke-width:0.5;"/><text fill="#000000" font-family="sans-serif" font-size="14" lengthAdjust="spacing" textLength="209.1797" x="186.7953" y="36.0975">UC17: Monitor Exam Sessions</text></g><!--entity UC16--><g class="entity" data-entity="UC16" data-source-line="36" data-uid="ent0019" id="entity_UC16"><ellipse cx="291.3901" cy="117.454" fill="#EEF3FF" rx="118.1201" ry="26.024" style="stroke:#2F6BFF;stroke-width:0.5;"/><text fill="#000000" font-family="sans-serif" font-size="14" lengthAdjust="spacing" textLength="215.3389" x="183.7206" y="122.1025">UC16: View Candidate Reports</text></g><!--entity UC19--><g class="entity" data-entity="UC19" data-source-line="41" data-uid="ent0020" id="entity_UC19"><ellipse cx="593.2955" cy="585.4451" fill="#EEF3FF" rx="113.2255" ry="25.0451" style="stroke:#2F6BFF;stroke-width:0.5;"/><text fill="#000000" font-family="sans-serif" font-size="14" lengthAdjust="spacing" textLength="204.8389" x="490.8761" y="590.0935">UC19: Face Detection Engine</text></g><!--entity UC20--><g class="entity" data-entity="UC20" data-source-line="42" data-uid="ent0021" id="entity_UC20"><ellipse cx="593.3012" cy="708.4542" fill="#EEF3FF" rx="110.9712" ry="24.5942" style="stroke:#2F6BFF;stroke-width:0.5;"/><text fill="#000000" font-family="sans-serif" font-size="14" lengthAdjust="spacing" textLength="199.9785" x="493.3119" y="713.1027">UC20: Head Pose Estimation</text></g><!--entity UC21--><g class="entity" data-entity="UC21" data-source-line="43" data-uid="ent0022" id="entity_UC21"><ellipse cx="593.2961" cy="954.4492" fill="#EEF3FF" rx="87.2461" ry="19.8492" style="stroke:#2F6BFF;stroke-width:0.5;"/><text fill="#000000" font-family="sans-serif" font-size="14" lengthAdjust="spacing" textLength="147.4785" x="519.5568" y="959.0977">UC21: Voice Analysis</text></g><!--entity UC22--><g class="entity" data-entity="UC22" data-source-line="44" data-uid="ent0023" id="entity_UC22"><ellipse cx="593.3022" cy="789.4484" fill="#EEF3FF" rx="96.8422" ry="21.7684" style="stroke:#2F6BFF;stroke-width:0.5;"/><text fill="#000000" font-family="sans-serif" font-size="14" lengthAdjust="spacing" textLength="169.0732" x="508.7656" y="794.0969">UC22: Score Calculation</text></g><!--entity UC23--><g class="entity" data-entity="UC23" data-source-line="45" data-uid="ent0024" id="entity_UC23"><ellipse cx="593.2991" cy="868.4518" fill="#EEF3FF" rx="94.5091" ry="21.3018" style="stroke:#2F6BFF;stroke-width:0.5;"/><text fill="#000000" font-family="sans-serif" font-size="14" lengthAdjust="spacing" textLength="163.8779" x="511.3602" y="873.1003">UC23: Generate Report</text></g><!--link S to UC1--><g class="link" data-entity-1="S" data-entity-2="UC1" data-source-line="50" data-uid="lnk25" id="link_S_UC1"><path d="M82.36,533.23 C102.43,511.2 131.62,482.94 162.7,465.45 C182.37,454.39 199.8907,448.0208 221.1807,442.5208" fill="none" id="S-to-UC1" style="stroke:#181818;stroke-width:1;"/><polygon fill="#181818" points="226.99,441.02,217.2756,439.3983,222.1489,442.2706,219.2766,447.144,226.99,441.02" style="stroke:#181818;stroke-width:1;"/></g><!--link S to UC2--><g class="link" data-entity-1="S" data-entity-2="UC2" data-source-line="51" data-uid="lnk26" id="link_S_UC2"><path d="M82.08,555.84 C103.69,548.23 134.97,537.57 162.7,529.45 C190.89,521.21 217.1143,514.5746 242.0543,508.6146" fill="none" id="S-to-UC2" style="stroke:#181818;stroke-width:1;"/><polygon fill="#181818" points="247.89,507.22,238.2068,505.4214,243.0269,508.3821,240.0662,513.2023,247.89,507.22" style="stroke:#181818;stroke-width:1;"/></g><!--link S to UC3--><g class="link" data-entity-1="S" data-entity-2="UC3" data-source-line="52" data-uid="lnk27" id="link_S_UC3"><path d="M82.31,565.45 C112.88,565.45 158.18,565.45 202.2,565.45" fill="none" id="S-to-UC3" style="stroke:#181818;stroke-width:1;"/><polygon fill="#181818" points="208.2,565.45,199.2,561.45,203.2,565.45,199.2,569.45,208.2,565.45" style="stroke:#181818;stroke-width:1;"/></g><!--link S to UC4--><g class="link" data-entity-1="S" data-entity-2="UC4" data-source-line="53" data-uid="lnk28" id="link_S_UC4"><path d="M56.39,526.53 C60.42,457.08 79,311.59 162.7,231.45 C178.31,216.51 193.8371,209.2263 214.6171,204.2163" fill="none" id="S-to-UC4" style="stroke:#181818;stroke-width:1;"/><polygon fill="#181818" points="220.45,202.81,210.7632,201.0309,215.5893,203.9819,212.6382,208.808,220.45,202.81" style="stroke:#181818;stroke-width:1;"/></g><!--link S to UC5--><g class="link" data-entity-1="S" data-entity-2="UC5" data-source-line="54" data-uid="lnk29" id="link_S_UC5"><path d="M61.57,526.34 C72.38,471.16 99.81,370.81 162.7,313.45 C175.43,301.84 185.8332,295.5757 202.2032,289.6057" fill="none" id="S-to-UC5" style="stroke:#181818;stroke-width:1;"/><polygon fill="#181818" points="207.84,287.55,198.0143,286.8757,203.1426,289.2631,200.7552,294.3915,207.84,287.55" style="stroke:#181818;stroke-width:1;"/></g><!--link S to UC6--><g class="link" data-entity-1="S" data-entity-2="UC6" data-source-line="55" data-uid="lnk30" id="link_S_UC6"><path d="M70.05,526.66 C86.78,487.58 117.73,428.23 162.7,393.45 C177.68,381.87 190.3536,375.4638 208.4536,369.5838" fill="none" id="S-to-UC6" style="stroke:#181818;stroke-width:1;"/><polygon fill="#181818" points="214.16,367.73,204.3645,366.7064,209.4046,369.2748,206.8362,374.315,214.16,367.73" style="stroke:#181818;stroke-width:1;"/></g><!--link S to UC7--><g class="link" data-entity-1="S" data-entity-2="UC7" data-source-line="56" data-uid="lnk31" id="link_S_UC7"><path d="M82.13,574.9 C103.76,582.42 135.06,593.04 162.7,601.45 C188.32,609.25 211.2641,615.6484 234.9841,621.9984" fill="none" id="S-to-UC7" style="stroke:#181818;stroke-width:1;"/><polygon fill="#181818" points="240.78,623.55,233.1205,617.3587,235.9501,622.257,231.0517,625.0865,240.78,623.55" style="stroke:#181818;stroke-width:1;"/></g><!--link S to UC8--><g class="link" data-entity-1="S" data-entity-2="UC8" data-source-line="57" data-uid="lnk32" id="link_S_UC8"><path d="M64.08,604.2 C77.13,653.15 106.44,736.64 162.7,783.45 C178.9,796.93 194.0248,803.8634 214.2348,809.1434" fill="none" id="S-to-UC8" style="stroke:#181818;stroke-width:1;"/><polygon fill="#181818" points="220.04,810.66,212.3434,804.5149,215.2024,809.3961,210.3212,812.2551,220.04,810.66" style="stroke:#181818;stroke-width:1;"/></g><!--link S to UC9--><g class="link" data-entity-1="S" data-entity-2="UC9" data-source-line="58" data-uid="lnk33" id="link_S_UC9"><path d="M58.65,604.51 C66.03,666.78 89.48,788.34 162.7,855.45 C178.46,869.9 193.7932,877.0388 214.3532,882.0888" fill="none" id="S-to-UC9" style="stroke:#181818;stroke-width:1;"/><polygon fill="#181818" points="220.18,883.52,212.3939,877.4887,215.3243,882.3273,210.4857,885.2577,220.18,883.52" style="stroke:#181818;stroke-width:1;"/></g><!--link S to UC10--><g class="link" data-entity-1="S" data-entity-2="UC10" data-source-line="59" data-uid="lnk34" id="link_S_UC10"><path d="M60.14,604.27 C72.65,700.01 109.16,943.94 162.7,1003.45 C172.71,1014.58 180.1711,1020.4766 193.9111,1026.8766" fill="none" id="S-to-UC10" style="stroke:#181818;stroke-width:1;"/><polygon fill="#181818" points="199.35,1029.41,192.8806,1021.9839,194.8176,1027.2988,189.5027,1029.2358,199.35,1029.41" style="stroke:#181818;stroke-width:1;"/></g><!--link S to UC11--><g class="link" data-entity-1="S" data-entity-2="UC11" data-source-line="60" data-uid="lnk35" id="link_S_UC11"><path d="M55.56,604.47 C58.11,677.71 74.22,836.38 162.7,925.45 C175.61,938.44 187.0156,945.2395 204.4856,951.0395" fill="none" id="S-to-UC11" style="stroke:#181818;stroke-width:1;"/><polygon fill="#181818" points="210.18,952.93,202.8988,946.298,205.4347,951.3546,200.3781,953.8905,210.18,952.93" style="stroke:#181818;stroke-width:1;"/></g><!--link P to UC17--><g class="link" data-entity-1="P" data-entity-2="UC17" data-source-line="65" data-uid="lnk36" id="link_P_UC17"><path d="M103.2,65.7 C131.52,60.52 162.388,54.8701 195.828,48.7501" fill="none" id="P-to-UC17" style="stroke:#181818;stroke-width:1;"/><polygon fill="#181818" points="201.73,47.67,192.1569,45.3556,196.8117,48.5701,193.5971,53.2249,201.73,47.67" style="stroke:#181818;stroke-width:1;"/></g><!--link P to UC16--><g class="link" data-entity-1="P" data-entity-2="UC16" data-source-line="66" data-uid="lnk37" id="link_P_UC16"><path d="M103.2,83.21 C130.85,88.27 160.6479,93.7204 193.4479,99.7204" fill="none" id="P-to-UC16" style="stroke:#181818;stroke-width:1;"/><polygon fill="#181818" points="199.35,100.8,191.2167,95.2458,194.4316,99.9003,189.7771,103.1152,199.35,100.8" style="stroke:#181818;stroke-width:1;"/></g><!--link Sys to UC19--><g class="link" data-entity-1="Sys" data-entity-2="UC19" data-source-line="71" data-uid="lnk38" id="link_Sys_UC19"><path d="M318.97,716.25 C344.92,705.21 385.44,687.68 420.07,671.45 C463.65,651.03 507.3465,629.0989 541.9265,611.4389" fill="none" id="Sys-to-UC19" style="stroke:#181818;stroke-width:1;"/><polygon fill="#181818" points="547.27,608.71,537.4355,609.2411,542.8171,610.9841,541.074,616.3657,547.27,608.71" style="stroke:#181818;stroke-width:1;"/></g><!--link Sys to UC20--><g class="link" data-entity-1="Sys" data-entity-2="UC20" data-source-line="72" data-uid="lnk39" id="link_Sys_UC20"><path d="M319.26,725.75 C356.65,723.38 420.482,719.3393 480.162,715.5593" fill="none" id="Sys-to-UC20" style="stroke:#181818;stroke-width:1;"/><polygon fill="#181818" points="486.15,715.18,476.9152,711.7569,481.16,715.4961,477.4208,719.7409,486.15,715.18" style="stroke:#181818;stroke-width:1;"/></g><!--link Sys to UC21--><g class="link" data-entity-1="Sys" data-entity-2="UC21" data-source-line="73" data-uid="lnk40" id="link_Sys_UC21"><path d="M319.19,733.35 C347.39,740.77 391.57,756 420.07,783.45 C464.16,825.93 435.62,865.35 480.07,907.45 C495.33,921.91 510.0637,930.1188 529.2437,937.3288" fill="none" id="Sys-to-UC21" style="stroke:#181818;stroke-width:1;"/><polygon fill="#181818" points="534.86,939.44,527.8431,932.529,530.1798,937.6806,525.0281,940.0173,534.86,939.44" style="stroke:#181818;stroke-width:1;"/></g><!--link Sys to UC22--><g class="link" data-entity-1="Sys" data-entity-2="UC22" data-source-line="74" data-uid="lnk41" id="link_Sys_UC22"><path d="M319.26,733.01 C364.19,742.3 450.1143,760.0551 514.8243,773.4351" fill="none" id="Sys-to-UC22" style="stroke:#181818;stroke-width:1;"/><polygon fill="#181818" points="520.7,774.65,512.6964,768.9105,515.8036,773.6376,511.0765,776.7448,520.7,774.65" style="stroke:#181818;stroke-width:1;"/></g><!--link Sys to UC23--><g class="link" data-entity-1="Sys" data-entity-2="UC23" data-source-line="75" data-uid="lnk42" id="link_Sys_UC23"><path d="M319.17,737.12 C345.63,747.15 386.83,764.05 420.07,783.45 C448.86,800.26 450.7,812.68 480.07,828.45 C496.92,837.51 510.5825,843.2702 528.3925,849.4602" fill="none" id="Sys-to-UC23" style="stroke:#181818;stroke-width:1;"/><polygon fill="#181818" points="534.06,851.43,526.872,844.697,529.3371,849.7885,524.2456,852.2537,534.06,851.43" style="stroke:#181818;stroke-width:1;"/></g><!--link UC3 to UC19--><g class="link" data-entity-1="UC3" data-entity-2="UC19" data-source-line="78" data-uid="lnk43" id="link_UC3_UC19"><path d="M371.18,570.71 C405.81,573.02 441.0332,575.3715 478.4432,577.8615" fill="none" id="UC3-to-UC19" style="stroke:#181818;stroke-width:1;"/><polygon fill="#181818" points="484.43,578.26,475.7155,573.6711,479.441,577.9279,475.1842,581.6535,484.43,578.26" style="stroke:#181818;stroke-width:1;"/></g><!--link UC7 to UC20--><g class="link" data-entity-1="UC7" data-entity-2="UC20" data-source-line="79" data-uid="lnk44" id="link_UC7_UC20"><path d="M343.94,648.83 C391.51,660.25 456.886,675.9385 510.876,688.9085" fill="none" id="UC7-to-UC20" style="stroke:#181818;stroke-width:1;"/><polygon fill="#181818" points="516.71,690.31,508.8933,684.3184,511.8483,689.1421,507.0246,692.0971,516.71,690.31" style="stroke:#181818;stroke-width:1;"/></g><!--link UC11 to UC21--><g class="link" data-entity-1="UC11" data-entity-2="UC21" data-source-line="80" data-uid="lnk45" id="link_UC11_UC21"><path d="M386.05,961.33 C424.54,960.05 462.8334,958.7707 500.4834,957.5107" fill="none" id="UC11-to-UC21" style="stroke:#181818;stroke-width:1;"/><polygon fill="#181818" points="506.48,957.31,497.3512,953.6133,501.4828,957.4772,497.6188,961.6088,506.48,957.31" style="stroke:#181818;stroke-width:1;"/></g><!--link UC8 to UC22--><g class="link" data-entity-1="UC8" data-entity-2="UC22" data-source-line="81" data-uid="lnk46" id="link_UC8_UC22"><path d="M365.75,812.11 C407.54,807.93 454.2199,803.2682 498.2299,798.8582" fill="none" id="UC8-to-UC22" style="stroke:#181818;stroke-width:1;"/><polygon fill="#181818" points="504.2,798.26,494.846,795.1773,499.2249,798.7585,495.6437,803.1374,504.2,798.26" style="stroke:#181818;stroke-width:1;"/></g><!--link UC9 to UC23--><g class="link" data-entity-1="UC9" data-entity-2="UC23" data-source-line="82" data-uid="lnk47" id="link_UC9_UC23"><path d="M364.99,885.13 C406.5,882.08 452.9361,878.679 496.9661,875.449" fill="none" id="UC9-to-UC23" style="stroke:#181818;stroke-width:1;"/><polygon fill="#181818" points="502.95,875.01,493.6815,871.6792,497.9634,875.3758,494.2668,879.6577,502.95,875.01" style="stroke:#181818;stroke-width:1;"/></g><!--link UC10 to UC12--><g class="link" data-entity-1="UC10" data-entity-2="UC12" data-source-line="83" data-uid="lnk48" id="link_UC10_UC12"><path d="M417.4,1043.2 C444.89,1041.83 467.5274,1040.6879 493.4774,1039.3979" fill="none" id="UC10-to-UC12" style="stroke:#181818;stroke-width:1;"/><polygon fill="#181818" points="499.47,1039.1,490.2825,1035.5518,494.4762,1039.3482,490.6797,1043.5419,499.47,1039.1" style="stroke:#181818;stroke-width:1;"/></g><!--link UC11 to UC12--><g class="link" data-entity-1="UC11" data-entity-2="UC12" data-source-line="84" data-uid="lnk49" id="link_UC11_UC12"><path d="M358.95,979.99 C408.47,991.55 469.9571,1005.8959 519.5571,1017.4759" fill="none" id="UC11-to-UC12" style="stroke:#181818;stroke-width:1;"/><polygon fill="#181818" points="525.4,1018.84,517.5451,1012.8986,520.5309,1017.7032,515.7263,1020.6891,525.4,1018.84" style="stroke:#181818;stroke-width:1;"/></g><!--link UC12 to UC13--><g class="link" data-entity-1="UC12" data-entity-2="UC13" data-source-line="85" data-uid="lnk50" id="link_UC12_UC13"><path d="M689.46,1034.45 C714.67,1034.45 735.74,1034.45 760.41,1034.45" fill="none" id="UC12-to-UC13" style="stroke:#181818;stroke-width:1;"/><polygon fill="#181818" points="766.41,1034.45,757.41,1030.45,761.41,1034.45,757.41,1038.45,766.41,1034.45" style="stroke:#181818;stroke-width:1;"/></g><!--SRC=[bLLDZzem4BtdLrZRGq-haWJ2nw4IfRHTgPKGwUxT91EmI6naEwNvzvq4Ex4b2WkdiUVvsVFUJ2YXq4GB8jd-e4dE96IQ2Hwe8-CdAcb5QAQ5J7LJ0g5dKA829rahoAY2BqBc85UY599yY8faLnHNG3GxxgMeUMw004Ni0RkhVAvn78wZ8EWo9DLr3bmJgaXgjfvIJOk2V28RATgDfpQviVX6QQWwUAE2u2Dv_iyFKyjQ7v2RPRIjdxmg82jyjBfroXH6dbvNuO9iOS_mFjcUlRm3jrrCj20_nPvnaulSNBmWRo1PqP2NjaIc6uEANTGOKGpERR45Ay50ndTAM_-bbNgueecvQ_c7ifBkqFwEnzmvSQ790gsXKdS8ae9IAA419YvmkY2_wV72PF9JDpz3edfNCUqYPYvYRbwrXPEGsY3cTmGmlS7u_d5VHwsnj7pMh0AyEWT1VWdEBdJMvP5t17jXMUVi6j3hXn0RuYjed3Wa5cNNU5RVqEkECEvQvmhCQuyGzJLtUbRqQ4_iC35QhYZFMKur65LxU797LpDVBnoxdjFoSN7HpMyq0wD2EtThZWDY6pkSU-E3Llm0cfEDm8srGaSwBUmuUIP4QCAROCYzn9SrYjcY8dyaqO8q4x9zTvdLfKVeMH2X1T-1WnnqihZudapcixLKIcJiuj-j4occFdSV3nj5VHJtqRYF9dsKzD6qZsPzD1-OHqCOtdszzu5zTnKRUy5q2D_PKCmsLCduyRPKZRBSSsU1lU0iGdSHkOlEkIsOcJgmao8xq6S0_0DO1QZsG8wI3kIjR0CxQZomeym3UwkqfOZSKvTLP5VnFm00]--></g></svg>